<svg xmlns="http://www.w3.org/2000/svg" xmlns:xlink="http://www.w3.org/1999/xlink" viewBox="0,0,256,256" width="100px" height="100px"><g fill="none" fill-rule="nonzero" stroke="none" stroke-width="1" stroke-linecap="butt" stroke-linejoin="miter" stroke-miterlimit="10" stroke-dasharray="" stroke-dashoffset="0" font-family="none" font-weight="none" font-size="none" text-anchor="none" style="mix-blend-mode: normal"><g transform="scale(4,4)"><rect x="16" y="16" width="32" height="30" fill="#008aa9"></rect><ellipse cx="32" cy="61" rx="19" ry="3" fill="#000000" opacity="0.3"></ellipse><path d="M48,20h-32c-1.657,0 -3,-1.343 -3,-3v-7c0,-1.657 1.343,-3 3,-3h32c1.657,0 3,1.343 3,3v7c0,1.657 -1.343,3 -3,3z" fill="#37d0ee"></path><path d="M48,37h-32c-1.657,0 -3,-1.343 -3,-3v-7c0,-1.657 1.343,-3 3,-3h32c1.657,0 3,1.343 3,3v7c0,1.657 -1.343,3 -3,3z" fill="#37d0ee"></path><path d="M48,54h-32c-1.657,0 -3,-1.343 -3,-3v-7c0,-1.657 1.343,-3 3,-3h32c1.657,0 3,1.343 3,3v7c0,1.657 -1.343,3 -3,3z" fill="#37d0ee"></path><path d="M30,12c2.761,0 5,-2.239 5,-5h-19c-1.657,0 -3,1.343 -3,3v7c0,1.657 1.343,3 3,3v4c-1.657,0 -3,1.343 -3,3v7c0,0.738 0.277,1.405 0.719,1.928c2.418,-0.352 4.281,-2.413 4.281,-4.928v-2.416c1.766,-0.771 3,-2.534 3,-4.584v-4c0,-2.05 -1.234,-3.812 -3,-4.584v-2.416c0,-0.552 0.448,-1 1,-1z" fill="#ffffff" opacity="0.3"></path><path d="M51,51v-7c0,-1.657 -1.343,-3 -3,-3v-4c1.657,0 3,-1.343 3,-3v-7c0,-0.738 -0.277,-1.405 -0.719,-1.928c-2.418,0.352 -4.281,2.413 -4.281,4.928v2.416c-1.766,0.771 -3,2.534 -3,4.584v4c0,2.05 1.234,3.812 3,4.584v2.416c0,0.552 -0.448,1 -1,1h-10c-2.761,0 -5,2.239 -5,5h18c1.657,0 3,-1.343 3,-3z" fill="#000000" opacity="0.15"></path><path d="M16.5,16c-0.828,0 -1.5,-0.672 -1.5,-1.5v-4c0,-0.828 0.672,-1.5 1.5,-1.5h3c0.828,0 1.5,0.672 1.5,1.5c0,0.828 -0.672,1.5 -1.5,1.5h-1.5v2.5c0,0.828 -0.672,1.5 -1.5,1.5z" fill="#ffffff"></path><circle cx="47.5" cy="45.5" r="9.5" fill="#263860"></circle><path d="M56.501,57c-0.412,0 -0.822,-0.169 -1.119,-0.5l-8.5,-9.5c-0.552,-0.617 -0.499,-1.565 0.118,-2.118c0.617,-0.554 1.564,-0.499 2.118,0.118l8.5,9.5c0.552,0.617 0.499,1.565 -0.118,2.118c-0.286,0.256 -0.644,0.382 -0.999,0.382z" fill="#263860"></path><circle cx="47.5" cy="45.52" r="6.48" fill="#4ccff1"></circle></g></g></svg>