<svg xmlns="http://www.w3.org/2000/svg" xmlns:xlink="http://www.w3.org/1999/xlink" viewBox="0,0,256,256" width="100px" height="100px"><defs><radialGradient cx="32" cy="31.5" r="31.751" gradientUnits="userSpaceOnUse" id="color-1"><stop offset="0" stop-color="#ecd59c" stop-opacity="0"></stop><stop offset="0.242" stop-color="#efd9a4" stop-opacity="0"></stop><stop offset="0.627" stop-color="#f6e5bb" stop-opacity="0.01176"></stop><stop offset="1" stop-color="#fff3d8" stop-opacity="0"></stop></radialGradient><linearGradient x1="39.5" y1="29.675" x2="39.5" y2="63.193" gradientUnits="userSpaceOnUse" id="color-2"><stop offset="0" stop-color="#40daf2"></stop><stop offset="1" stop-color="#1ba7dd"></stop></linearGradient><linearGradient x1="28.5" y1="46" x2="28.5" y2="3.088" gradientUnits="userSpaceOnUse" id="color-3"><stop offset="0" stop-color="#155cde"></stop><stop offset="0.007" stop-color="#155dde"></stop><stop offset="0.459" stop-color="#238ce8"></stop><stop offset="0.804" stop-color="#2baaee"></stop><stop offset="1" stop-color="#2eb5f0"></stop></linearGradient><linearGradient x1="81.34" y1="38.5" x2="27.575" y2="38.5" gradientUnits="userSpaceOnUse" id="color-4"><stop offset="0" stop-color="#40daf2"></stop><stop offset="0.17" stop-color="#34caeb"></stop><stop offset="0.439" stop-color="#26b6e3"></stop><stop offset="0.714" stop-color="#1eabdf"></stop><stop offset="1" stop-color="#1ba7dd"></stop></linearGradient></defs><g fill="none" fill-rule="nonzero" stroke="none" stroke-width="1" stroke-linecap="butt" stroke-linejoin="miter" stroke-miterlimit="10" stroke-dasharray="" stroke-dashoffset="0" font-family="none" font-weight="none" font-size="none" text-anchor="none" style="mix-blend-mode: normal"><g transform="scale(4,4)"><path d="M60.5,32c2.168,0 3.892,-1.998 3.422,-4.243c-0.342,-1.635 -1.866,-2.757 -3.537,-2.757h-17.385v-7h14.386c1.67,0 3.195,-1.122 3.537,-2.757c0.469,-2.246 -1.255,-4.243 -3.423,-4.243h-11.5c-1.105,0 -2,-0.895 -2,-2v0c0,-1.105 0.895,-2 2,-2h4.385c1.67,0 3.195,-1.122 3.537,-2.757c0.47,-2.245 -1.254,-4.243 -3.422,-4.243h-39.885c-1.671,0 -3.195,1.122 -3.537,2.757c-0.47,2.245 1.254,4.243 3.422,4.243h2.5c1.105,0 2,0.895 2,2v0c0,1.105 -0.895,2 -2,2h-6.385c-1.67,0 -3.195,1.122 -3.537,2.757c-0.47,2.245 1.254,4.243 3.422,4.243h15.5v15h-18.386c-1.67,0 -3.195,1.122 -3.537,2.757c-0.469,2.245 1.255,4.243 3.423,4.243h0.5c1.105,0 2,0.895 2,2v0c0,1.105 -0.895,2 -2,2h-0.385c-1.67,0 -3.195,1.122 -3.537,2.757c-0.47,2.245 1.254,4.243 3.422,4.243h21.115c1.317,0 2.385,1.068 2.385,2.385v0.229c0,1.318 -1.068,2.386 -2.385,2.386h-5c-1.67,0 -3.195,1.122 -3.537,2.757c-0.47,2.245 1.254,4.243 3.422,4.243h38.885c1.67,0 3.195,-1.122 3.537,-2.757c0.47,-2.245 -1.254,-4.243 -3.422,-4.243h-3.115c-1.317,0 -2.385,-1.068 -2.385,-2.385v-0.229c0,-1.318 1.068,-2.386 2.385,-2.386v0c1.67,0 3.195,-1.122 3.537,-2.757c0.47,-2.245 -1.254,-4.243 -3.422,-4.243h-12.5v-12z" fill="url(#color-1)"></path><path d="M51,33h-23c-2.2,0 -4,1.8 -4,4v13c0,2.2 1.8,4 4,4h17.901c1.09,0 2.093,0.591 2.622,1.543l1.692,3.045c0.402,0.723 1.097,1.278 1.917,1.388c1.547,0.208 2.868,-0.989 2.868,-2.494v-7.482v-13c0,-2.2 -1.8,-4 -4,-4z" fill="url(#color-2)"></path><path d="M45,9h-33c-2.2,0 -4,1.8 -4,4v20v5v4.688c0,1.47 0.932,2.85 2.356,3.212c1.428,0.363 2.862,-0.292 3.543,-1.519l2.402,-4.323c0.706,-1.27 2.044,-2.058 3.497,-2.058h25.202c2.2,0 4,-1.8 4,-4v-21c0,-2.2 -1.8,-4 -4,-4z" fill="url(#color-3)"></path><path d="M45,44c4.873,0 8.937,-3.506 9.818,-8.126c-0.492,-1.653 -2.011,-2.874 -3.818,-2.874h-2v1c0,2.2 -1.8,4 -4,4h-21v6z" fill="url(#color-4)"></path><path d="M28.5,21c-1.38071,0 -2.5,1.11929 -2.5,2.5c0,1.38071 1.11929,2.5 2.5,2.5c1.38071,0 2.5,-1.11929 2.5,-2.5c0,-1.38071 -1.11929,-2.5 -2.5,-2.5zM37.5,21c-1.38071,0 -2.5,1.11929 -2.5,2.5c0,1.38071 1.11929,2.5 2.5,2.5c1.38071,0 2.5,-1.11929 2.5,-2.5c0,-1.38071 -1.11929,-2.5 -2.5,-2.5zM19.5,21c-1.38071,0 -2.5,1.11929 -2.5,2.5c0,1.38071 1.11929,2.5 2.5,2.5c1.38071,0 2.5,-1.11929 2.5,-2.5c0,-1.38071 -1.11929,-2.5 -2.5,-2.5z" fill="#ffffff"></path></g></g></svg>