<svg xmlns="http://www.w3.org/2000/svg"  viewBox="0 0 64 64" width="64px" height="64px"><polygon fill="#f46240" points="56 46 44.876 35.511 38.517 36.517 52 50 50 52 58 52 58 44 56 46"/><polygon fill="#f2c341" points="14 5 16 3 8 3 8 11 10 9 21.013 19.303 21.424 12.424 14 5"/><polygon fill="#5baf2f" points="53 3 55 5 45.212 14.788 47.411 19.841 59 9 61 11 61 3 53 3"/><path fill="#f9bb8b" d="M20,52.164v4.064a4,4,0,0,1-3.765,3.993h25.53A4,4,0,0,1,38,56.228V53.345a8,8,0,0,1,3.753-6.751,22.047,22.047,0,0,0,9.61-23.971A21.636,21.636,0,0,0,32.435,6.131C20.889,4.89,12.882,12.614,10.529,23.213L3.806,34.442a1,1,0,0,0,.421,1.538c1.154.462,2.366.631,3.486.994a4.335,4.335,0,0,1,2.947,3.7l.047.463a15.916,15.916,0,0,0,4.245,9.441,6.989,6.989,0,0,0,2.111,1.609,4.279,4.279,0,0,0,2.686.042Z"/><path fill="#f9af75" d="M31.98,38.8A2.984,2.984,0,0,1,29,35.818V34.039c-.139-.054-.276-.111-.412-.171l-1.259,1.258a2.98,2.98,0,0,1-4.216,0l-1.441-1.441a2.984,2.984,0,0,1,0-4.215l1.259-1.259c-.06-.136-.118-.273-.171-.412H20.98A2.984,2.984,0,0,1,18,24.818v-2.04a2.984,2.984,0,0,1,2.98-2.98h1.78c.053-.138.111-.276.171-.412l-1.259-1.259a2.979,2.979,0,0,1,0-4.214l1.443-1.443a2.98,2.98,0,0,1,4.214,0l1.259,1.258c.136-.06.273-.117.412-.171v-1.78A2.984,2.984,0,0,1,31.98,8.8h2.04A2.984,2.984,0,0,1,37,11.778v1.78c.139.054.276.111.412.171l1.259-1.259a2.982,2.982,0,0,1,4.216,0l1.441,1.441a2.979,2.979,0,0,1,0,4.215l-1.258,1.258c.06.136.118.274.171.412h1.78A2.984,2.984,0,0,1,48,22.778v2.04a2.984,2.984,0,0,1-2.98,2.98H43.24c-.053.139-.111.276-.171.412l1.259,1.259a2.98,2.98,0,0,1,0,4.215l-1.443,1.442a2.979,2.979,0,0,1-4.214,0l-1.259-1.258c-.136.06-.273.117-.412.171v1.779a2.984,2.984,0,0,1-2.98,2.98ZM33,20a4,4,0,1,0,4,4A4,4,0,0,0,33,20Z"/><path fill="#3c8bfc" d="M31.98,37.3a1.482,1.482,0,0,1-1.48-1.48v-2.5a.5.5,0,0,0-.373-.468,9.463,9.463,0,0,1-1.492-.619.576.576,0,0,0-.265-.067.458.458,0,0,0-.331.133l-1.77,1.77a1.48,1.48,0,0,1-2.094,0l-1.443-1.442a1.482,1.482,0,0,1,0-2.093L24.5,28.76a.5.5,0,0,0,.067-.6,9.48,9.48,0,0,1-.62-1.491.5.5,0,0,0-.468-.374h-2.5a1.482,1.482,0,0,1-1.48-1.48v-2.04a1.482,1.482,0,0,1,1.48-1.48h2.5a.5.5,0,0,0,.468-.373,9.457,9.457,0,0,1,.62-1.491.5.5,0,0,0-.067-.6l-1.771-1.771a1.48,1.48,0,0,1,0-2.092l1.444-1.443a1.481,1.481,0,0,1,2.093,0l1.77,1.77a.457.457,0,0,0,.331.134.576.576,0,0,0,.265-.067,9.463,9.463,0,0,1,1.492-.619.5.5,0,0,0,.373-.468v-2.5a1.482,1.482,0,0,1,1.48-1.48h2.04a1.482,1.482,0,0,1,1.48,1.48v2.5a.5.5,0,0,0,.373.468,9.463,9.463,0,0,1,1.492.619.576.576,0,0,0,.265.067.457.457,0,0,0,.331-.134l1.77-1.77a1.481,1.481,0,0,1,2.094,0l1.443,1.442a1.481,1.481,0,0,1,0,2.093L41.5,18.837a.5.5,0,0,0-.067.6,9.485,9.485,0,0,1,.62,1.49.5.5,0,0,0,.468.374h2.5a1.482,1.482,0,0,1,1.48,1.48v2.04a1.482,1.482,0,0,1-1.48,1.48h-2.5a.5.5,0,0,0-.468.374,9.571,9.571,0,0,1-.619,1.491.5.5,0,0,0,.066.6l1.771,1.771a1.481,1.481,0,0,1,0,2.093l-1.444,1.442a1.479,1.479,0,0,1-2.093,0l-1.77-1.77a.458.458,0,0,0-.331-.133.576.576,0,0,0-.265.067,9.463,9.463,0,0,1-1.492.619.5.5,0,0,0-.373.468v2.5a1.482,1.482,0,0,1-1.48,1.48ZM33,18.5A5.5,5.5,0,1,0,38.5,24,5.506,5.506,0,0,0,33,18.5Z"/><path fill="#4c94fc" d="M45.02,21.8h-2.5a1,1,0,0,1-.945-.722,8.936,8.936,0,0,0-.587-1.412,1,1,0,0,1,.157-1.181l1.771-1.77a.981.981,0,0,0,0-1.386l-1.443-1.442a.98.98,0,0,0-1.386,0l-1.77,1.77a1,1,0,0,1-1.181.157,8.9,8.9,0,0,0-1.412-.587A1,1,0,0,1,35,14.281v-2.5a.98.98,0,0,0-.98-.98H31.98a.98.98,0,0,0-.98.98v2.5a1,1,0,0,1-.722.944,8.9,8.9,0,0,0-1.412.587,1,1,0,0,1-1.181-.157l-1.77-1.77a.98.98,0,0,0-1.386,0l-1.443,1.442a.981.981,0,0,0,0,1.386l1.771,1.77a1,1,0,0,1,.157,1.181,8.936,8.936,0,0,0-.587,1.412,1,1,0,0,1-.945.722h-2.5a.98.98,0,0,0-.98.98v2.04a.98.98,0,0,0,.98.98h2.5a1,1,0,0,1,.945.722,8.908,8.908,0,0,0,.587,1.413,1,1,0,0,1-.157,1.18l-1.771,1.77a.981.981,0,0,0,0,1.386l1.443,1.443a.98.98,0,0,0,1.386,0l1.77-1.77a1,1,0,0,1,1.181-.158,8.9,8.9,0,0,0,1.412.587,1,1,0,0,1,.722.945v2.5a.98.98,0,0,0,.98.98h2.04a.98.98,0,0,0,.98-.98v-2.5a1,1,0,0,1,.722-.945,8.9,8.9,0,0,0,1.412-.587,1,1,0,0,1,1.181.158l1.77,1.77a.98.98,0,0,0,1.386,0l1.443-1.443a.981.981,0,0,0,0-1.386l-1.771-1.77a1,1,0,0,1-.157-1.18,8.908,8.908,0,0,0,.587-1.413,1,1,0,0,1,.945-.722h2.5a.98.98,0,0,0,.98-.98v-2.04A.98.98,0,0,0,45.02,21.8ZM33,30a6,6,0,1,1,6-6A6,6,0,0,1,33,30Z"/><path fill="#f9af75" d="M31.062,45.188s-6.653,5.9-11.313,7.042L20,52.164v4.064a4,4,0,0,1-3.765,3.993H20.54Z"/></svg>