<svg xmlns="http://www.w3.org/2000/svg"  viewBox="0 0 48 48" width="100px" height="100px" baseProfile="basic"><linearGradient id="rVx7n1_lMzqbAnd1SWWNPa" x1="14.899" x2="14.899" y1="25.942" y2="12.828" gradientTransform="rotate(45.001 24 23.441)" gradientUnits="userSpaceOnUse"><stop offset="0" stop-color="#9631cc"/><stop offset="1" stop-color="#7717a2"/></linearGradient><path fill="url(#rVx7n1_lMzqbAnd1SWWNPa)" d="M18.701,21.679c0.211-0.268,5.115-6.632-0.05-14.38l2.246-1.969	c5.993,8.99-0.572,17.519-0.633,17.595L18.701,21.679z"/><linearGradient id="rVx7n1_lMzqbAnd1SWWNPb" x1="33.101" x2="33.101" y1="25.939" y2="12.828" gradientTransform="rotate(45.001 24 23.441)" gradientUnits="userSpaceOnUse"><stop offset="0" stop-color="#9631cc"/><stop offset="1" stop-color="#7717a2"/></linearGradient><path fill="url(#rVx7n1_lMzqbAnd1SWWNPb)" d="M25.765,28.739l-1.25-1.562c0.076-0.061,8.606-6.627,17.595-0.633l-1.969,2.246	C32.355,23.599,25.83,28.687,25.765,28.739z"/><linearGradient id="rVx7n1_lMzqbAnd1SWWNPc" x1="6.959" x2="11.177" y1="16.432" y2="4.842" gradientTransform="rotate(45.001 24 23.441)" gradientUnits="userSpaceOnUse"><stop offset="0" stop-color="#fed100"/><stop offset="1" stop-color="#e38101"/></linearGradient><polygon fill="url(#rVx7n1_lMzqbAnd1SWWNPc)" points="19.641,3.548 17.279,1.786 17.316,4.731 14.911,6.433 17.725,7.308 18.599,10.121 20.301,7.716 23.246,7.754 21.484,5.392 22.43,2.601"/><linearGradient id="rVx7n1_lMzqbAnd1SWWNPd" x1="38.614" x2="42.96" y1="16.511" y2="4.571" gradientTransform="rotate(45.001 24 23.441)" gradientUnits="userSpaceOnUse"><stop offset="0" stop-color="#fed100"/><stop offset="1" stop-color="#e38101"/></linearGradient><polygon fill="url(#rVx7n1_lMzqbAnd1SWWNPd)" points="42.051,25.9 39.618,24.085 39.657,27.119 37.179,28.872 40.078,29.773 40.978,32.671 42.731,30.193 45.766,30.232 43.95,27.799 44.925,24.925"/><linearGradient id="rVx7n1_lMzqbAnd1SWWNPe" x1="24" x2="24" y1="25.828" y2="9.828" gradientTransform="rotate(45.001 24 23.441)" gradientUnits="userSpaceOnUse"><stop offset="0" stop-color="#9631cc"/><stop offset="1" stop-color="#7717a2"/></linearGradient><polygon fill="url(#rVx7n1_lMzqbAnd1SWWNPe)" points="23.019,25.836 21.605,24.422 32.211,12.401 35.04,15.23"/><linearGradient id="rVx7n1_lMzqbAnd1SWWNPf" x1="22.212" x2="28.519" y1="10.722" y2="-6.608" gradientTransform="rotate(45.001 24 23.441)" gradientUnits="userSpaceOnUse"><stop offset="0" stop-color="#fed100"/><stop offset="1" stop-color="#e38101"/></linearGradient><polygon fill="url(#rVx7n1_lMzqbAnd1SWWNPf)" points="39.989,7.451 38.575,11.623 41.21,15.153 36.805,15.097 34.261,18.693 32.954,14.487 28.747,13.179 32.344,10.636 32.288,6.231 35.818,8.866"/><linearGradient id="rVx7n1_lMzqbAnd1SWWNPg" x1="24" x2="24" y1="51.711" y2="23.828" gradientTransform="rotate(45.001 24 23.441)" gradientUnits="userSpaceOnUse"><stop offset="0" stop-color="#f44f5a"/><stop offset=".443" stop-color="#ee3d4a"/><stop offset=".843" stop-color="#e52030"/></linearGradient><path fill="url(#rVx7n1_lMzqbAnd1SWWNPg)" d="M5.007,43.681l27.727-8.876c0.723-0.219,0.952-1.13,0.418-1.664L14.301,14.289	c-0.534-0.534-1.446-0.306-1.664,0.418L3.76,42.434C3.529,43.198,4.243,43.912,5.007,43.681z"/><linearGradient id="rVx7n1_lMzqbAnd1SWWNPh" x1="24" x2="24" y1="31.828" y2="27.828" gradientTransform="rotate(45.001 24 23.441)" gradientUnits="userSpaceOnUse"><stop offset="0" stop-color="#ffcf54"/><stop offset=".261" stop-color="#fdcb4d"/><stop offset=".639" stop-color="#f7c13a"/><stop offset="1" stop-color="#f0b421"/></linearGradient><polygon fill="url(#rVx7n1_lMzqbAnd1SWWNPh)" points="25.741,37.044 30.026,35.672 11.769,17.415 10.398,21.7"/><linearGradient id="rVx7n1_lMzqbAnd1SWWNPi" x1="24" x2="24" y1="39.828" y2="35.828" gradientTransform="rotate(45.001 24 23.441)" gradientUnits="userSpaceOnUse"><stop offset="0" stop-color="#ffcf54"/><stop offset=".261" stop-color="#fdcb4d"/><stop offset=".639" stop-color="#f7c13a"/><stop offset="1" stop-color="#f0b421"/></linearGradient><polygon fill="url(#rVx7n1_lMzqbAnd1SWWNPi)" points="17.171,39.787 21.456,38.415 9.026,25.985 7.654,30.27"/><linearGradient id="rVx7n1_lMzqbAnd1SWWNPj" x1="24" x2="24" y1="47.828" y2="43.828" gradientTransform="rotate(45.001 24 23.441)" gradientUnits="userSpaceOnUse"><stop offset="0" stop-color="#ffcf54"/><stop offset=".261" stop-color="#fdcb4d"/><stop offset=".639" stop-color="#f7c13a"/><stop offset="1" stop-color="#f0b421"/></linearGradient><polygon fill="url(#rVx7n1_lMzqbAnd1SWWNPj)" points="8.601,42.53 12.886,41.159 6.282,34.556 4.911,38.841"/></svg>