<svg xmlns="http://www.w3.org/2000/svg" xmlns:xlink="http://www.w3.org/1999/xlink" viewBox="0,0,256,256" width="100px" height="100px"><defs><radialGradient cx="32" cy="31.5" r="31.259" gradientUnits="userSpaceOnUse" id="color-1"><stop offset="0" stop-color="#eed7a2"></stop><stop offset="0.106" stop-color="#f1dcab"></stop><stop offset="0.437" stop-color="#f8e8c3"></stop><stop offset="0.744" stop-color="#fcefd2" stop-opacity="0"></stop><stop offset="1" stop-color="#fef2d7" stop-opacity="0.07059"></stop></radialGradient><linearGradient x1="32.5" y1="74.094" x2="32.5" y2="10.539" gradientUnits="userSpaceOnUse" id="color-2"><stop offset="0" stop-color="#3cb5ea"></stop><stop offset="1" stop-color="#7ddefb"></stop></linearGradient><linearGradient x1="32.5" y1="20" x2="32.5" y2="12" gradientUnits="userSpaceOnUse" id="color-3"><stop offset="0" stop-color="#3281e6"></stop><stop offset="1" stop-color="#3a99eb"></stop></linearGradient><linearGradient x1="32.5" y1="46" x2="32.5" y2="28" gradientUnits="userSpaceOnUse" id="color-4"><stop offset="0" stop-color="#2675c2"></stop><stop offset="1" stop-color="#308ad5"></stop></linearGradient><linearGradient x1="65.032" y1="42.964" x2="55.019" y2="42.964" gradientUnits="userSpaceOnUse" id="color-5"><stop offset="0" stop-color="#ff634d"></stop><stop offset="0.208" stop-color="#fd6464"></stop><stop offset="0.522" stop-color="#fc6582"></stop><stop offset="0.793" stop-color="#fa6694"></stop><stop offset="0.989" stop-color="#fa669a"></stop><stop offset="1" stop-color="#fa669a"></stop></linearGradient><linearGradient x1="58.759" y1="53.059" x2="42.266" y2="53.059" gradientUnits="userSpaceOnUse" id="color-6"><stop offset="0" stop-color="#ff9757"></stop><stop offset="1" stop-color="#ffb65b"></stop><stop offset="1" stop-color="#ffb65b"></stop></linearGradient><linearGradient x1="50.958" y1="45.493" x2="59.595" y2="45.493" gradientUnits="userSpaceOnUse" id="color-7"><stop offset="0" stop-color="#d8d8d8"></stop><stop offset="0.759" stop-color="#c9c9c9"></stop><stop offset="1" stop-color="#c3c3c3"></stop></linearGradient><linearGradient x1="54.262" y1="60.152" x2="39.317" y2="60.152" gradientUnits="userSpaceOnUse" id="color-8"><stop offset="0" stop-color="#ffce76"></stop><stop offset="0.004" stop-color="#ffce76"></stop><stop offset="0.605" stop-color="#ffcd92"></stop><stop offset="1" stop-color="#ffcca0"></stop><stop offset="1" stop-color="#ffcca0"></stop></linearGradient><linearGradient x1="38.197" y1="62.055" x2="42.087" y2="62.055" gradientUnits="userSpaceOnUse" id="color-9"><stop offset="0" stop-color="#a4a4a4"></stop><stop offset="0.63" stop-color="#7f7f7f"></stop><stop offset="1" stop-color="#6f6f6f"></stop><stop offset="1" stop-color="#6f6f6f"></stop></linearGradient></defs><g fill="none" fill-rule="nonzero" stroke="none" stroke-width="1" stroke-linecap="butt" stroke-linejoin="miter" stroke-miterlimit="10" stroke-dasharray="" stroke-dashoffset="0" font-family="none" font-weight="none" font-size="none" text-anchor="none" style="mix-blend-mode: normal"><g transform="scale(4,4)"><path d="M59,54h-0.001h-3.999c-1.1,0 -2,-0.9 -2,-2v0v0v0c0,-0.003 0.001,-0.005 0.001,-0.008c0.004,-1.074 0.857,-1.943 1.922,-1.984c0.026,-0.001 1.578,-0.008 1.578,-0.008c1.924,0 3.499,-1.575 3.499,-3.5c0,-1.925 -1.575,-3.5 -3.5,-3.5h-6.5c-1.381,0 -2.5,-1.119 -2.5,-2.5c0,-1.381 1.119,-2.5 2.5,-2.5h8c1.65,0 3,-1.35 3,-3c0,-1.65 -1.35,-3 -3,-3h-16v-6h18c2.335,0 4.22,-2.028 3.979,-4.41c-0.209,-2.076 -2.082,-3.59 -4.168,-3.59h-0.811c-1.105,0 -2,-0.895 -2,-2c0,-1.105 0.895,-2 2,-2h0.357c1.308,0 2.499,-0.941 2.63,-2.242c0.15,-1.497 -1.021,-2.758 -2.487,-2.758h-15c-0.828,0 -1.5,-0.672 -1.5,-1.5c0,-0.828 0.672,-1.5 1.5,-1.5h3.857c1.308,0 2.499,-0.941 2.63,-2.242c0.15,-1.497 -1.021,-2.758 -2.487,-2.758h-32.857c-1.308,0 -2.499,0.941 -2.63,2.242c-0.15,1.497 1.021,2.758 2.487,2.758h3.5c1.105,0 2,0.895 2,2c0,1.105 -0.895,2 -2,2h-12.811c-2.086,0 -3.958,1.514 -4.168,3.59c-0.241,2.382 1.644,4.41 3.979,4.41h2.5c1.933,0 3.5,1.567 3.5,3.5c0,1.933 -1.567,3.5 -3.5,3.5h-3.311c-2.086,0 -3.958,1.514 -4.168,3.59c-0.241,2.382 1.644,4.41 3.979,4.41h17v11h-16c-1.65,0 -3,1.35 -3,3c0,1.65 1.35,3 3,3c1.105,0 2,0.895 2,2c0,1.105 -0.895,2 -2,2h-1.811c-2.086,0 -3.958,1.514 -4.168,3.59c-0.241,2.382 1.644,4.41 3.979,4.41h54.811c2.086,0 3.958,-1.514 4.168,-3.59c0.241,-2.382 -1.644,-4.41 -3.979,-4.41z" fill="url(#color-1)"></path><path d="M51,12h-37c-2.209,0 -4,1.791 -4,4v36c0,2.209 1.791,4 4,4h37c2.209,0 4,-1.791 4,-4v-36c0,-2.209 -1.791,-4 -4,-4z" fill="url(#color-2)"></path><path d="M10,16v4h45v-4c0,-2.209 -1.791,-4 -4,-4h-37c-2.209,0 -4,1.791 -4,4z" fill="url(#color-3)"></path><path d="M44,46h-15c-1.105,0 -2,-0.895 -2,-2v0c0,-1.105 0.895,-2 2,-2h15c1.105,0 2,0.895 2,2v0c0,1.105 -0.895,2 -2,2zM46,37v0c0,-1.105 -0.895,-2 -2,-2h-15c-1.105,0 -2,0.895 -2,2v0c0,1.105 0.895,2 2,2h15c1.105,0 2,-0.895 2,-2zM46,30v0c0,-1.105 -0.895,-2 -2,-2h-15c-1.105,0 -2,0.895 -2,2v0c0,1.105 0.895,2 2,2h15c1.105,0 2,-0.895 2,-2zM24,44v0c0,-1.105 -0.895,-2 -2,-2h-1c-1.105,0 -2,0.895 -2,2v0c0,1.105 0.895,2 2,2h1c1.105,0 2,-0.895 2,-2zM24,37v0c0,-1.105 -0.895,-2 -2,-2h-1c-1.105,0 -2,0.895 -2,2v0c0,1.105 0.895,2 2,2h1c1.105,0 2,-0.895 2,-2zM24,30v0c0,-1.105 -0.895,-2 -2,-2h-1c-1.105,0 -2,0.895 -2,2v0c0,1.105 0.895,2 2,2h1c1.105,0 2,-0.895 2,-2z" fill="url(#color-4)"></path><path d="M63.577,43.134l-3.711,-3.709c-0.564,-0.566 -1.482,-0.566 -2.046,0l-1.747,1.747l5.758,5.757l1.746,-1.747c0.564,-0.567 0.564,-1.482 0,-2.048" fill="url(#color-5)"></path><path d="M46.694,62.066l-5.757,-5.757l12.256,-12.256l5.757,5.757z" fill="url(#color-6)"></path><path d="M58.953,49.811l-5.76,-5.757l2.878,-2.879l5.76,5.756z" fill="url(#color-7)"></path><path d="M40.938,56.305l-1.938,7.695l7.695,-1.937z" fill="url(#color-8)"></path><path d="M39.979,60.11l-0.979,3.89l3.89,-0.979z" fill="url(#color-9)"></path></g></g></svg>