<svg xmlns="http://www.w3.org/2000/svg" xmlns:xlink="http://www.w3.org/1999/xlink" viewBox="0,0,256,256" width="100px" height="100px"><defs><radialGradient cx="32" cy="32.5" r="31.751" gradientUnits="userSpaceOnUse" id="color-1"><stop offset="0" stop-color="#eed7a2" stop-opacity="0"></stop><stop offset="0.106" stop-color="#f1dcab" stop-opacity="0"></stop><stop offset="0.437" stop-color="#f8e8c3" stop-opacity="0"></stop><stop offset="0.744" stop-color="#fcefd2" stop-opacity="0"></stop><stop offset="1" stop-color="#fef2d7" stop-opacity="0"></stop></radialGradient><linearGradient x1="32" y1="12" x2="32" y2="53" gradientUnits="userSpaceOnUse" id="color-2"><stop offset="0" stop-color="#40daf2"></stop><stop offset="0.259" stop-color="#3bd3ef"></stop><stop offset="0.624" stop-color="#2ec1e8"></stop><stop offset="1" stop-color="#1ba7dd"></stop></linearGradient><linearGradient x1="40.5" y1="51.701" x2="40.5" y2="26.701" gradientUnits="userSpaceOnUse" id="color-3"><stop offset="0" stop-color="#1ba7dd"></stop><stop offset="1" stop-color="#33c7eb"></stop></linearGradient><linearGradient x1="15.844" y1="37" x2="15.844" y2="14.056" gradientUnits="userSpaceOnUse" id="color-4"><stop offset="0" stop-color="#44c9ea"></stop><stop offset="1" stop-color="#53def3"></stop></linearGradient></defs><g fill="none" fill-rule="nonzero" stroke="none" stroke-width="1" stroke-linecap="butt" stroke-linejoin="miter" stroke-miterlimit="10" stroke-dasharray="" stroke-dashoffset="0" font-family="none" font-weight="none" font-size="none" text-anchor="none" style="mix-blend-mode: normal"><g transform="scale(4,4)"><path d="M58,47h-8.302c-1.895,0 -3.594,-1.419 -3.693,-3.312c-0.106,-2.018 1.5,-3.688 3.495,-3.688h2.311c2.086,0 3.958,-1.514 4.168,-3.59c0.241,-2.382 -1.644,-4.41 -3.979,-4.41h-1c-1.657,0 -3,-1.343 -3,-3v0c0,-1.657 1.343,-3 3,-3h9c2.335,0 4.22,-2.028 3.979,-4.41c-0.21,-2.075 -2.082,-3.59 -4.168,-3.59h-0.704c-0.996,0 -1.92,-0.681 -2.08,-1.664c-0.203,-1.253 0.758,-2.336 1.973,-2.336h0.357c1.308,0 2.499,-0.941 2.63,-2.242c0.15,-1.497 -1.021,-2.758 -2.487,-2.758h-15c-0.828,0 -1.5,-0.672 -1.5,-1.5c0,-0.828 0.672,-1.5 1.5,-1.5h3.857c1.308,0 2.499,-0.941 2.63,-2.242c0.15,-1.497 -1.021,-2.758 -2.487,-2.758h-34.857c-1.308,0 -2.499,0.941 -2.63,2.242c-0.15,1.497 1.021,2.758 2.487,2.758h3.393c0.996,0 1.92,0.681 2.08,1.664c0.203,1.253 -0.758,2.336 -1.973,2.336h-10.811c-2.086,0 -3.958,1.514 -4.168,3.59c-0.241,2.382 1.644,4.41 3.979,4.41h0.302c1.895,0 3.594,1.419 3.693,3.312c0.106,2.018 -1.5,3.688 -3.495,3.688h-2.311c-2.086,0 -3.958,1.514 -4.168,3.59c-0.241,2.382 1.644,4.41 3.979,4.41h9.923l-6.923,5c-2.335,0 -2.897,9 -0.811,9h0.705c0.996,0 1.92,0.681 2.08,1.664c0.202,1.253 -0.759,2.336 -1.974,2.336h-0.357c-1.308,0 -2.499,0.941 -2.63,2.242c-0.15,1.497 1.021,2.758 2.487,2.758h13c0.828,0 1.5,0.672 1.5,1.5c0,0.828 -0.672,1.5 -1.5,1.5h-3.857c-1.308,0 -2.499,0.941 -2.63,2.242c-0.15,1.497 1.021,2.758 2.487,2.758h34.857c1.308,0 2.499,-0.941 2.63,-2.242c0.15,-1.497 -1.021,-2.758 -2.487,-2.758h-3.393c-0.996,0 -1.92,-0.681 -2.08,-1.664c-0.203,-1.253 0.758,-2.336 1.973,-2.336h10.811c2.086,0 3.958,-1.514 4.168,-3.59c0.241,-2.382 -1.644,-4.41 -3.979,-4.41z" fill="url(#color-1)"></path><path d="M51.673,30.059c0.206,-0.82 0.327,-1.675 0.327,-2.559c0,-5.799 -4.701,-10.5 -10.5,-10.5c-1.998,0 -3.86,0.568 -5.45,1.538c-2.364,-3.913 -6.645,-6.538 -11.55,-6.538c-7.456,0 -13.5,6.044 -13.5,13.5c0,1.304 0.195,2.561 0.54,3.754c-5.447,1.136 -9.54,5.962 -9.54,11.746c0,6.627 5.373,12 12,12h36v-0.025c0.167,0.007 0.331,0.025 0.5,0.025c6.351,0 11.5,-5.149 11.5,-11.5c0,-5.955 -4.527,-10.853 -10.327,-11.441z" fill="url(#color-2)"></path><path d="M62,41.5c0,-5.955 -4.527,-10.853 -10.327,-11.441c0.166,-0.663 0.258,-1.354 0.294,-2.059h-11.467c-1.381,0 -2.5,1.119 -2.5,2.5c0,1.381 1.119,2.5 2.5,2.5v0c1.381,0 2.5,1.119 2.5,2.5c0,1.381 -1.119,2.5 -2.5,2.5h-10c-1.381,0 -2.5,1.119 -2.5,2.5c0,1.381 1.119,2.5 2.5,2.5h3c1.381,0 2.5,1.119 2.5,2.5c0,1.381 -1.119,2.5 -2.5,2.5h-12c-1.381,0 -2.5,1.119 -2.5,2.5c0,1.381 1.119,2.5 2.5,2.5h28.5v-0.025c0.167,0.007 0.331,0.025 0.5,0.025c6.351,0 11.5,-5.149 11.5,-11.5z" fill="url(#color-3)"></path><path d="M2.688,37h15.812c1.381,0 2.5,-1.119 2.5,-2.5c0,-1.381 -1.119,-2.5 -2.5,-2.5h-1c-1.381,0 -2.5,-1.119 -2.5,-2.5c0,-1.381 1.119,-2.5 2.5,-2.5h9c1.381,0 2.5,-1.119 2.5,-2.5c0,-1.381 -1.119,-2.5 -2.5,-2.5h-4c-1.381,0 -2.5,-1.119 -2.5,-2.5c0,-1.381 1.119,-2.5 2.5,-2.5h1c1.381,0 2.5,-1.119 2.5,-2.5c0,-1.266 -0.945,-2.302 -2.166,-2.466c-7.144,0.349 -12.834,6.235 -12.834,13.466c0,1.304 0.195,2.561 0.54,3.754c-4.125,0.86 -7.47,3.839 -8.852,7.746z" fill="url(#color-4)"></path></g></g></svg>