<svg xmlns="http://www.w3.org/2000/svg" xmlns:xlink="http://www.w3.org/1999/xlink" viewBox="0,0,256,256" width="100px" height="100px"><defs><linearGradient x1="10.043" y1="10.251" x2="38.306" y2="38.513" gradientUnits="userSpaceOnUse" id="color-1"><stop offset="0" stop-color="#919191"></stop><stop offset="0.443" stop-color="#626262"></stop><stop offset="1" stop-color="#343434"></stop></linearGradient></defs><g fill="none" fill-rule="nonzero" stroke="none" stroke-width="1" stroke-linecap="butt" stroke-linejoin="miter" stroke-miterlimit="10" stroke-dasharray="" stroke-dashoffset="0" font-family="none" font-weight="none" font-size="none" text-anchor="none" style="mix-blend-mode: normal"><g transform="scale(5.33333,5.33333)"><path d="M25.698,4.836l1.275,1.472l1.684,-0.979c1.183,-0.688 2.7,-0.167 3.212,1.103l0.728,1.806l1.91,-0.379c1.342,-0.266 2.608,0.719 2.68,2.086l0.102,1.945l1.93,0.262c1.356,0.184 2.233,1.527 1.857,2.843l-0.535,1.872l1.74,0.874c1.223,0.614 1.616,2.17 0.834,3.292l-1.114,1.597l1.362,1.392c0.957,0.978 0.824,2.577 -0.28,3.384l-1.572,1.149l0.836,1.759c0.588,1.236 -0.057,2.705 -1.364,3.11l-1.86,0.576l0.22,1.935c0.154,1.359 -0.932,2.54 -2.3,2.498l-1.946,-0.059l-0.42,1.901c-0.295,1.336 -1.706,2.1 -2.986,1.616l-1.822,-0.688l-1.015,1.662c-0.713,1.168 -2.296,1.432 -3.349,0.559l-1.505,-1.244l-1.5,1.242c-1.054,0.873 -2.636,0.609 -3.349,-0.559l-1.015,-1.662l-1.822,0.688c-1.28,0.483 -2.691,-0.28 -2.986,-1.616l-0.42,-1.901l-1.946,0.059c-1.368,0.042 -2.454,-1.139 -2.3,-2.498l0.22,-1.935l-1.86,-0.576c-1.307,-0.405 -1.952,-1.874 -1.364,-3.11l0.836,-1.759l-1.572,-1.149c-1.106,-0.805 -1.238,-2.404 -0.281,-3.382l1.362,-1.392l-1.114,-1.597c-0.783,-1.122 -0.389,-2.677 0.834,-3.292l1.74,-0.874l-0.535,-1.872c-0.376,-1.315 0.501,-2.659 1.857,-2.843l1.93,-0.262l0.102,-1.945c0.071,-1.366 1.338,-2.352 2.68,-2.086l1.91,0.379l0.728,-1.806c0.511,-1.269 2.029,-1.79 3.212,-1.103l1.684,0.979l1.275,-1.472c0.892,-1.034 2.496,-1.034 3.392,0z" fill="url(#color-1)"></path><path d="M31.257,13.271h-1.988c-0.725,0 -1.393,0.363 -1.788,0.97l-11.912,18.328c-0.279,0.431 -0.495,2.159 1.173,2.159h1.963c0.726,0 1.394,-0.363 1.786,-0.968l11.938,-18.327c0.28,-0.43 0.562,-2.162 -1.172,-2.162z" fill="#000000" opacity="0.05"></path><path d="M32.01,15.16l-11.938,18.327c-0.301,0.463 -0.813,0.741 -1.367,0.741h-1.963c-0.992,0 -0.979,-1.039 -0.753,-1.387l11.911,-18.327c0.302,-0.464 0.815,-0.743 1.369,-0.743h1.989c1.024,0 0.978,1.042 0.752,1.389z" fill="#000000" opacity="0.07"></path><path d="M30.992,28.898c0,1.713 -0.58,1.713 -0.927,1.713c-0.363,0 -0.913,0 -0.913,-1.605c0,-1.754 0.605,-1.754 0.967,-1.754c0.788,0 0.873,1.151 0.873,1.646zM30.241,22.864c-3.561,0 -5.952,2.523 -5.952,6.278c0,4.046 2.819,5.857 5.613,5.857c3.544,0 5.926,-2.512 5.926,-6.251c0,-3.684 -2.089,-5.884 -5.587,-5.884z" fill="#000000" opacity="0.05"></path><path d="M30.065,31.112c-0.819,0 -1.413,-0.434 -1.413,-2.105c0,-1.795 0.631,-2.254 1.467,-2.254c1.072,0 1.373,1.222 1.373,2.146c0,1.761 -0.611,2.213 -1.427,2.213zM30.241,23.364c-3.259,0 -5.452,2.261 -5.452,5.778c0,3.662 2.496,5.357 5.113,5.357c3.326,0 5.426,-2.34 5.426,-5.751c0,-3.383 -1.859,-5.384 -5.087,-5.384z" fill="#000000" opacity="0.07"></path><path d="M18.992,18.898c0,1.713 -0.58,1.713 -0.927,1.713c-0.363,0 -0.913,0 -0.913,-1.605c0,-1.754 0.605,-1.754 0.967,-1.754c0.788,0 0.873,1.151 0.873,1.646zM18.241,12.864c-3.561,0 -5.952,2.523 -5.952,6.278c0,4.046 2.819,5.857 5.613,5.857c3.544,0 5.926,-2.512 5.926,-6.251c0,-3.684 -2.089,-5.884 -5.587,-5.884z" fill="#000000" opacity="0.05"></path><path d="M18.065,21.112c-0.819,0 -1.413,-0.434 -1.413,-2.105c0,-1.795 0.631,-2.254 1.467,-2.254c1.072,0 1.373,1.222 1.373,2.146c0,1.761 -0.611,2.213 -1.427,2.213zM18.241,13.364c-3.259,0 -5.452,2.261 -5.452,5.778c0,3.662 2.496,5.357 5.113,5.357c3.326,0 5.426,-2.34 5.426,-5.751c0,-3.383 -1.859,-5.384 -5.087,-5.384z" fill="#000000" opacity="0.07"></path><path d="M17.786,24.136c-1.761,0 -4.613,-0.97 -4.613,-4.858c0,-3.365 2.002,-5.278 4.953,-5.278c2.861,0 4.586,1.816 4.586,4.912c0,3.096 -1.821,5.224 -4.926,5.224zM31.591,14.887l-11.937,18.327c-0.209,0.321 -0.566,0.514 -0.948,0.514h-1.963c-0.316,0 -0.506,-0.35 -0.334,-0.615l11.911,-18.327c0.209,-0.321 0.566,-0.515 0.949,-0.515h1.989c0.315,0 0.505,0.351 0.333,0.616zM18.043,16.388c-1.321,0 -1.981,0.918 -1.981,2.754c0,1.737 0.629,2.605 1.886,2.605c1.284,0 1.927,-0.905 1.927,-2.714c0,-1.763 -0.61,-2.645 -1.832,-2.645zM29.902,34c-2.441,0 -4.613,-1.579 -4.613,-4.858c0,-3.279 1.995,-5.278 4.953,-5.278c2.958,0 4.586,1.801 4.586,4.885c0,3.084 -1.819,5.251 -4.926,5.251zM30.119,26.252c-1.312,0 -1.967,0.918 -1.967,2.754c0,1.737 0.638,2.605 1.913,2.605c1.284,0 1.927,-0.905 1.927,-2.714c0,-1.352 -0.517,-2.645 -1.873,-2.645z" fill="#ffffff"></path></g></g></svg>