<svg xmlns="http://www.w3.org/2000/svg" xmlns:xlink="http://www.w3.org/1999/xlink" viewBox="0,0,256,256" width="100px" height="100px"><defs><radialGradient cx="32.5" cy="31.5" r="30.516" gradientUnits="userSpaceOnUse" id="color-1"><stop offset="0" stop-color="#afeeff" stop-opacity="0.05098"></stop><stop offset="0.193" stop-color="#bbf1ff" stop-opacity="0"></stop><stop offset="0.703" stop-color="#d7f8ff" stop-opacity="0.01176"></stop><stop offset="1" stop-color="#e1faff" stop-opacity="0"></stop></radialGradient><linearGradient x1="32" y1="64.025" x2="32" y2="14.025" gradientUnits="userSpaceOnUse" id="color-2"><stop offset="0" stop-color="#155cde"></stop><stop offset="0.278" stop-color="#1f7fe5"></stop><stop offset="0.569" stop-color="#279ceb"></stop><stop offset="0.82" stop-color="#2cafef"></stop><stop offset="1" stop-color="#2eb5f0"></stop></linearGradient></defs><g fill="none" fill-rule="nonzero" stroke="none" stroke-width="1" stroke-linecap="butt" stroke-linejoin="miter" stroke-miterlimit="10" stroke-dasharray="" stroke-dashoffset="0" font-family="none" font-weight="none" font-size="none" text-anchor="none" style="mix-blend-mode: normal"><g transform="scale(4,4)"><path d="M59,20h1.5c2.168,0 3.892,-1.998 3.422,-4.243c-0.342,-1.635 -1.866,-2.757 -3.537,-2.757h-7.385c-1.105,0 -2,-0.895 -2,-2c0,-1.105 0.895,-2 2,-2h3.385c1.67,0 3.195,-1.122 3.537,-2.757c0.47,-2.245 -1.254,-4.243 -3.422,-4.243h-22.494h-1.506h-24c-1.925,0 -3.5,1.575 -3.5,3.5c0,1.925 1.575,3.5 3.5,3.5h1.5c1.105,0 2,0.895 2,2c0,1.105 -0.895,2 -2,2h-5.385c-1.67,0 -3.195,1.122 -3.537,2.757c-0.47,2.245 1.254,4.243 3.422,4.243h13.5v12h-13.385c-1.67,0 -3.195,1.122 -3.537,2.757c-0.47,2.245 1.254,4.243 3.422,4.243h0.5c1.105,0 2,0.895 2,2c0,1.105 -0.895,2 -2,2h-0.5c-2.168,0 -3.892,1.998 -3.422,4.243c0.342,1.635 1.867,2.757 3.537,2.757h5.385c1.105,0 2,0.895 2,2c0,1.105 -0.895,2 -2,2h-1.385c-1.67,0 -3.195,1.122 -3.537,2.757c-0.47,2.245 1.254,4.243 3.422,4.243h22.494h1.506h23c1.925,0 3.5,-1.575 3.5,-3.5c0,-1.925 -1.575,-3.5 -3.5,-3.5h-0.5c-1.105,0 -2,-0.895 -2,-2c0,-1.105 0.895,-2 2,-2h4.385c1.67,0 3.195,-1.122 3.537,-2.757c0.47,-2.245 -1.254,-4.243 -3.422,-4.243h-12.5v-12h12.385c1.67,0 3.195,-1.122 3.537,-2.757c0.47,-2.245 -1.254,-4.243 -3.422,-4.243h-0.5c-1.105,0 -2,-0.895 -2,-2c0,-1.105 0.895,-2 2,-2z" fill="url(#color-1)"></path><path d="M57,31c0,13.805 -11.195,25 -25,25c-13.805,0 -25,-11.195 -25,-25c0,-13.805 11.195,-25 25,-25c13.805,0 25,11.195 25,25z" fill="url(#color-2)"></path><path d="M18.525,27c0.965,0 1.818,-0.568 2.256,-1.428c1.984,-3.895 6.024,-6.572 10.686,-6.572c5.213,0 9.647,3.347 11.3,8h5.207c-1.802,-7.454 -8.5,-13 -16.507,-13c-6.673,0 -12.437,3.852 -15.215,9.45c-0.812,1.636 0.444,3.55 2.269,3.55zM32.075,43c-4.831,0 -8.994,-2.876 -10.895,-7h-5.355c2.136,6.947 8.603,12 16.25,12c6.188,0 11.602,-3.308 14.575,-8.251c0.992,-1.648 -0.249,-3.749 -2.171,-3.749h-0.019c-0.881,0 -1.684,0.472 -2.142,1.224c-2.107,3.458 -5.905,5.776 -10.243,5.776z" fill="#ffffff"></path><path d="M39.44,25h10.12c0.795,0 1.44,0.645 1.44,1.44v0c0,0.36 -0.135,0.707 -0.378,0.973l-4.446,4.85c-0.431,0.47 -1.039,0.737 -1.676,0.737v0c-0.637,0 -1.245,-0.267 -1.676,-0.737l-4.446,-4.85c-0.243,-0.266 -0.378,-0.613 -0.378,-0.973v0c0,-0.795 0.645,-1.44 1.44,-1.44zM24.56,38h-10.12c-0.795,0 -1.44,-0.645 -1.44,-1.44v0c0,-0.36 0.135,-0.707 0.378,-0.973l4.446,-4.85c0.431,-0.47 1.039,-0.737 1.676,-0.737v0c0.637,0 1.245,0.267 1.676,0.737l4.446,4.85c0.243,0.266 0.378,0.613 0.378,0.973v0c0,0.795 -0.645,1.44 -1.44,1.44z" fill="#ffffff"></path></g></g></svg>