<svg xmlns="http://www.w3.org/2000/svg" xmlns:xlink="http://www.w3.org/1999/xlink" viewBox="0 0 48 48" width="48px" height="48px">
  <defs>
    <style>
      .cls-1 {
        fill: url(#Безымянный_градиент_30);
      }

      .cls-2 {
        fill: url(#Безымянный_градиент_29);
      }

      .cls-3 {
        fill: url(#Безымянный_градиент_29-2);
      }

      .cls-4 {
        fill: url(#Безымянный_градиент_29-3);
      }

      .cls-5 {
        fill: url(#Безымянный_градиент_29-4);
      }

      .cls-6 {
        fill: url(#Безымянный_градиент_31);
      }

      .cls-7 {
        fill: #633412;
      }
    </style>
    <linearGradient id="Безымянный_градиент_30" data-name="Безымянный градиент 30" x1="24" y1="30.78261" x2="24" y2="43.56588" gradientUnits="userSpaceOnUse">
      <stop offset="0" stop-color="#737b80"/>
      <stop offset="1" stop-color="#575c61"/>
    </linearGradient>
    <linearGradient id="Безымянный_градиент_29" data-name="Безымянный градиент 29" x1="14.09" y1="2465.09" x2="9.882" y2="2460.88199" gradientTransform="translate(0 -2426)" gradientUnits="userSpaceOnUse">
      <stop offset="0" stop-color="#ccc"/>
      <stop offset="0.396" stop-color="#bbb"/>
      <stop offset="1" stop-color="#999"/>
    </linearGradient>
    <linearGradient id="Безымянный_градиент_29-2" x1="22.09" y1="2465.09" x2="17.882" y2="2460.88199" xlink:href="#Безымянный_градиент_29"/>
    <linearGradient id="Безымянный_градиент_29-3" x1="30.09" y1="2465.09" x2="25.882" y2="2460.88199" xlink:href="#Безымянный_градиент_29"/>
    <linearGradient id="Безымянный_градиент_29-4" x1="38.09" y1="2465.09" x2="33.882" y2="2460.88199" xlink:href="#Безымянный_градиент_29"/>
    <linearGradient id="Безымянный_градиент_31" data-name="Безымянный градиент 31" x1="35.4846" y1="31.98461" x2="11.35481" y2="7.85478" gradientUnits="userSpaceOnUse">
      <stop offset="0" stop-color="#d97218"/>
      <stop offset="1" stop-color="#eba84b"/>
    </linearGradient>
  </defs>
  <path class="cls-1" d="M36.78439,32H8a2,2,0,0,0-2,2v6a2,2,0,0,0,2,2H37a5.00146,5.00146,0,0,0,4.97643-5.492A5.14577,5.14577,0,0,0,36.78439,32Z"/>
  <circle class="cls-2" cx="12.00001" cy="37" r="3"/>
  <circle class="cls-3" cx="20.00001" cy="37" r="3"/>
  <circle class="cls-4" cx="28.00001" cy="37" r="3"/>
  <circle class="cls-5" cx="36.00001" cy="37" r="3"/>
  <rect class="cls-6" x="10.00001" y="8" width="27" height="24" rx="2"/>
  <rect class="cls-7" x="20.00001" y="12" width="7" height="2" rx="1"/>
</svg>