<svg xmlns="http://www.w3.org/2000/svg" xmlns:xlink="http://www.w3.org/1999/xlink" viewBox="0,0,256,256" width="100px" height="100px"><defs><radialGradient cx="32" cy="32" r="30.537" gradientUnits="userSpaceOnUse" id="color-1"><stop offset="0" stop-color="#fcc419" stop-opacity="0.98824"></stop><stop offset="0.219" stop-color="#fcc419"></stop><stop offset="0.644" stop-color="#fcc419" stop-opacity="0.63137"></stop><stop offset="1" stop-color="#fcc419" stop-opacity="0.10196"></stop></radialGradient><linearGradient x1="32.5" y1="61.273" x2="32.5" y2="-0.942" gradientUnits="userSpaceOnUse" id="color-2"><stop offset="0" stop-color="#155cde"></stop><stop offset="0.278" stop-color="#1f7fe5"></stop><stop offset="0.569" stop-color="#279ceb"></stop><stop offset="0.82" stop-color="#2cafef"></stop><stop offset="1" stop-color="#2eb5f0"></stop></linearGradient><linearGradient x1="21.5" y1="22" x2="21.5" y2="7.017" gradientUnits="userSpaceOnUse" id="color-3"><stop offset="0" stop-color="#3fabee"></stop><stop offset="0.368" stop-color="#41b2f0"></stop><stop offset="1" stop-color="#42b8f1"></stop></linearGradient><linearGradient x1="34.999" y1="53.96" x2="34.999" y2="30" gradientUnits="userSpaceOnUse" id="color-4"><stop offset="0" stop-color="#1663cf"></stop><stop offset="0.275" stop-color="#1a73d6"></stop><stop offset="0.697" stop-color="#1f85df"></stop><stop offset="1" stop-color="#218be2"></stop></linearGradient><linearGradient x1="7.5" y1="26.2174" x2="7.5" y2="1.5364" gradientUnits="userSpaceOnUse" id="color-5"><stop offset="0" stop-color="#3cb5ea"></stop><stop offset="1" stop-color="#7ddefb"></stop></linearGradient><linearGradient x1="7.5" y1="29.3804" x2="7.5" y2="-1.4958" gradientUnits="userSpaceOnUse" id="color-6"><stop offset="0" stop-color="#155cde"></stop><stop offset="0.2782" stop-color="#1f7fe5"></stop><stop offset="0.5693" stop-color="#279ceb"></stop><stop offset="0.8201" stop-color="#2cafef"></stop><stop offset="1" stop-color="#2eb5f0"></stop></linearGradient><linearGradient x1="7.5" y1="0" x2="7.5" y2="4" gradientUnits="userSpaceOnUse" id="color-7"><stop offset="0" stop-color="#ff9757"></stop><stop offset="1" stop-color="#ffb65b"></stop></linearGradient><linearGradient x1="7.5" y1="26" x2="7.5" y2="22" gradientUnits="userSpaceOnUse" id="color-8"><stop offset="0" stop-color="#ff9757"></stop><stop offset="1" stop-color="#ffb65b"></stop></linearGradient></defs><g fill="none" fill-rule="nonzero" stroke="none" stroke-width="1" stroke-linecap="butt" stroke-linejoin="miter" stroke-miterlimit="10" stroke-dasharray="" stroke-dashoffset="0" font-family="none" font-weight="none" font-size="none" text-anchor="none" style="mix-blend-mode: normal"><g transform="scale(4,4)"><path d="M64,24.025v0c0,-2.775 -2.25,-5.025 -5.025,-5.025h-4.475c-2.485,0 -4.5,-2.015 -4.5,-4.5v0c0,-2.485 2.015,-4.5 4.5,-4.5h1c1.933,0 3.5,-1.567 3.5,-3.5v0c0,-1.933 -1.567,-3.5 -3.5,-3.5h-47c-1.933,0 -3.5,1.567 -3.5,3.5v0c0,1.933 1.567,3.5 3.5,3.5h1c2.485,0 4.5,2.015 4.5,4.5v0c0,2.485 -2.015,4.5 -4.5,4.5h-5.5c-2.209,0 -4,1.791 -4,4v0c0,2.209 1.791,4 4,4h2.5c1.933,0 3.5,1.567 3.5,3.5v0c0,1.933 -1.567,3.5 -3.499,3.5h-0.002c-3.037,0.001 -5.499,2.463 -5.499,5.5v0c0,3.038 2.462,5.5 5.5,5.5h4c1.933,0 3.5,1.567 3.5,3.5v0c0,1.933 -1.567,3.5 -3.5,3.5v0c-2.485,0 -4.5,2.015 -4.5,4.5v0c0,2.485 2.015,4.5 4.5,4.5h45c2.485,0 4.5,-2.015 4.5,-4.5v0c0,-2.485 -2.015,-4.5 -4.5,-4.5h-2.01c-1.927,0 -3.49,-1.563 -3.49,-3.49v-0.001c0,-1.927 1.563,-3.49 3.49,-3.49h5.5c2.214,0 4.01,-1.795 4.01,-4.01v0c0,-2.214 -1.795,-4.01 -4.01,-4.01h-1.02c-2.193,0.001 -3.97,-1.776 -3.97,-3.969v-0.009c0,-2.193 1.777,-3.97 3.97,-3.97h1.005c2.775,0 5.025,-2.25 5.025,-5.026zM31,38h5v5h-5z" fill="url(#color-1)"></path><path d="M46.862,34.47l-25.607,21.892c-1.674,1.431 -4.255,0.242 -4.255,-1.96v-44.804c0,-2.202 2.581,-3.391 4.255,-1.96l25.607,21.892c1.517,1.297 1.517,3.643 0,4.94z" fill="url(#color-2)"></path><path d="M26,19.5c0,1.38 -1.12,2.5 -2.5,2.5h-6.5v-12.4c0,-2.2 2.58,-3.39 4.25,-1.96l3.48,2.98c-0.11,0.24 -0.27,0.46 -0.46,0.65c-0.45,0.45 -1.08,0.73 -1.77,0.73c-1.38,0 -2.5,1.12 -2.5,2.5c0,1.38 1.12,2.5 2.5,2.5h1c0.69,0 1.32,0.28 1.77,0.73c0.45,0.45 0.73,1.08 0.73,1.77z" fill="url(#color-3)"></path><path d="M46.86,34.47l-12.32,10.53h-2.04c-0.69,0 -1.32,-0.28 -1.77,-0.73c-0.45,-0.45 -0.73,-1.08 -0.73,-1.77c0,-1.38 1.12,-2.5 2.5,-2.5h3c0.69,0 1.32,-0.28 1.77,-0.73c0.45,-0.45 0.73,-1.08 0.73,-1.77c0,-1.38 -1.12,-2.5 -2.5,-2.5h-1c-1.38,0 -2.5,-1.12 -2.5,-2.5c0,-1.38 1.12,-2.5 2.5,-2.5h12.81c1.05,1.34 0.9,3.31 -0.45,4.47zM24.5,49c-0.69,0 -1.32,0.28 -1.77,0.73c-0.45,0.45 -0.73,1.08 -0.73,1.77c0,1.23 0.89,2.25 2.06,2.46l5.8,-4.96zM30,32.5v0c0,-1.381 -1.119,-2.5 -2.5,-2.5v0c-1.381,0 -2.5,1.119 -2.5,2.5v0c0,1.381 1.119,2.5 2.5,2.5v0c1.381,0 2.5,-1.119 2.5,-2.5z" fill="url(#color-4)"></path></g></g><g fill="none" fill-rule="nonzero" stroke="none" stroke-width="1" stroke-linecap="butt" stroke-linejoin="miter" stroke-miterlimit="10" stroke-dasharray="" stroke-dashoffset="0" font-family="none" font-weight="none" font-size="none" text-anchor="none" style="mix-blend-mode: normal"><g transform="translate(202.61538,168) scale(3.38462,3.38462)" id="overlay"><path d="M9.2,12.96c1.84,1.87 4.67,4.95 4.67,7.38c0,1.5 -0.5,2.73 -1.34,3.66h-10.06c-0.84,-0.93 -1.34,-2.16 -1.34,-3.66c0,-2.43 2.83,-5.51 4.67,-7.3c-1.84,-1.87 -4.67,-5.02 -4.67,-7.38c0,-1.5 0.5,-2.73 1.34,-3.66h10.06c0.84,0.93 1.34,2.16 1.34,3.66c0,2.36 -2.83,5.44 -4.67,7.3z" fill="url(#color-5)"></path><path d="M4.176,8.037c0.417,0.613 0.995,1.358 1.793,2.252c0.792,0.888 2.193,0.89 2.992,0.009c0.815,-0.898 1.402,-1.636 1.827,-2.239c0.258,-0.367 -0.044,-0.862 -0.485,-0.784c-0.663,0.116 -1.603,0.225 -2.803,0.225c-1.215,0 -2.164,-0.112 -2.827,-0.23c-0.43,-0.076 -0.743,0.405 -0.497,0.767zM9,15.68c-0.78,-0.87 -2.15,-0.88 -2.95,-0.02c-2.66,2.88 -2.92,4.2 -2.92,4.68c0,2.7 2.26,3.66 4.37,3.66c2.11,0 4.37,-0.96 4.37,-3.66c0,-0.5 -0.19,-1.69 -2.87,-4.66z" fill="url(#color-6)"></path><path d="M13,4h-11c-1.105,0 -2,-0.895 -2,-2v0c0,-1.105 0.895,-2 2,-2h11c1.105,0 2,0.895 2,2v0c0,1.105 -0.895,2 -2,2z" fill="url(#color-7)"></path><path d="M2,22h11c1.105,0 2,0.895 2,2v0c0,1.105 -0.895,2 -2,2h-11c-1.105,0 -2,-0.895 -2,-2v0c0,-1.105 0.895,-2 2,-2z" fill="url(#color-8)"></path></g></g></svg>