<svg xmlns="http://www.w3.org/2000/svg" xmlns:xlink="http://www.w3.org/1999/xlink" viewBox="0,0,256,256" width="100px" height="100px"><defs><linearGradient x1="30" y1="36" x2="42" y2="36" gradientUnits="userSpaceOnUse" id="color-1"><stop offset="0" stop-color="#f64545"></stop><stop offset="1" stop-color="#e30000"></stop></linearGradient><linearGradient x1="29.5" y1="12" x2="42.501" y2="12" gradientUnits="userSpaceOnUse" id="color-2"><stop offset="0" stop-color="#42a3f2"></stop><stop offset="1" stop-color="#42a4eb"></stop></linearGradient></defs><g fill="none" fill-rule="nonzero" stroke="none" stroke-width="1" stroke-linecap="butt" stroke-linejoin="miter" stroke-miterlimit="10" stroke-dasharray="" stroke-dashoffset="0" font-family="none" font-weight="none" font-size="none" text-anchor="none" style="mix-blend-mode: normal"><g transform="scale(5.33333,5.33333)"><circle cx="12" cy="12" r="6" fill="#33c481"></circle><path d="M40,42h-8c-1.105,0 -2,-0.895 -2,-2v-8c0,-1.105 0.895,-2 2,-2h8c1.105,0 2,0.895 2,2v8c0,1.105 -0.895,2 -2,2z" fill="url(#color-1)"></path><path d="M34.998,18.085l-5.083,-5.083c-0.554,-0.554 -0.554,-1.451 0,-2.004l5.083,-5.083c0.554,-0.554 1.451,-0.554 2.004,0l5.083,5.083c0.554,0.554 0.554,1.451 0,2.004l-5.083,5.083c-0.553,0.553 -1.451,0.553 -2.004,0z" fill="url(#color-2)"></path><path d="M12,28c-0.552,0 -1,-0.448 -1,-1v-5c0,-0.552 0.448,-1 1,-1c0.552,0 1,0.448 1,1v5c0,0.552 -0.448,1 -1,1z" fill="#7a848d"></path><path d="M36,27c-0.552,0 -1,-0.448 -1,-1v-5c0,-0.552 0.448,-1 1,-1c0.552,0 1,0.448 1,1v5c0,0.552 -0.448,1 -1,1z" fill="#7a848d"></path><path d="M26,13h-5c-0.552,0 -1,-0.448 -1,-1c0,-0.552 0.448,-1 1,-1h5c0.552,0 1,0.448 1,1c0,0.552 -0.448,1 -1,1z" fill="#7a848d"></path><path d="M18,42h-12c-0.36,0 -0.693,-0.194 -0.87,-0.507c-0.178,-0.313 -0.173,-0.698 0.013,-1.007l6,-10c0.361,-0.603 1.354,-0.603 1.715,0l6,10c0.186,0.309 0.19,0.694 0.013,1.007c-0.178,0.313 -0.511,0.507 -0.871,0.507z" fill="#ed6c47"></path><path d="M13,23h-2c-0.404,0 -0.769,-0.244 -0.924,-0.617c-0.155,-0.374 -0.069,-0.804 0.217,-1.09l1,-1c0.391,-0.391 1.023,-0.391 1.414,0l1,1c0.286,0.286 0.372,0.716 0.217,1.09c-0.155,0.373 -0.52,0.617 -0.924,0.617z" fill="#7a848d"></path><path d="M25,13v-2c0,-0.404 0.244,-0.769 0.617,-0.924c0.374,-0.155 0.804,-0.069 1.09,0.217l1,1c0.391,0.391 0.391,1.023 0,1.414l-1,1c-0.286,0.286 -0.716,0.372 -1.09,0.217c-0.373,-0.155 -0.617,-0.52 -0.617,-0.924z" fill="#7a848d"></path><path d="M35,25h2c0.404,0 0.769,0.244 0.924,0.617c0.155,0.374 0.069,0.804 -0.217,1.09l-1,1c-0.391,0.391 -1.023,0.391 -1.414,0l-1,-1c-0.286,-0.286 -0.372,-0.716 -0.217,-1.09c0.155,-0.373 0.52,-0.617 0.924,-0.617z" fill="#7a848d"></path></g></g></svg>