<svg xmlns="http://www.w3.org/2000/svg"  viewBox="0 0 512 512" width="100px" height="100px"><g data-name="1 Print"><path fill="#4a5159" d="M501,262.72v117A56.29,56.29,0,0,1,444.71,436H429.23v-31.5a18.07,18.07,0,0,0-18.07-18.06H100.84a18.07,18.07,0,0,0-18.07,18.06V436H67.29A56.29,56.29,0,0,1,11,379.67V262.72a56.29,56.29,0,0,1,56.29-56.28H444.71A56.29,56.29,0,0,1,501,262.72Z"/><path fill="#d0dce5" d="M135.12,82.52v125H76.84V131.59a49.07,49.07,0,0,1,49.07-49.07Z"/><path fill="#d0dce5" d="M435.16,131.59v75.92H376.88v-125h9.21A49.07,49.07,0,0,1,435.16,131.59Z"/><path fill="#989898" d="M135.12,386.39V436H82.77v-31.5a18.06,18.06,0,0,1,18.07-18.06Z"/><path fill="#989898" d="M429.23,404.45V436H376.88V386.39h34.28A18.06,18.06,0,0,1,429.23,404.45Z"/><path fill="#f3f3f3" d="M376.88,207.51H135.12V52.83a25.27,25.27,0,0,1,25.27-25.27H351.61a25.27,25.27,0,0,1,25.27,25.27Z"/><path fill="#f3f3f3" d="M376.88,386.38H135.12V466a18.42,18.42,0,0,0,18.42,18.42H358.46A18.42,18.42,0,0,0,376.88,466Z"/><ellipse cx="78.46" cy="305.57" fill="#f26a69" rx="20.51" ry="20.47"/><ellipse cx="145.49" cy="305.57" fill="#90d1bb" rx="20.51" ry="20.47"/><rect width="130.59" height="32.33" x="319.68" y="289.4" fill="#989898" rx="16.16" ry="16.16"/><path fill="#40444a" d="M90.25,389.82a18,18,0,0,0-7.48,14.63V436H67.29A56.29,56.29,0,0,1,11,379.67V262.72a56.6,56.6,0,0,1,1.18-11.51A499.06,499.06,0,0,0,90.25,389.82Z"/><path fill="#878282" d="M131.91,436H82.77V404.45a18,18,0,0,1,7.48-14.63A501.79,501.79,0,0,0,131.91,436Z"/><path fill="#e4e4e8" d="M189.53,484.44h-36A18.42,18.42,0,0,1,135.12,466V439.07A499.53,499.53,0,0,0,189.53,484.44Z"/><path fill="#4a5159" d="M335.87,417.17H176.13a6,6,0,1,1,0-12H335.87a6,6,0,0,1,0,12Z"/><path fill="#4a5159" d="M335.87,453.8H176.13a6,6,0,0,1,0-12H335.87a6,6,0,0,1,0,12Z"/></g></svg>