<svg xmlns="http://www.w3.org/2000/svg" xmlns:xlink="http://www.w3.org/1999/xlink" viewBox="0,0,256,256" width="100px" height="100px"><defs><radialGradient cx="-117.362" cy="41.791" r="180.784" gradientUnits="userSpaceOnUse" id="color-1"><stop offset="0" stop-color="#f5e3a5" stop-opacity="0"></stop><stop offset="0.25" stop-color="#f8e9b6" stop-opacity="0"></stop><stop offset="0.724" stop-color="#fcf2d2" stop-opacity="0"></stop><stop offset="1" stop-color="#fef5dc" stop-opacity="0"></stop></radialGradient><radialGradient cx="-9.546" cy="31.613" r="14.612" gradientUnits="userSpaceOnUse" id="color-2"><stop offset="0" stop-color="#f5e3a5" stop-opacity="0"></stop><stop offset="0.25" stop-color="#f8e9b6" stop-opacity="0"></stop><stop offset="0.724" stop-color="#fcf2d2" stop-opacity="0"></stop><stop offset="1" stop-color="#fef5dc" stop-opacity="0"></stop></radialGradient><linearGradient x1="32" y1="56.969" x2="32" y2="10" gradientUnits="userSpaceOnUse" id="color-3"><stop offset="0" stop-color="#ff634d"></stop><stop offset="0.204" stop-color="#fe6464"></stop><stop offset="0.521" stop-color="#fc6581"></stop><stop offset="0.794" stop-color="#fa6694"></stop><stop offset="0.989" stop-color="#fa669a"></stop><stop offset="1" stop-color="#fa669a"></stop></linearGradient></defs><g fill="none" fill-rule="nonzero" stroke="none" stroke-width="1" stroke-linecap="butt" stroke-linejoin="miter" stroke-miterlimit="10" stroke-dasharray="" stroke-dashoffset="0" font-family="none" font-weight="none" font-size="none" text-anchor="none" style="mix-blend-mode: normal"><g transform="scale(4,4)"><path d="M59.5,33h-4.401c-0.982,0 -1.893,-0.663 -2.066,-1.63c-0.022,-0.126 -0.033,-0.251 -0.033,-0.374c0.002,-1.06 0.829,-1.927 1.873,-1.992c1.515,-0.095 2.906,-1.098 3.101,-2.604c0.017,-0.136 0.026,-0.27 0.026,-0.403c-0.002,-1.655 -1.344,-2.997 -3,-2.997h-5v-4.941c0.626,-0.641 1.492,-1.047 2.456,-1.059c0.001,0 0.002,0 0.003,0c0.004,0 0.007,0 0.01,0c0.001,0 0.003,0 0.004,0c0.003,0 0.007,0 0.01,0c0.001,0 0.002,0 0.004,0c0.005,0 0.009,0 0.013,0h1.802c1.884,0 3.574,-1.402 3.691,-3.278c0.001,-0.011 0.001,-0.022 0.002,-0.033c0.003,-0.064 0.005,-0.126 0.005,-0.189c0,-1.933 -1.567,-3.5 -3.5,-3.5h-7.5h-6l7,7h-34v-3h-2.302c-1.896,0 -3.594,1.419 -3.693,3.311c-0.001,0.024 -0.002,0.047 -0.003,0.071c-0.065,1.987 1.526,3.618 3.498,3.618h2.5v7h-5c-1.381,0 -2.5,1.119 -2.5,2.5c0,1.381 1.119,2.5 2.5,2.5h0.5c1.381,0 2.5,1.119 2.5,2.5c0,1.381 -1.119,2.5 -2.5,2.5h-5.33c-1.625,0 -3.081,1.217 -3.166,2.839c-0.002,0.054 -0.004,0.108 -0.004,0.161c0,1.656 1.343,3 3,3h4.893c0.996,0 1.919,0.681 2.08,1.664c0.018,0.113 0.027,0.224 0.027,0.333c0.001,1.106 -0.894,2.003 -2,2.003h-0.83c-1.624,0 -3.081,1.217 -3.165,2.839c-0.003,0.054 -0.005,0.108 -0.005,0.161c0,1.656 1.343,3 3,3h6v-2l18,-11l18,11h4.83c1.57,0 3.083,-1.271 3.165,-2.839c0.091,-1.73 -1.285,-3.161 -2.995,-3.161h-0.013c-0.006,0 -0.011,0 -0.017,0c-0.777,0 -1.539,-0.254 -2.078,-0.768c-0.17,-0.162 -0.318,-0.35 -0.438,-0.564c-1.288,-2.318 0.355,-4.668 2.546,-4.668h4.302c1.896,0 3.595,-1.42 3.693,-3.313c0.105,-2.018 -1.5,-3.687 -3.495,-3.687z" fill="url(#color-1)"></path><path d="M5,30.5c0,-1.381 -1.119,-2.5 -2.5,-2.5c-1.381,0 -2.5,1.119 -2.5,2.5c0,1.381 1.119,2.5 2.5,2.5c1.381,0 2.5,-1.119 2.5,-2.5z" fill="url(#color-2)"></path><path d="M47.08,56.969v0c-0.697,0 -1.371,-0.249 -1.9,-0.703l-11.064,-9.484c-1.217,-1.043 -3.014,-1.043 -4.231,0l-11.065,9.484c-0.529,0.454 -1.203,0.703 -1.9,0.703v0c-1.613,0 -2.92,-1.307 -2.92,-2.92v-40.049c0,-2.209 1.791,-4 4,-4h28c2.209,0 4,1.791 4,4v40.049c0,1.613 -1.307,2.92 -2.92,2.92z" fill="url(#color-3)"></path></g></g></svg>