<svg xmlns="http://www.w3.org/2000/svg" xmlns:xlink="http://www.w3.org/1999/xlink" viewBox="0,0,256,256" width="100px" height="100px"><defs><radialGradient cx="32.5" cy="31.5" r="30.516" gradientUnits="userSpaceOnUse" id="color-1"><stop offset="0" stop-color="#afeeff"></stop><stop offset="0.193" stop-color="#bbf1ff"></stop><stop offset="0.703" stop-color="#d7f8ff"></stop><stop offset="1" stop-color="#e1faff" stop-opacity="0"></stop></radialGradient><linearGradient x1="32" y1="68.612" x2="32" y2="18.611" gradientUnits="userSpaceOnUse" id="color-2"><stop offset="0" stop-color="#e2e2e2"></stop><stop offset="0.278" stop-color="#5c5c5c"></stop><stop offset="0.569" stop-color="#919191"></stop><stop offset="0.82" stop-color="#b6b6b6"></stop><stop offset="1" stop-color="#c2c2c2"></stop></linearGradient><linearGradient x1="35.5" y1="16" x2="35.5" y2="40" gradientUnits="userSpaceOnUse" id="color-3"><stop offset="0" stop-color="#a4a4a4"></stop><stop offset="0.619" stop-color="#000000"></stop><stop offset="1" stop-color="#6f6f6f"></stop><stop offset="1" stop-color="#6f6f6f"></stop></linearGradient><linearGradient x1="32" y1="27" x2="32" y2="35" gradientUnits="userSpaceOnUse" id="color-4"><stop offset="0" stop-color="#a4a4a4"></stop><stop offset="0.619" stop-color="#000000"></stop><stop offset="1" stop-color="#6f6f6f"></stop><stop offset="1" stop-color="#6f6f6f"></stop></linearGradient></defs><g fill="none" fill-rule="nonzero" stroke="none" stroke-width="1" stroke-linecap="butt" stroke-linejoin="miter" stroke-miterlimit="10" stroke-dasharray="" stroke-dashoffset="0" font-family="none" font-weight="none" font-size="none" text-anchor="none" style="mix-blend-mode: normal"><g transform="scale(4,4)"><path d="M59,20h1.5c2.168,0 3.892,-1.998 3.422,-4.243c-0.342,-1.635 -1.866,-2.757 -3.537,-2.757h-7.385c-1.105,0 -2,-0.895 -2,-2c0,-1.105 0.895,-2 2,-2h3.385c1.67,0 3.195,-1.122 3.537,-2.757c0.47,-2.245 -1.254,-4.243 -3.422,-4.243h-22.494h-1.506h-24c-1.925,0 -3.5,1.575 -3.5,3.5c0,1.925 1.575,3.5 3.5,3.5h1.5c1.105,0 2,0.895 2,2c0,1.105 -0.895,2 -2,2h-5.385c-1.67,0 -3.195,1.122 -3.537,2.757c-0.47,2.245 1.254,4.243 3.422,4.243h13.5v12h-13.385c-1.67,0 -3.195,1.122 -3.537,2.757c-0.47,2.245 1.254,4.243 3.422,4.243h0.5c1.105,0 2,0.895 2,2c0,1.105 -0.895,2 -2,2h-0.5c-2.168,0 -3.892,1.998 -3.422,4.243c0.342,1.635 1.867,2.757 3.537,2.757h5.385c1.105,0 2,0.895 2,2c0,1.105 -0.895,2 -2,2h-1.385c-1.67,0 -3.195,1.122 -3.537,2.757c-0.47,2.245 1.254,4.243 3.422,4.243h22.494h1.506h23c1.925,0 3.5,-1.575 3.5,-3.5c0,-1.925 -1.575,-3.5 -3.5,-3.5h-0.5c-1.105,0 -2,-0.895 -2,-2c0,-1.105 0.895,-2 2,-2h4.385c1.67,0 3.195,-1.122 3.537,-2.757c0.47,-2.245 -1.254,-4.243 -3.422,-4.243h-12.5v-12h12.385c1.67,0 3.195,-1.122 3.537,-2.757c0.47,-2.245 -1.254,-4.243 -3.422,-4.243h-0.5c-1.105,0 -2,-0.895 -2,-2c0,-1.105 0.895,-2 2,-2z" fill="url(#color-1)"></path><path d="M57,31c0,13.805 -11.195,25 -25,25c-13.805,0 -25,-11.195 -25,-25c0,-13.805 11.195,-25 25,-25c13.805,0 25,11.195 25,25z" fill="url(#color-2)"></path><path d="M50,31c0,9.94 -8.06,18 -18,18c-9.94,0 -18,-8.06 -18,-18c0,-9.94 8.06,-18 18,-18c9.94,0 18,8.06 18,18z" fill="#ffffff"></path><path d="M40.414,36.586l-6,-6c-0.126,-0.126 -0.267,-0.224 -0.414,-0.309v-12.277c0,-1.105 -0.895,-2 -2,-2c-1.105,0 -2,0.895 -2,2v14c0,1.105 0.895,2 2,2c0.053,0 0.104,-0.012 0.156,-0.016l5.43,5.43c0.781,0.781 2.047,0.781 2.828,0c0.781,-0.781 0.781,-2.047 0,-2.828z" fill="url(#color-3)"></path><path d="M32,27c-2.20914,0 -4,1.79086 -4,4c0,2.20914 1.79086,4 4,4c2.20914,0 4,-1.79086 4,-4c0,-2.20914 -1.79086,-4 -4,-4z" fill="url(#color-4)"></path></g></g></svg>