<svg xmlns="http://www.w3.org/2000/svg" xmlns:xlink="http://www.w3.org/1999/xlink" viewBox="0,0,256,256" width="100px" height="100px"><defs><radialGradient cx="32.00789" cy="18.01583" r="25.511" gradientUnits="userSpaceOnUse" id="color-1"><stop offset="0" stop-color="#aaedff" stop-opacity="0.01176"></stop><stop offset="0.331" stop-color="#c1f2ff" stop-opacity="0"></stop><stop offset="0.738" stop-color="#d7f7ff" stop-opacity="0"></stop><stop offset="1" stop-color="#dff9ff" stop-opacity="0"></stop></radialGradient><linearGradient x1="31.5" y1="25" x2="31.5" y2="15" gradientUnits="userSpaceOnUse" id="color-2"><stop offset="0" stop-color="#ff5840"></stop><stop offset="0.007" stop-color="#ff5840"></stop><stop offset="0.989" stop-color="#fa528c"></stop><stop offset="1" stop-color="#fa528c"></stop></linearGradient><linearGradient x1="37.5" y1="25" x2="37.5" y2="15" gradientUnits="userSpaceOnUse" id="color-3"><stop offset="0" stop-color="#ff5840"></stop><stop offset="0.007" stop-color="#ff5840"></stop><stop offset="0.989" stop-color="#fa528c"></stop><stop offset="1" stop-color="#fa528c"></stop></linearGradient><linearGradient x1="25.5" y1="25" x2="25.5" y2="15" gradientUnits="userSpaceOnUse" id="color-4"><stop offset="0" stop-color="#ff5840"></stop><stop offset="0.007" stop-color="#ff5840"></stop><stop offset="0.989" stop-color="#fa528c"></stop><stop offset="1" stop-color="#fa528c"></stop></linearGradient><linearGradient x1="31.51092" y1="58.23856" x2="31.51092" y2="52.31073" gradientUnits="userSpaceOnUse" id="color-5"><stop offset="0" stop-color="#49cff0"></stop><stop offset="0.207" stop-color="#54d3f2"></stop><stop offset="0.572" stop-color="#72def7"></stop><stop offset="1" stop-color="#9cedff"></stop></linearGradient><linearGradient x1="27.996" y1="53" x2="27.996" y2="38.232" gradientUnits="userSpaceOnUse" id="color-6"><stop offset="0" stop-color="#f1bb5d"></stop><stop offset="0.426" stop-color="#fbc080"></stop><stop offset="0.672" stop-color="#ffc28f"></stop><stop offset="1" stop-color="#ffc28f"></stop></linearGradient><linearGradient x1="19" y1="53" x2="19" y2="49" gradientUnits="userSpaceOnUse" id="color-7"><stop offset="0" stop-color="#ffac67"></stop><stop offset="1" stop-color="#ffad6b"></stop><stop offset="1" stop-color="#ffad6b"></stop></linearGradient><linearGradient x1="38.002" y1="52.996" x2="38.002" y2="36.84" gradientUnits="userSpaceOnUse" id="color-8"><stop offset="0" stop-color="#ffac67"></stop><stop offset="1" stop-color="#ffad6b"></stop><stop offset="1" stop-color="#ffad6b"></stop></linearGradient><linearGradient x1="31.5" y1="50" x2="31.5" y2="38" gradientUnits="userSpaceOnUse" id="color-9"><stop offset="0" stop-color="#ff5c4c"></stop><stop offset="0.221" stop-color="#fd5d65"></stop><stop offset="0.527" stop-color="#fc5e82"></stop><stop offset="0.793" stop-color="#fa5f93"></stop><stop offset="0.989" stop-color="#fa5f99"></stop><stop offset="1" stop-color="#fa5f99"></stop></linearGradient><linearGradient x1="31.5" y1="18.013" x2="31.5" y2="7.158" gradientUnits="userSpaceOnUse" id="color-10"><stop offset="0" stop-color="#feaa53"></stop><stop offset="0.612" stop-color="#ffcd49"></stop><stop offset="1" stop-color="#ffde44"></stop></linearGradient><linearGradient x1="37.5" y1="18.013" x2="37.5" y2="7.158" gradientUnits="userSpaceOnUse" id="color-11"><stop offset="0" stop-color="#feaa53"></stop><stop offset="0.612" stop-color="#ffcd49"></stop><stop offset="1" stop-color="#ffde44"></stop></linearGradient><linearGradient x1="25.5" y1="18.013" x2="25.5" y2="7.158" gradientUnits="userSpaceOnUse" id="color-12"><stop offset="0" stop-color="#feaa53"></stop><stop offset="0.612" stop-color="#ffcd49"></stop><stop offset="1" stop-color="#ffde44"></stop></linearGradient><linearGradient x1="25.996" y1="39.168" x2="25.996" y2="20.496" gradientUnits="userSpaceOnUse" id="color-13"><stop offset="0" stop-color="#f1bb5d"></stop><stop offset="0.426" stop-color="#fbc080"></stop><stop offset="0.672" stop-color="#ffc28f"></stop><stop offset="1" stop-color="#ffc28f"></stop></linearGradient><linearGradient x1="39.004" y1="38" x2="39.004" y2="21.632" gradientUnits="userSpaceOnUse" id="color-14"><stop offset="0" stop-color="#ffac67"></stop><stop offset="1" stop-color="#ffad6b"></stop><stop offset="1" stop-color="#ffad6b"></stop></linearGradient><linearGradient x1="31.5" y1="34.223" x2="31.5" y2="24.223" gradientUnits="userSpaceOnUse" id="color-15"><stop offset="0" stop-color="#ff5c4c"></stop><stop offset="0.221" stop-color="#fd5d65"></stop><stop offset="0.527" stop-color="#fc5e82"></stop><stop offset="0.793" stop-color="#fa5f93"></stop><stop offset="0.989" stop-color="#fa5f99"></stop></linearGradient><linearGradient x1="31.51092" y1="61.20543" x2="31.51092" y2="55.75728" gradientUnits="userSpaceOnUse" id="color-16"><stop offset="0" stop-color="#49cff0"></stop><stop offset="0.207" stop-color="#54d3f2"></stop><stop offset="0.572" stop-color="#72def7"></stop><stop offset="1" stop-color="#9cedff"></stop></linearGradient></defs><g fill="none" fill-rule="nonzero" stroke="none" stroke-width="1" stroke-linecap="butt" stroke-linejoin="miter" stroke-miterlimit="10" stroke-dasharray="" stroke-dashoffset="0" font-family="none" font-weight="none" font-size="none" text-anchor="none" style="mix-blend-mode: normal"><g transform="scale(4,4)"><path d="M52,2h-15h-5h-17c-2.209,0 -4,1.791 -4,4c0,2.209 1.791,4 4,4h2c1.105,0 2,0.895 2,2v0v0c0,1.104 -0.896,2 -2,2h-10c-2.209,0 -4,1.791 -4,4c0,2.209 1.791,4 4,4h4c1.105,0 2,0.895 2,2v0v0c0,1.104 -0.895,2 -2,2h-2c-2.209,0 -4,1.791 -4,4c0,2.209 1.791,4 4,4h48c2.209,0 4,-1.791 4,-4c0,-2.209 -1.791,-4 -4,-4h-6c-1.105,0 -2,-0.896 -2,-2v0v0c0,-1.105 0.895,-2 2,-2c2.209,0 4,-1.791 4,-4c0,-2.209 -1.791,-4 -4,-4h-5c-1.104,0 -2,-0.896 -2,-2v0v0c0,-1.105 0.896,-2 2,-2h6c2.209,0 4,-1.791 4,-4c0,-2.209 -1.791,-4 -4,-4" fill="url(#color-1)"></path><path d="M33,25h-3v-8.5c0,-0.828 0.672,-1.5 1.5,-1.5v0c0.828,0 1.5,0.672 1.5,1.5z" fill="url(#color-2)"></path><path d="M39,25h-3v-8.5c0,-0.828 0.672,-1.5 1.5,-1.5v0c0.828,0 1.5,0.672 1.5,1.5z" fill="url(#color-3)"></path><path d="M27,25h-3v-8.5c0,-0.828 0.672,-1.5 1.5,-1.5v0c0.828,0 1.5,0.672 1.5,1.5z" fill="url(#color-4)"></path><path d="M55,53h-46.893c-0.996,0 -1.92,0.681 -2.08,1.664c-0.203,1.253 0.758,2.336 1.973,2.336h46.846c1.024,0 1.99,-0.696 2.133,-1.709c0.174,-1.234 -0.779,-2.291 -1.979,-2.291" fill="url(#color-5)"></path><path d="M10,44v9h16.107c-0.996,0 -1.92,-0.681 -2.08,-1.664c-0.204,-1.253 0.758,-2.336 1.973,-2.336h17.893c0.996,0 1.92,-0.681 2.08,-1.664c0.204,-1.253 -0.758,-2.336 -1.973,-2.336h-3c-0.091,0 -0.18,-0.006 -0.268,-0.018c-0.076,0.012 -0.153,0.018 -0.232,0.018c-0.828,0 -1.5,-0.672 -1.5,-1.5c0,-0.828 0,-1.5 0,-2.5h-26c-1.657,0 -3,1.343 -3,3z" fill="url(#color-6)"></path><path d="M19,49c-1.104,0 -2,0.896 -2,2c0,1.104 0.896,2 2,2c1.105,0 2,-0.896 2,-2c0,-1.105 -0.895,-2 -2,-2" fill="url(#color-7)"></path><path d="M37,38v7h5.893c0.996,0 1.92,0.681 2.08,1.664c0.204,1.253 -0.758,2.336 -1.973,2.336h-17.893c-0.996,0 -1.92,0.681 -2.08,1.664c-0.204,1.253 0.758,2.336 1.973,2.336h28v-4v-6c0,-2.761 -2.239,-5 -5,-5z" fill="url(#color-8)"></path><path d="M52.899,42c-0.444,-2.184 -2.31,-3.851 -4.589,-3.99c0,0 0,0 -0.001,0c-0.004,0 -0.008,0 -0.012,-0.001c-0.001,0 -0.002,0 -0.003,0c-0.004,0 -0.007,0 -0.011,-0.001c-0.001,0 -0.003,0 -0.004,0c-0.003,0 -0.007,0 -0.01,-0.001c-0.002,0 -0.003,0 -0.005,0c-0.003,0 -0.007,0 -0.01,0c-0.002,0 -0.003,0 -0.005,0c-0.004,0 -0.007,0 -0.01,0h-0.001c-0.008,0 -0.016,-0.001 -0.023,-0.001c-0.001,0 -0.003,0 -0.004,0c-0.003,0 -0.006,0 -0.009,0c-0.002,0 -0.004,0 -0.006,0c-0.003,0 -0.005,0 -0.008,0c-0.002,0 -0.005,0 -0.007,0c-0.003,0 -0.005,0 -0.008,0c-0.002,0 -0.005,0 -0.007,0c-0.003,0 -0.005,0 -0.008,0c-0.003,0 -0.005,0 -0.008,0c-0.002,0 -0.005,0 -0.007,0c-0.003,0 -0.006,0 -0.009,0c-0.002,0 -0.003,0 -0.005,0c-0.004,0 -0.008,0 -0.012,0c-0.003,0 -0.005,0 -0.008,0c-0.004,0 -0.007,0 -0.011,0c-0.002,0 -0.003,0 -0.005,0c-0.004,-0.005 -33.093,-0.006 -33.093,-0.006c-2.761,0 -5,2.239 -5,5v4.893c0,0.996 0.681,1.92 1.664,2.08c1.253,0.203 2.336,-0.758 2.336,-1.973v-3.5c0,-0.828 0.672,-1.5 1.5,-1.5c0.828,0 1.5,0.672 1.5,1.5c0,0.828 0.672,1.5 1.5,1.5c0.828,0 1.5,-0.672 1.5,-1.5v-2c0,-0.828 0.672,-1.5 1.5,-1.5c0.828,0 1.5,0.672 1.5,1.5v4c0,0.828 0.672,1.5 1.5,1.5v0c0.828,0 1.5,-0.672 1.5,-1.5v-2c0,-0.828 0.672,-1.5 1.5,-1.5c0.828,0 1.5,0.672 1.5,1.5v1.393c0,0.996 0.681,1.92 1.664,2.08c1.253,0.203 2.336,-0.758 2.336,-1.973v-1.5c0,-0.828 0.672,-1.5 1.5,-1.5c0.828,0 1.5,0.672 1.5,1.5c0,0.828 0.672,1.5 1.5,1.5c0.079,0 0.156,-0.006 0.232,-0.018c0.718,-0.111 1.268,-0.733 1.268,-1.482v-1c0,-0.828 0.672,-1.5 1.5,-1.5v0c0.828,0 1.5,0.672 1.5,1.5v3.393c0,0.996 0.681,1.92 1.664,2.08c1.253,0.204 2.336,-0.758 2.336,-1.973v-3.5c0,-0.828 0.672,-1.5 1.5,-1.5c0.828,0 1.5,0.672 1.5,1.5v2.393c0,0.996 0.681,1.92 1.664,2.08c1.253,0.203 2.336,-0.758 2.336,-1.973v-3c0,-0.343 -0.035,-0.677 -0.101,-1z" fill="url(#color-9)"></path><path d="M31.5,14v0c0.825,0 1.5,-0.675 1.5,-1.5v-2c0,-0.825 -0.675,-1.5 -1.5,-1.5v0c-0.825,0 -1.5,0.675 -1.5,1.5v2c0,0.825 0.675,1.5 1.5,1.5z" fill="url(#color-10)"></path><path d="M37.5,14v0c0.825,0 1.5,-0.675 1.5,-1.5v-2c0,-0.825 -0.675,-1.5 -1.5,-1.5v0c-0.825,0 -1.5,0.675 -1.5,1.5v2c0,0.825 0.675,1.5 1.5,1.5z" fill="url(#color-11)"></path><path d="M25.5,14v0c0.825,0 1.5,-0.675 1.5,-1.5v-2c0,-0.825 -0.675,-1.5 -1.5,-1.5v0c-0.825,0 -1.5,0.675 -1.5,1.5v2c0,0.825 0.675,1.5 1.5,1.5z" fill="url(#color-12)"></path><g><path d="M27.5,24h-7.586c-2.714,0 -4.914,2.2 -4.914,4.914v5.086v4h16h1h5c-1.091,0 -1.978,-0.874 -2,-1.959c-0.022,-1.109 -0.812,-2.041 -1.92,-2.041l-0.08,-3c-0.811,0 -2.509,0.517 -2.823,-0.177c-0.694,-0.314 -1.177,-1.012 -1.177,-1.823v-3.5c0,-0.829 -0.672,-1.5 -1.5,-1.5" fill="url(#color-13)"></path><path d="M33,23v5.914c0,0.959 -0.637,1.849 -1.576,2.042c-0.448,0.092 -1.424,-0.956 -1.424,-0.956v2c0,1.105 0.895,2 2,2h1.08c1.108,0 1.898,0.932 1.92,2.041c0.022,1.086 0.909,1.96 2,1.96h11v-4v-3.767c0,-3.996 -3.238,-7.234 -7.232,-7.234z" fill="url(#color-14)"></path></g><path d="M43,23h-23c-2.761,0 -5,2.239 -5,5v2.893c0,0.996 0.681,1.92 1.664,2.08c1.253,0.204 2.336,-0.758 2.336,-1.973v-1.5c0,-0.829 0.672,-1.5 1.5,-1.5c0.828,0 1.5,0.671 1.5,1.499v0.501c0,1.105 0.895,2 2,2v0c1.105,0 2,-0.895 2,-2v-0.499c0,0 0,0 0,-0.001v-2c0,-0.829 0.672,-1.5 1.5,-1.5c0.828,0 1.5,0.671 1.5,1.5v3.5c0,0.811 0.483,1.509 1.177,1.823c0.37,0.167 0.799,0.225 1.247,0.133c0.939,-0.193 1.576,-1.083 1.576,-2.043v-1.413c0,-0.829 0.672,-1.5 1.5,-1.5c0.828,0 1.5,0.671 1.5,1.5v0.393c0,0.996 0.681,1.919 1.664,2.079c1.253,0.205 2.336,-0.757 2.336,-1.971v-1.001c0,-1.105 0.895,-2 2,-2v0c1.105,0 2,0.895 2,2v1.893c0,0.996 0.681,1.92 1.664,2.08c1.253,0.203 2.336,-0.758 2.336,-1.973v-3c0,-2.761 -2.239,-5 -5,-5z" fill="url(#color-15)"></path><path d="M58,57h-2h-50h-1c-1.105,0 -2,0.895 -2,2c0,1.105 0.896,2 2,2h53c1.105,0 2,-0.895 2,-2c0,-1.105 -0.896,-2 -2,-2" fill="url(#color-16)"></path></g></g></svg>