<svg xmlns="http://www.w3.org/2000/svg" xmlns:xlink="http://www.w3.org/1999/xlink" viewBox="0,0,256,256" width="100px" height="100px"><defs><radialGradient cx="32" cy="32" r="33.002" gradientUnits="userSpaceOnUse" id="color-1"><stop offset="0" stop-color="#efdcb1" stop-opacity="0"></stop><stop offset="0" stop-color="#f2e0bb" stop-opacity="0"></stop><stop offset="0.011" stop-color="#f2e0bc" stop-opacity="0.01961"></stop><stop offset="0.362" stop-color="#f9edd2" stop-opacity="0"></stop><stop offset="0.699" stop-color="#fef4df" stop-opacity="0"></stop><stop offset="1" stop-color="#fff7e4" stop-opacity="0"></stop></radialGradient><linearGradient x1="32.972" y1="58.012" x2="32.972" y2="6.012" gradientUnits="userSpaceOnUse" id="color-2"><stop offset="0" stop-color="#67ccf0"></stop><stop offset="0.232" stop-color="#70d1f2"></stop><stop offset="0.644" stop-color="#89ddf8"></stop><stop offset="1" stop-color="#a1e9fd"></stop></linearGradient><linearGradient x1="37.935" y1="21.459" x2="45.148" y2="13.864" gradientUnits="userSpaceOnUse" id="color-3"><stop offset="0" stop-color="#c6effd"></stop><stop offset="0.375" stop-color="#b7ecfd"></stop><stop offset="1" stop-color="#95e6fd"></stop></linearGradient><linearGradient x1="45.5" y1="24.083" x2="45.5" y2="18.083" gradientUnits="userSpaceOnUse" id="color-4"><stop offset="0" stop-color="#42c6ee"></stop><stop offset="0.48" stop-color="#3bc3ed"></stop><stop offset="1" stop-color="#ea2e2e"></stop></linearGradient><linearGradient x1="32.5" y1="62.702" x2="32.5" y2="48.877" gradientUnits="userSpaceOnUse" id="color-5"><stop offset="0" stop-color="#42c6ee"></stop><stop offset="0.48" stop-color="#3bc3ed"></stop><stop offset="1" stop-color="#ea2e2e"></stop></linearGradient></defs><g fill="none" fill-rule="nonzero" stroke="none" stroke-width="1" stroke-linecap="butt" stroke-linejoin="miter" stroke-miterlimit="10" stroke-dasharray="" stroke-dashoffset="0" font-family="none" font-weight="none" font-size="none" text-anchor="none" style="mix-blend-mode: normal"><g transform="scale(4,4)"><path d="M55.454,45.668c0.5,0.898 1.504,1.337 2.532,1.332c1.75,-0.008 3.153,1.483 3.002,3.262c-0.133,1.576 -1.554,2.738 -3.136,2.738h-9.852v1h-22h-8h-11c-1.71,0 -3.086,-1.431 -2.996,-3.161c0.085,-1.623 1.541,-2.839 3.166,-2.839h0.83c1.215,0 2.176,-1.083 1.973,-2.336c-0.16,-0.983 -1.084,-1.664 -2.08,-1.664h-4.893c-1.71,0 -3.086,-1.431 -2.996,-3.161c0.085,-1.623 1.541,-2.839 3.166,-2.839h6.33c1.381,0 7.5,-3.619 7.5,-5l2,-2c-2,0 -8.119,0 -9.5,0v0c-1.381,0 -2.5,-1.119 -2.5,-2.5v0c0,-1.381 1.119,-2.5 2.5,-2.5h8.5v-5h-7.5c-1.995,0 -3.601,-1.67 -3.495,-3.688c0.099,-1.893 1.798,-3.312 3.693,-3.312h7.302v-4h24h6h8.5c1.995,0 3.601,1.67 3.495,3.688c-0.099,1.893 -1.798,3.312 -3.693,3.312h-2.802c-1.995,0 -3.601,1.67 -3.495,3.688c0.099,1.893 1.798,3.312 3.693,3.312h2.302c1.777,0 3.194,1.546 2.978,3.366c-0.179,1.509 -1.546,2.572 -3.064,2.635c-1.197,0.05 -2.122,1.153 -1.874,2.406c0.188,0.948 1.083,1.593 2.049,1.593h4.411c1.995,0 3.601,1.67 3.495,3.688c-0.099,1.893 -1.798,3.312 -3.693,3.312h-2.302c-2.192,0 -3.834,2.35 -2.546,4.668zM2.5,31v0c1.381,0 2.5,-1.119 2.5,-2.5v0c0,-1.381 -1.119,-2.5 -2.5,-2.5v0c-1.381,0 -2.5,1.119 -2.5,2.5v0c0,1.381 1.119,2.5 2.5,2.5zM2.5,31v0c1.381,0 2.5,-1.119 2.5,-2.5v0c0,-1.381 -1.119,-2.5 -2.5,-2.5v0c-1.381,0 -2.5,1.119 -2.5,2.5v0c0,1.381 1.119,2.5 2.5,2.5z" fill="url(#color-1)"></path><path d="M36.757,6h-20.757c-1.657,0 -3,1.343 -3,3v46c0,1.657 1.343,3 3,3h34c1.657,0 3,-1.343 3,-3v-32.757c0,-0.796 -0.317,-1.56 -0.879,-2.121l-13.243,-13.243c-0.562,-0.562 -1.325,-0.879 -2.121,-0.879" fill="url(#color-2)"></path><path d="M52.121,20.122l-13.243,-13.243c-0.255,-0.255 -0.556,-0.452 -0.878,-0.6v11.721c0,1.657 1.343,3 3,3h11.721c-0.147,-0.322 -0.344,-0.623 -0.6,-0.878z" fill="url(#color-3)"></path><path d="M41,21c-1.657,0 -3,-1.343 -3,-3v3c0,1.657 1.343,3 3,3h12v-1.757c0,-0.434 -0.102,-0.855 -0.279,-1.243z" fill="url(#color-4)"></path><path d="M13,29h39c2.761,0 5,2.239 5,5v12c0,2.761 -2.239,5 -5,5h-39c-2.761,0 -5,-2.239 -5,-5v-12c0,-2.761 2.239,-5 5,-5z" fill="url(#color-5)"></path><path d="M19,36.078c0,-0.728 0.398,-1.125 1.128,-1.125h2.972c2.295,0 3.9,1.244 3.9,3.453c0,2.143 -1.539,3.479 -3.914,3.479h-1.539v1.892c0,0.701 -0.57,1.27 -1.274,1.27c-0.703,0 -1.274,-0.568 -1.274,-1.27l0.001,-7.699zM22.728,39.94c1.022,0 1.765,-0.396 1.765,-1.495c0,-1.098 -0.73,-1.548 -1.751,-1.548h-1.194v3.043z" fill="#ffffff"></path><path d="M29,36.078c0,-0.728 0.404,-1.125 1.143,-1.125h2.341c2.973,0 5.516,1.323 5.516,4.975c0,3.334 -2.126,5.014 -5.516,5.014h-2.341c-0.74,0 -1.143,-0.396 -1.143,-1.124c0,0 0,-7.74 0,-7.74zM32.484,42.931c1.668,0 2.839,-0.661 2.839,-3.043c0,-2.156 -1.076,-2.937 -2.839,-2.937h-0.928v5.979l0.928,0.001z" fill="#ffffff"></path><path d="M40,36.078c0,-0.728 0.412,-1.125 1.167,-1.125h4.776c0.576,0 1.057,0.463 1.057,1.019c0,0.569 -0.48,1.032 -1.057,1.032h-3.308v2.302h2.676c0.563,0 1.029,0.45 1.029,0.992c0,0.556 -0.467,1.006 -1.029,1.006h-2.676v2.474c0,0.701 -0.59,1.27 -1.318,1.27c-0.728,0 -1.317,-0.569 -1.317,-1.271z" fill="#ffffff"></path></g></g></svg>