<svg xmlns="http://www.w3.org/2000/svg"  viewBox="0 0 64 64" width="100px" height="100px"><radialGradient id="d_aAAhU_JYPL_~pEDycW9a" cx="32" cy="32" r="32" gradientTransform="matrix(1 0 0 -1 0 64)" gradientUnits="userSpaceOnUse" spreadMethod="reflect"><stop offset="0" stop-color="#f4e9c3"/><stop offset=".219" stop-color="#f8eecd"/><stop offset=".644" stop-color="#fdf4dc"/><stop offset="1" stop-color="#fff6e1"/></radialGradient><path fill="url(#d_aAAhU_JYPL_~pEDycW9a)" d="M59.5,57c1.933,0,3.5,1.567,3.5,3.5S61.433,64,59.5,64S56,62.433,56,60.5S57.567,57,59.5,57z M8,4c0-2.209-1.791-4-4-4S0,1.791,0,4c0,2.209,1.791,4,4,4S8,6.209,8,4z M15,51L15,51c0,1.657-1.343,3-3,3H6 c-2.919,0-5.275,2.535-4.974,5.513C1.288,62.107,3.628,64,6.236,64H12.5h11.857H49.5c1.995,0,3.601-1.67,3.495-3.688 C52.896,58.419,51.197,57,49.302,57H49c-1.215,0-2.176-1.083-1.973-2.336c0.16-0.983,1.083-1.664,2.08-1.664H54 c2.339,0,4.209-2.007,3.981-4.393C57.783,46.527,55.917,45,53.828,45L52.5,45c-1.466,0-2.637-1.261-2.487-2.758 c0.13-1.301,1.322-2.242,2.63-2.242L60,40c2.339,0,4.209-2.007,3.981-4.393C63.783,33.527,61.917,32,59.828,32L58.5,32 c-1.995,0-3.601-1.67-3.495-3.688C55.104,26.419,56.803,25,58.698,25l0.802,0c2.631,0,4.735-2.258,4.479-4.942 C63.756,17.718,61.657,16,59.307,16L49,16c-2.339,0-4.209-2.007-3.981-4.393C45.217,9.527,47.083,8,49.172,8L51,8 c2.339,0,4.209-2.007,3.981-4.393C54.783,1.527,52.917,0,50.828,0L15,0c-2.339,0-4.209,2.007-3.981,4.393 C11.217,6.473,13.083,8,15.172,8L17,8c1.71,0,3.086,1.431,2.996,3.161C19.911,12.784,18.455,14,16.83,14L5.5,14 c-1.995,0-3.601,1.67-3.495,3.688C2.104,19.581,3.803,21,5.698,21L7,21c1.71,0,3.086,1.431,2.996,3.161 C9.911,25.784,8.455,27,6.83,27L4.5,27C2.015,27,0,29.015,0,31.5l0,0C0,33.985,2.015,36,4.5,36h0c1.596,0,2.855,1.516,2.409,3.179 C6.614,40.279,5.551,41,4.412,41L3.5,41c-2.168,0-3.892,1.998-3.422,4.243C0.42,46.878,1.944,48,3.614,48L12,48 C13.657,48,15,49.343,15,51z"/><linearGradient id="d_aAAhU_JYPL_~pEDycW9b" x1="32" x2="32" y1="8" y2="56" gradientUnits="userSpaceOnUse" spreadMethod="reflect"><stop offset="0" stop-color="#c8c8c8"/><stop offset=".439" stop-color="#b9b9b9"/><stop offset="1" stop-color="#a9a9a9"/><stop offset="1" stop-color="#a9a9a9"/></linearGradient><path fill="url(#d_aAAhU_JYPL_~pEDycW9b)" d="M25,52.908V47v-5.929c0-1.326-0.527-2.598-1.464-3.536l-2.917-2.917 c3.356-5.801,8.199-10.644,14-14l2.917,2.917C38.473,24.473,39.745,25,41.071,25H47h5.908C54.616,25,56,23.616,56,21.908V11.092 C56,9.384,54.616,8,52.908,8h-1.985c-3.522,0-7.044,0.419-10.422,1.417c-14.916,4.41-26.674,16.168-31.084,31.084 C8.419,43.879,8,47.401,8,50.923v1.985C8,54.616,9.384,56,11.092,56h10.815C23.616,56,25,54.616,25,52.908z"/></svg>