<svg xmlns="http://www.w3.org/2000/svg" xmlns:xlink="http://www.w3.org/1999/xlink" viewBox="0,0,256,256" width="100px" height="100px"><defs><radialGradient cx="32" cy="32.5" r="31.259" gradientUnits="userSpaceOnUse" id="color-1"><stop offset="0" stop-color="#eed7a2" stop-opacity="0"></stop><stop offset="0.106" stop-color="#f1dcab" stop-opacity="0"></stop><stop offset="0.437" stop-color="#f8e8c3" stop-opacity="0"></stop><stop offset="0.744" stop-color="#fcefd2" stop-opacity="0"></stop><stop offset="1" stop-color="#fef2d7" stop-opacity="0.03137"></stop></radialGradient><linearGradient x1="32" y1="65.389" x2="32" y2="16.896" gradientUnits="userSpaceOnUse" id="color-2"><stop offset="0" stop-color="#3cb5ea"></stop><stop offset="1" stop-color="#7ddefb"></stop></linearGradient><linearGradient x1="32" y1="15.777" x2="32" y2="9.827" gradientUnits="userSpaceOnUse" id="color-3"><stop offset="0" stop-color="#2875e3"></stop><stop offset="0.014" stop-color="#2876e3"></stop><stop offset="0.588" stop-color="#2e88e7"></stop><stop offset="1" stop-color="#308ee8"></stop></linearGradient><linearGradient x1="20.5" y1="58.125" x2="20.5" y2="14.53" gradientUnits="userSpaceOnUse" id="color-4"><stop offset="0" stop-color="#0d47a1"></stop><stop offset="0.365" stop-color="#135fba"></stop><stop offset="0.734" stop-color="#1770cc"></stop><stop offset="1" stop-color="#1976d2"></stop></linearGradient></defs><g fill="none" fill-rule="nonzero" stroke="none" stroke-width="1" stroke-linecap="butt" stroke-linejoin="miter" stroke-miterlimit="10" stroke-dasharray="" stroke-dashoffset="0" font-family="none" font-weight="none" font-size="none" text-anchor="none" style="mix-blend-mode: normal"><g transform="scale(4,4)"><path d="M5,10c1.105,0 2,0.895 2,2c0,1.105 -0.895,2 -2,2h-1.5c-1.925,0 -3.5,1.575 -3.5,3.5c0,1.925 1.575,3.5 3.5,3.5h10.5c1.381,0 2.5,1.119 2.5,2.5c0,1.381 -1.119,2.5 -2.5,2.5h-8c-1.65,0 -3,1.35 -3,3c0,1.65 1.35,3 3,3h16v6h-18c-2.335,0 -4.22,2.028 -3.979,4.41c0.209,2.076 2.082,3.59 4.168,3.59h4.811c1.105,0 2,0.895 2,2c0,1.105 -0.895,2 -2,2h-0.357c-1.308,0 -2.499,0.941 -2.63,2.242c-0.15,1.497 1.021,2.758 2.487,2.758h11c0.828,0 1.5,0.672 1.5,1.5c0,0.828 -0.672,1.5 -1.5,1.5h-3.857c-1.308,0 -2.499,0.941 -2.63,2.242c-0.15,1.497 1.021,2.758 2.487,2.758h32.857c1.308,0 2.499,-0.941 2.63,-2.242c0.15,-1.497 -1.021,-2.758 -2.487,-2.758h-3.5c-1.105,0 -2,-0.895 -2,-2c0,-1.105 0.895,-2 2,-2h12.811c2.086,0 3.958,-1.514 4.168,-3.59c0.241,-2.382 -1.644,-4.41 -3.979,-4.41h-2.5c-1.933,0 -3.5,-1.567 -3.5,-3.5c0,-1.933 1.567,-3.5 3.5,-3.5h3.311c2.086,0 3.958,-1.514 4.168,-3.59c0.241,-2.382 -1.644,-4.41 -3.979,-4.41h-17v-11h16c1.65,0 3,-1.35 3,-3c0,-1.65 -1.35,-3 -3,-3v0c-1.105,0 -2,-0.895 -2,-2c0,-1.105 0.895,-2 2,-2h1.811c2.086,0 3.958,-1.514 4.168,-3.59c0.241,-2.382 -1.644,-4.41 -3.979,-4.41h-54.811c-2.086,0 -3.958,1.514 -4.168,3.59c-0.241,2.382 1.644,4.41 3.979,4.41z" fill="url(#color-1)"></path><path d="M50,9h-36c-2.209,0 -4,1.791 -4,4v33c0,2.209 1.791,4 4,4h12l4.42,6.188c0.364,0.509 0.952,0.812 1.578,0.812h0.003c0.627,0 1.214,-0.303 1.579,-0.812l4.42,-6.188h12c2.209,0 4,-1.791 4,-4v-33c0,-2.209 -1.791,-4 -4,-4z" fill="url(#color-2)"></path><path d="M10,13v4h44v-4c0,-2.209 -1.791,-4 -4,-4h-36c-2.209,0 -4,1.791 -4,4z" fill="url(#color-3)"></path><path d="M32,26h-14.015c-1.765,0 -2.648,2.133 -1.401,3.381l4.517,4.517l-13.066,13.066c-1.381,1.381 -1.381,3.619 0,5v0c1.381,1.381 3.619,1.381 5,0l13.066,-13.066l4.517,4.517c1.249,1.249 3.382,0.365 3.382,-1.4v-14.015c0,-1.105 -0.895,-2 -2,-2z" fill="url(#color-4)"></path></g></g></svg>