<svg xmlns="http://www.w3.org/2000/svg" xmlns:xlink="http://www.w3.org/1999/xlink" viewBox="0,0,256,256" width="100px" height="100px"><defs><radialGradient cx="31.5" cy="32.5" r="31.004" gradientUnits="userSpaceOnUse" id="color-1"><stop offset="0" stop-color="#f4e09d" stop-opacity="0"></stop><stop offset="0.226" stop-color="#f8e8b5" stop-opacity="0"></stop><stop offset="0.513" stop-color="#fcf0cd" stop-opacity="0.01176"></stop><stop offset="0.778" stop-color="#fef4dc" stop-opacity="0"></stop><stop offset="1" stop-color="#fff6e1" stop-opacity="0"></stop></radialGradient><linearGradient x1="32" y1="6" x2="32" y2="57" gradientUnits="userSpaceOnUse" id="color-2"><stop offset="0" stop-color="#42d778"></stop><stop offset="0.428" stop-color="#3dca76"></stop><stop offset="1" stop-color="#34b171"></stop></linearGradient></defs><g fill="none" fill-rule="nonzero" stroke="none" stroke-width="1" stroke-linecap="butt" stroke-linejoin="miter" stroke-miterlimit="10" stroke-dasharray="" stroke-dashoffset="0" font-family="none" font-weight="none" font-size="none" text-anchor="none" style="mix-blend-mode: normal"><g transform="scale(4,4)"><path d="M53,49c0,2.2 -1.8,4 -4,4h-3.5c-1.375,0 -2.5,1.125 -2.5,2.5c0,1.375 1.125,2.5 2.5,2.5h3c1.375,0 2.5,1.125 2.5,2.5c0,1.375 -1.125,2.5 -2.5,2.5h-33c-1.375,0 -2.5,-1.125 -2.5,-2.5c0,-1.375 1.125,-2.5 2.5,-2.5h3c1.375,0 2.5,-1.125 2.5,-2.5c0,-1.375 -1.125,-2.5 -2.5,-2.5h-7.5c-2.2,0 -4,-1.8 -4,-4c0,-2.2 1.8,-4 4,-4h3.5c1.375,0 2.5,-1.125 2.5,-2.5c0,-1.375 -1.125,-2.5 -2.5,-2.5h-9.5c-2.2,0 -4,-1.8 -4,-4c0,-2.2 1.8,-4 4,-4h2.5c1.375,0 2.5,-1.125 2.5,-2.5c0,-1.375 -1.125,-2.5 -2.5,-2.5h-3c-2.475,0 -4.5,-2.025 -4.5,-4.5c0,-2.475 2.025,-4.5 4.5,-4.5h7c1.375,0 2.5,-1.125 2.5,-2.5c0,-1.375 -1.125,-2.5 -2.5,-2.5h-4c-3.025,0 -5.5,-2.475 -5.5,-5.5c0,-3.025 2.475,-5.5 5.5,-5.5h50c3.025,0 5.5,2.475 5.5,5.5c0,3.025 -2.475,5.5 -5.5,5.5h-6c-1.375,0 -2.5,1.125 -2.5,2.5c0,1.375 1.125,2.5 2.5,2.5h3c2.475,0 4.5,2.025 4.5,4.5c0,2.475 -2.025,4.5 -4.5,4.5c-1.375,0 -2.5,1.125 -2.5,2.5c0,1.375 1.125,2.5 2.5,2.5h3.5c2.2,0 4,1.8 4,4c0,2.2 -1.8,4 -4,4h-9.5c-1.375,0 -2.5,1.125 -2.5,2.5c0,1.375 1.125,2.5 2.5,2.5h0.5c2.2,0 4,1.8 4,4zM59,45c-2.2,0 -4,1.8 -4,4c0,2.2 1.8,4 4,4c2.2,0 4,-1.8 4,-4c0,-2.2 -1.8,-4 -4,-4z" fill="url(#color-1)"></path><path d="M10,8.5c0,-1.375 1.125,-2.5 2.5,-2.5h39c1.375,0 2.5,1.125 2.5,2.5c0,1.375 -1.125,2.5 -2.5,2.5h-39c-1.375,0 -2.5,-1.125 -2.5,-2.5zM35.5,44h-7c-1.375,0 -2.5,1.125 -2.5,2.5c0,1.375 1.125,2.5 2.5,2.5h7c1.375,0 2.5,-1.125 2.5,-2.5c0,-1.375 -1.125,-2.5 -2.5,-2.5zM35.5,52h-7c-1.375,0 -2.5,1.125 -2.5,2.5c0,1.375 1.125,2.5 2.5,2.5h7c1.375,0 2.5,-1.125 2.5,-2.5c0,-1.375 -1.125,-2.5 -2.5,-2.5zM34.417,15.034c-1.329,-1.347 -3.505,-1.347 -4.834,0l-10.917,11.06c-1.466,1.484 -0.353,3.906 1.795,3.906h5.539v8.5c0,1.375 1.125,2.5 2.5,2.5h7c1.375,0 2.5,-1.125 2.5,-2.5v-8.5h5.539c2.147,0 3.26,-2.422 1.795,-3.906z" fill="url(#color-2)"></path></g></g></svg>