<svg xmlns="http://www.w3.org/2000/svg" xmlns:xlink="http://www.w3.org/1999/xlink" viewBox="0,0,256,256" width="100px" height="100px"><defs><radialGradient cx="36.833" cy="35.917" r="26" gradientUnits="userSpaceOnUse" id="color-1"><stop offset="0" stop-color="#e1e1e1"></stop><stop offset="0.193" stop-color="#eaeaea"></stop><stop offset="0.703" stop-color="#cacaca"></stop><stop offset="1" stop-color="#dcdcdc"></stop></radialGradient><radialGradient cx="31.417" cy="29.917" r="28.77" gradientUnits="userSpaceOnUse" id="color-2"><stop offset="0" stop-color="#e1e1e1"></stop><stop offset="0.193" stop-color="#eaeaea"></stop><stop offset="0.703" stop-color="#cacaca"></stop><stop offset="1" stop-color="#dcdcdc"></stop></radialGradient><radialGradient cx="32.5" cy="32" r="30.775" gradientUnits="userSpaceOnUse" id="color-3"><stop offset="0" stop-color="#e1e1e1"></stop><stop offset="0.193" stop-color="#eaeaea"></stop><stop offset="0.703" stop-color="#cacaca"></stop><stop offset="1" stop-color="#dcdcdc"></stop></radialGradient><radialGradient cx="35.917" cy="35.417" r="27.938" gradientUnits="userSpaceOnUse" id="color-4"><stop offset="0" stop-color="#e1e1e1"></stop><stop offset="0.193" stop-color="#eaeaea"></stop><stop offset="0.703" stop-color="#cacaca"></stop><stop offset="1" stop-color="#dcdcdc"></stop></radialGradient><linearGradient x1="32" y1="60.605" x2="32" y2="22.605" gradientUnits="userSpaceOnUse" id="color-5"><stop offset="0" stop-color="#ff634d"></stop><stop offset="0.204" stop-color="#fe6464"></stop><stop offset="0.521" stop-color="#fc6581"></stop><stop offset="0.794" stop-color="#fa6694"></stop><stop offset="0.989" stop-color="#fa669a"></stop><stop offset="1" stop-color="#fa669a"></stop></linearGradient><linearGradient x1="32" y1="22.49" x2="32" y2="9.858" gradientUnits="userSpaceOnUse" id="color-6"><stop offset="0" stop-color="#ff5840"></stop><stop offset="0.007" stop-color="#ff5840"></stop><stop offset="0.989" stop-color="#fa528c"></stop><stop offset="1" stop-color="#fa528c"></stop></linearGradient></defs><g fill="none" fill-rule="nonzero" stroke="none" stroke-width="1" stroke-linecap="butt" stroke-linejoin="miter" stroke-miterlimit="10" stroke-dasharray="" stroke-dashoffset="0" font-family="none" font-weight="none" font-size="none" text-anchor="none" style="mix-blend-mode: normal"><g transform="scale(4,4)"><path d="M10,8v0c2.209,0 4,-1.791 4,-4v0c0,-2.209 -1.791,-4 -4,-4v0c-2.209,0 -4,1.791 -4,4v0c0,2.209 1.791,4 4,4z" fill="url(#color-1)"></path><path d="M7.5,64v0c1.933,0 3.5,-1.567 3.5,-3.5v0c0,-1.933 -1.567,-3.5 -3.5,-3.5v0c-1.933,0 -3.5,1.567 -3.5,3.5v0c0,1.933 1.567,3.5 3.5,3.5z" fill="url(#color-2)"></path><path d="M62,20.5v0c0,-2.485 -2.015,-4.5 -4.5,-4.5h-13.5c-2.209,0 -4,-1.791 -4,-4v0c0,-2.209 1.791,-4 4,-4h2c2.209,0 4,-1.791 4,-4v0c0,-2.209 -1.791,-4 -4,-4h-24c-2.209,0 -4,1.791 -4,4v0c0,2.209 1.791,4 4,4h2c1.657,0 3,1.343 3,3v0c0,1.657 -1.343,3 -3,3h-14c-1.657,0 -3,1.343 -3,3v1c0,1.657 1.343,3 3,3h3c1.657,0 3,1.343 3,3v0c0,1.657 -1.343,3 -3,3h-5c-2.761,0 -5,2.239 -5,5v0c0,2.761 2.239,5 5,5h5.5c1.933,0 3.5,1.567 3.5,3.5v0c0,1.933 -1.567,3.5 -3.5,3.5h-4.5c-2.209,0 -4,1.791 -4,4v0c0,2.209 1.791,4 4,4h8.5c1.381,0 2.5,1.119 2.5,2.5v0c0,1.381 -1.119,2.5 -2.5,2.5v0c-1.933,0 -3.5,1.567 -3.5,3.5v0c0,1.933 1.567,3.5 3.5,3.5h30c1.933,0 3.5,-1.567 3.5,-3.5v0c0,-1.933 -1.567,-3.5 -3.5,-3.5h-0.5c-1.105,0 -2,-0.895 -2,-2v0c0,-1.105 0.895,-2 2,-2h7c2.209,0 4,-1.791 4,-4v0c0,-2.209 -1.791,-4 -4,-4h-5.5c-1.381,0 -2.5,-1.119 -2.5,-2.5v0c0,-1.381 1.119,-2.5 2.5,-2.5h0.5c2.209,0 4,-1.791 4,-4v0c0,-2.209 -1.791,-4 -4,-4h-1.5c-1.933,0 -3.5,-1.567 -3.5,-3.5v0c0,-1.933 1.567,-3.5 3.5,-3.5h10c2.485,0 4.5,-2.015 4.5,-4.5z" fill="url(#color-3)"></path><path d="M59,40v0c-2.209,0 -4,-1.791 -4,-4v0c0,-2.209 1.791,-4 4,-4v0c2.209,0 4,1.791 4,4v0c0,2.209 -1.791,4 -4,4z" fill="url(#color-4)"></path><g fill="#717171"><path d="M41.5,14.5c-0.829,0 -1.5,-0.671 -1.5,-1.5v-4.5c0,-1.378 -1.346,-2.5 -3,-2.5h-10c-1.654,0 -3,1.122 -3,2.5v4.5c0,0.829 -0.671,1.5 -1.5,1.5c-0.829,0 -1.5,-0.671 -1.5,-1.5v-4.5c0,-3.033 2.691,-5.5 6,-5.5h10c3.309,0 6,2.467 6,5.5v4.5c0,0.829 -0.671,1.5 -1.5,1.5z"></path></g><path d="M43,59h-22c-4.418,0 -8,-3.582 -8,-8v-30h38v30c0,4.418 -3.582,8 -8,8z" fill="url(#color-5)"></path><path d="M51,21h-38c-1.657,0 -3,-1.343 -3,-3v-2c0,-3.314 2.686,-6 6,-6h32c3.314,0 6,2.686 6,6v2c0,1.657 -1.343,3 -3,3z" fill="url(#color-6)"></path><g fill="#ffffff"><path d="M42.329,26.671v0c0.895,0.895 0.895,2.346 0,3.24l-17.417,17.418c-0.895,0.895 -2.346,0.895 -3.24,0v0c-0.895,-0.895 -0.895,-2.346 0,-3.24l17.417,-17.417c0.894,-0.896 2.345,-0.896 3.24,-0.001z"></path><path d="M42.329,47.329v0c-0.895,0.895 -2.346,0.895 -3.24,0l-17.418,-17.417c-0.895,-0.895 -0.895,-2.346 0,-3.24v0c0.895,-0.895 2.346,-0.895 3.24,0l17.417,17.417c0.896,0.894 0.896,2.345 0.001,3.24z"></path></g></g></g></svg>