<svg xmlns="http://www.w3.org/2000/svg" xmlns:xlink="http://www.w3.org/1999/xlink" viewBox="0,0,256,256" width="100px" height="100px"><defs><radialGradient cx="30.35" cy="29.5" r="34.437" gradientUnits="userSpaceOnUse" id="color-1"><stop offset="0" stop-color="#eed7a2" stop-opacity="0"></stop><stop offset="0.106" stop-color="#f1dcab" stop-opacity="0"></stop><stop offset="0.437" stop-color="#f8e8c3" stop-opacity="0"></stop><stop offset="0.744" stop-color="#fcefd2" stop-opacity="0"></stop><stop offset="1" stop-color="#fef2d7" stop-opacity="0"></stop></radialGradient><linearGradient x1="32.5" y1="57" x2="32.5" y2="9.686" gradientUnits="userSpaceOnUse" id="color-2"><stop offset="0" stop-color="#4bcaee"></stop><stop offset="0.507" stop-color="#56cdf1"></stop><stop offset="1" stop-color="#66d2f4"></stop></linearGradient><linearGradient x1="25" y1="43.266" x2="25" y2="57.266" gradientUnits="userSpaceOnUse" id="color-3"><stop offset="0.06" stop-color="#2fc3e9"></stop><stop offset="0.723" stop-color="#1face0"></stop><stop offset="1" stop-color="#18a1db"></stop></linearGradient><linearGradient x1="35.406" y1="43.483" x2="35.406" y2="56.749" gradientUnits="userSpaceOnUse" id="color-4"><stop offset="0" stop-color="#28b5e4"></stop><stop offset="0.48" stop-color="#23aee1"></stop><stop offset="1" stop-color="#18a1db"></stop></linearGradient></defs><g fill="none" fill-rule="nonzero" stroke="none" stroke-width="1" stroke-linecap="butt" stroke-linejoin="miter" stroke-miterlimit="10" stroke-dasharray="" stroke-dashoffset="0" font-family="none" font-weight="none" font-size="none" text-anchor="none" style="mix-blend-mode: normal"><g transform="scale(4,4)"><path d="M60.83,38h-5.33c-1.466,0 -2.637,-1.261 -2.487,-2.758c0.13,-1.301 1.322,-2.242 2.63,-2.242h0.857c1.466,0 2.637,-1.261 2.487,-2.758c-0.13,-1.301 -1.322,-2.242 -2.63,-2.242h-12.181c-0.556,-0.571 -1.336,-0.935 -2.176,-0.991v-3.92c0.034,-0.034 0.054,-0.054 0.089,-0.089h11.723c2.086,0 3.958,-1.514 4.168,-3.59c0.24,-2.382 -1.645,-4.41 -3.98,-4.41h-12c-1.657,0 -3,-1.343 -3,-3v0c0,-1.657 1.343,-3 3,-3h1.986c0,0 0,0 0.001,0c1.845,0.008 3.305,-1.649 2.963,-3.555c-0.259,-1.45 -1.624,-2.445 -3.098,-2.445h-35.852c-1.71,0 -3.086,1.431 -2.996,3.161c0.085,1.623 1.541,2.839 3.166,2.839h0.83c1.215,0 2.176,1.083 1.973,2.336c-0.16,0.983 -1.084,1.664 -2.08,1.664h-4.893c-1.71,0 -3.086,1.431 -2.996,3.161c0.085,1.623 1.541,2.839 3.166,2.839h4.33c1.466,0 2.637,1.261 2.487,2.758c-0.13,1.301 -1.322,2.242 -2.63,2.242h-3.715c-1.308,0 -2.499,0.941 -2.63,2.242c-0.149,1.497 1.022,2.758 2.488,2.758c0,0 0.272,-0.021 2.985,-0.025c1.94,-0.002 3.515,1.57 3.515,3.51v0.006c0,1.937 -1.568,3.508 -3.505,3.51c-1.602,0.002 -3.28,0.006 -4.147,0.014c-1.936,0.085 -3.467,1.729 -3.341,3.713c0.12,1.877 1.811,3.272 3.691,3.272h15.302v3.313c-0.535,0.457 -1.251,0.69 -1.987,0.687c-1.845,-0.008 -3.305,1.649 -2.964,3.555c0.261,1.45 1.625,2.445 3.099,2.445h9.852v1h7h8h15c1.71,0 3.086,-1.431 2.996,-3.161c-0.085,-1.623 -1.541,-2.839 -3.166,-2.839h-0.83c-1.215,0 -2.177,-1.083 -1.973,-2.336c0.16,-0.983 1.084,-1.664 2.08,-1.664h4.893c1.71,0 3.086,-1.431 2.996,-3.161c-0.085,-1.623 -1.541,-2.839 -3.166,-2.839z" fill="url(#color-1)"></path><path d="M17,8c-1.657,0 -3,1.343 -3,3v46h31c3.314,0 6,-2.686 6,-6v-40c0,-1.657 -1.343,-3 -3,-3z" fill="url(#color-2)"></path><path d="M45,57v0h-34c-3.314,0 -6,-2.686 -6,-6v-5c0,-1.657 1.343,-3 3,-3h28c1.657,0 3,1.343 3,3v5c0,3.314 2.686,6 6,6z" fill="url(#color-3)"></path><path d="M39,51v-5c0,-1.657 -1.343,-3 -3,-3h-2.98c-1.215,0 -2.176,1.083 -1.973,2.336c0.16,0.983 1.083,1.664 2.08,1.664h1.393c0.828,0 1.5,0.672 1.5,1.5c0,0.828 -0.672,1.5 -1.5,1.5h-5.413c-0.996,0 -1.92,0.681 -2.08,1.664c-0.203,1.253 0.758,2.336 1.973,2.336h2.52c0.828,0 1.5,0.672 1.5,1.5c0,0.828 -0.672,1.5 -1.5,1.5h11.48c0.407,0 0.666,-0.042 0.812,-0.119c-2.745,-0.551 -4.812,-2.974 -4.812,-5.881z" fill="url(#color-4)"></path><g fill="#ffffff"><path d="M43,39h-13c-1.105,0 -2,-0.895 -2,-2v0c0,-1.105 0.895,-2 2,-2h13c1.105,0 2,0.895 2,2v0c0,1.105 -0.895,2 -2,2zM43,32h-13c-1.105,0 -2,-0.895 -2,-2v0c0,-1.105 0.895,-2 2,-2h13c1.105,0 2,0.895 2,2v0c0,1.105 -0.895,2 -2,2zM43,25h-13c-1.105,0 -2,-0.895 -2,-2v0c0,-1.105 0.895,-2 2,-2h13c1.105,0 2,0.895 2,2v0c0,1.105 -0.895,2 -2,2z"></path><g><path d="M23,39h-1c-1.105,0 -2,-0.895 -2,-2v0c0,-1.105 0.895,-2 2,-2h1c1.105,0 2,0.895 2,2v0c0,1.105 -0.895,2 -2,2zM23,32h-1c-1.105,0 -2,-0.895 -2,-2v0c0,-1.105 0.895,-2 2,-2h1c1.105,0 2,0.895 2,2v0c0,1.105 -0.895,2 -2,2zM23,25h-1c-1.105,0 -2,-0.895 -2,-2v0c0,-1.105 0.895,-2 2,-2h1c1.105,0 2,0.895 2,2v0c0,1.105 -0.895,2 -2,2z"></path></g></g></g></g></svg>