<?php xml version="1.0" encoding="iso-8859-1"?>
<!-- Generator: Adobe Illustrator 25.2.0, SVG Export Plug-In . SVG Version: 6.00 Build 0)  -->
<svg version="1.1" baseProfile="basic" xmlns="http://www.w3.org/2000/svg" xmlns:xlink="http://www.w3.org/1999/xlink" x="0px"
	 y="0px" viewBox="0 0 100 100" xml:space="preserve">
<g id="Layer_1">
	<path style="opacity:0.35;fill:#1D1D1B;" d="M32.625,93C19.828,93,14,83.295,14,74.277V69.5c0-3.584,2.916-6.5,6.5-6.5H24V17.5
		c0-3.584,2.916-6.5,6.5-6.5h53c3.584,0,6.5,2.916,6.5,6.5v56.718C90,81.768,85,93,71.227,93H32.625z"/>
	<path style="opacity:0.35;fill:#1D1D1B;" d="M100,74.62c0,13.39-10.833,24.29-24.15,24.29S51.7,88.01,51.7,74.62
		c0-13.4,10.833-24.3,24.15-24.3S100,61.22,100,74.62z"/>
	<path style="fill:#F2F2F2;" d="M98.3,72.62c0,13.39-10.9,24.29-24.3,24.29s-24.3-10.9-24.3-24.29c0-13.4,10.9-24.3,24.3-24.3
		S98.3,59.22,98.3,72.62z"/>
	<path style="fill:#F2F2F2;" d="M30.625,91C17.828,91,12,81.295,12,72.277V67.5c0-3.584,2.916-6.5,6.5-6.5H22V15.5
		c0-3.584,2.916-6.5,6.5-6.5h53c3.584,0,6.5,2.916,6.5,6.5v56.718C88,79.768,83,91,69.227,91H30.625z"/>
	<path style="fill:#70BFFF;" d="M69.226,84.5c-12.274,0-40.726,0-40.726,0v-69l53,0.295v13.387V72.27
		C81.5,72.27,81.5,84.5,69.226,84.5z"/>
	<path style="fill:#D9EEFF;" d="M62,72.686V69H18v3.686C18,72.686,18,85,30.395,85c11.16,0,31.552,0,44,0C62,85,62,72.686,62,72.686
		z"/>
	<circle style="fill:#D9EEFF;" cx="39.5" cy="28.5" r="1.5"/>
	<path style="fill:#D9EEFF;" d="M70.5,30h-22c-0.828,0-1.5-0.672-1.5-1.5s0.672-1.5,1.5-1.5h22c0.828,0,1.5,0.672,1.5,1.5
		S71.328,30,70.5,30z"/>
	<circle style="fill:#D9EEFF;" cx="39.5" cy="38.5" r="1.5"/>
	<path style="fill:#D9EEFF;" d="M70.5,40h-22c-0.828,0-1.5-0.672-1.5-1.5s0.672-1.5,1.5-1.5h22c0.828,0,1.5,0.672,1.5,1.5
		S71.328,40,70.5,40z"/>
	<circle style="fill:#D9EEFF;" cx="39.5" cy="48.5" r="1.5"/>
	<path style="fill:#D9EEFF;" d="M70.5,50h-22c-0.828,0-1.5-0.672-1.5-1.5s0.672-1.5,1.5-1.5h22c0.828,0,1.5,0.672,1.5,1.5
		S71.328,50,70.5,50z"/>
</g>
<g id="Layer_2">
</g>
<g id="Layer_3">
</g>
<g id="Layer_4">
	<circle style="fill:#96C362;" cx="74" cy="72.616" r="16.298"/>
	<path style="fill:#40396E;" d="M83,55.55V15.5c0-0.83-0.67-1.5-1.5-1.5h-53c-0.83,0-1.5,0.67-1.5,1.5V66h-8.5
		c-0.83,0-1.5,0.67-1.5,1.5v4.78C17,77.37,19.87,86,30.62,86h29.49c3.51,3.64,8.44,5.91,13.89,5.91c10.64,0,19.3-8.65,19.3-19.29
		C93.3,65.23,89.12,58.79,83,55.55z M75.579,88.836c-4.046,0.38-7.842-0.718-10.869-2.836c-0.984-0.672-1.878-1.453-2.683-2.327
		C61.643,83.256,61.114,83,60.547,83H30.62C20.3,83,20,73.38,20,72.28V69h8.5c0.828,0,1.5-0.672,1.5-1.5V17h50v39.187
		c0,0.753,0.432,1.437,1.111,1.762c0.657,0.315,1.29,0.675,1.889,1.081c4.717,3.13,7.71,8.639,7.254,14.827
		C89.678,81.685,83.394,88.101,75.579,88.836z"/>
	<path style="fill:#F2F2F2;" d="M83.95,72.307c-0.342-5.063-4.539-9.109-9.611-9.281c-1.772-0.06-3.442,0.347-4.905,1.1
		l-1.135-1.703c-0.082-0.124-0.229-0.189-0.376-0.167c-0.147,0.022-0.268,0.127-0.311,0.269l-1.535,5.118
		c-0.034,0.113-0.014,0.235,0.054,0.332c0.068,0.096,0.177,0.156,0.294,0.162l5.118,0.256c0.007,0.001,0.013,0.001,0.019,0.001
		c0.138,0,0.265-0.074,0.334-0.194c0.071-0.126,0.066-0.282-0.015-0.403l-1.014-1.521c1.012-0.473,2.145-0.728,3.342-0.694
		c3.799,0.109,6.954,3.152,7.19,6.945c0.268,4.306-3.158,7.894-7.407,7.894c-3.932,0-7.159-3.073-7.406-6.943
		C66.57,73.209,66.348,73,66.078,73H64.54c-0.295,0-0.528,0.249-0.513,0.543c0.282,5.259,4.636,9.437,9.966,9.437
		C79.734,82.98,84.343,78.132,83.95,72.307z"/>
	<g>
	</g>
</g>
</svg>