<svg xmlns="http://www.w3.org/2000/svg"  viewBox="0 0 64 64" width="100" height="100"><radialGradient id="m9q10pLG0uoPi_oV~Ai3Ga" cx="32" cy="33" r="31.018" gradientTransform="matrix(1 0 0 -1 0 66)" gradientUnits="userSpaceOnUse"><stop offset="0" stop-color="#f4e09d"/><stop offset=".226" stop-color="#f8e8b5"/><stop offset=".513" stop-color="#fcf0cd"/><stop offset=".778" stop-color="#fef4dc"/><stop offset="1" stop-color="#fff6e1"/></radialGradient><path fill="url(#m9q10pLG0uoPi_oV~Ai3Ga)" d="M47.59,52.59c-0.41,0.4-0.63,0.97-0.58,1.59c0.09,1.05,1.05,1.82,2.1,1.82h9.39	c2.17,0,3.89,2.01,3.42,4.25C61.57,61.88,60.05,63,58.38,63H4.5c-2.17,0-3.89-2.01-3.42-4.25C1.43,57.12,2.95,56,4.62,56h12.39	c1.65,0,2.99-1.34,2.99-3v-4H4.5c-2.17,0-3.89-2.01-3.42-4.25C1.43,43.12,2.95,42,4.62,42H17c0.55,0,1.05-0.22,1.41-0.59	c0.41-0.4,0.64-0.97,0.58-1.59C18.9,38.77,17.94,38,16.89,38H4.5c-2.63,0-4.75-2.28-4.48-4.96C0.26,30.7,2.37,29,4.71,29h5.79	c0.96,0,1.84-0.39,2.47-1.03C13.61,27.34,14,26.46,14,25.5c0-1.93-1.57-3.5-3.5-3.5h-4c-2.17,0-3.89-2.01-3.42-4.25	C3.43,16.12,4.95,15,6.62,15H21c0.83,0,1.58-0.34,2.12-0.88c0.83-0.83,4.19-1.16,3.56-2.52c-0.47-1.01-1.56-1.6-2.69-1.6H11.5	c-2.17,0-3.89-2.01-3.42-4.25C8.43,4.12,9.95,3,11.62,3H58.5c2.17,0,3.89,2.01,3.42,4.25C61.57,8.88,60.05,10,58.38,10H52	c-0.55,0-1.05,0.22-1.41,0.59c-0.41,0.4-0.63,0.97-0.58,1.59c0.09,1.05,1.05,1.82,2.1,1.82h7.39c2.63,0,4.75,2.28,4.48,4.96	C63.74,21.3,61.64,23,59.29,23H58.5c-1.18,0-2.28,0.37-3.17,1C53.92,25,53,26.64,53,28.5c0,0.63,0.11,1.24,0.31,1.8	c0.27,0.8,0.72,1.51,1.3,2.09C55.6,33.38,56.98,34,58.5,34h1c2.17,0,3.89,2.01,3.42,4.25C62.57,39.88,61.05,41,59.38,41H54	c-0.55,0-1.05,0.22-1.41,0.59c-0.41,0.4-0.63,0.97-0.58,1.59c0.09,1.05,1.05,1.82,2.1,1.82h6.27c1.67,0,3.19,1.12,3.54,2.75	C64.39,49.99,62.67,52,60.5,52H49C48.45,52,47.95,52.22,47.59,52.59z"/><linearGradient id="m9q10pLG0uoPi_oV~Ai3Gb" x1="33" x2="33" y1="38.885" y2="14.294" gradientTransform="matrix(1 0 0 -1 0 66)" gradientUnits="userSpaceOnUse"><stop offset="0" stop-color="#42d778"/><stop offset=".996" stop-color="#34b171"/><stop offset="1" stop-color="#34b171"/></linearGradient><path fill="url(#m9q10pLG0uoPi_oV~Ai3Gb)" d="M58,29.997v21.006C58,52.659,56.615,54,54.894,54H11.106C9.385,54,8,52.659,8,51.003V29.997	C8,28.341,9.385,27,11.106,27h43.788C56.615,27,58,28.341,58,29.997z"/><linearGradient id="m9q10pLG0uoPi_oV~Ai3Gc" x1="33" x2="33" y1="41.979" y2="-2.957" gradientTransform="matrix(1 0 0 -1 0 66)" gradientUnits="userSpaceOnUse"><stop offset="0" stop-color="#62de8f"/><stop offset=".478" stop-color="#5dd18d"/><stop offset="1" stop-color="#56be89"/></linearGradient><path fill="url(#m9q10pLG0uoPi_oV~Ai3Gc)" d="M52,50H14c-1.105,0-2-0.895-2-2V33c0-1.105,0.895-2,2-2h38c1.105,0,2,0.895,2,2v15	C54,49.105,53.105,50,52,50z"/><linearGradient id="m9q10pLG0uoPi_oV~Ai3Gd" x1="33.5" x2="33.5" y1="50.186" y2="21.542" gradientTransform="matrix(1 0 0 -1 0 66)" gradientUnits="userSpaceOnUse"><stop offset="0" stop-color="#42d778"/><stop offset=".996" stop-color="#34b171"/><stop offset="1" stop-color="#34b171"/></linearGradient><circle cx="33.5" cy="40.5" r="6.5" fill="url(#m9q10pLG0uoPi_oV~Ai3Gd)"/><linearGradient id="m9q10pLG0uoPi_oV~Ai3Ge" x1="32.509" x2="32.509" y1="36.106" y2="64.658" gradientTransform="matrix(1 0 0 -1 0 66)" gradientUnits="userSpaceOnUse"><stop offset="0" stop-color="#155cde"/><stop offset=".278" stop-color="#1f7fe5"/><stop offset=".569" stop-color="#279ceb"/><stop offset=".82" stop-color="#2cafef"/><stop offset="1" stop-color="#2eb5f0"/></linearGradient><path fill="url(#m9q10pLG0uoPi_oV~Ai3Ge)" d="M51.458,7.053l-6.994-1.04c-1.198-0.183-2.389,0.383-3.013,1.424	c-0.624,1.04-0.56,2.354,0.162,3.329l0.983,1.326l-7.352,5.09L27.008,9.77c-1.103-0.993-2.761-1.029-3.906-0.093l-11,9	c-1.282,1.05-1.472,2.939-0.423,4.222C12.271,23.625,13.133,24,14.002,24c0.668,0,1.341-0.222,1.897-0.678l9.008-7.37l8.086,7.277	c1.034,0.931,2.569,1.03,3.715,0.237l9.462-6.551l1.396,1.884c0.571,0.77,1.464,1.208,2.393,1.214	c0.247,0.001,0.497-0.027,0.745-0.089c1.177-0.294,2.061-1.27,2.24-2.47l1.04-6.994C54.228,8.823,53.097,7.297,51.458,7.053z"/></svg>