<svg xmlns="http://www.w3.org/2000/svg"  viewBox="0 0 64 64" width="100px" height="100px"><polygon fill="#e6e7e8" points="45 3 45 61 42 57 39 61 36 57 33 61 30 57 27 61 24 57 21 61 18 57 15 61 12.43 57.57 12 57 9 61 6 57 3 61 3 3 6 7 9 3 12 7 15 3 18 7 21 3 24 7 27 3 30 7 33 3 36 7 39 3 42 7 45 3"/><polygon fill="#e0e0e2" points="45 25 45 61 42 57 39 61 36 57 33 61 30 57 27 61 24 57 21 61 18 57 15 61 12.43 57.57 45 25"/><circle cx="45" cy="24" r="9" fill="#ffd422"/><path fill="#ffb655" d="M55,40a2.006,2.006,0,0,1,2,2v1H47.6c.01-.13.02-.27.02-.4a2.982,2.982,0,0,0-1.5-2.6H55Z"/><polygon fill="#ffa733" points="45 37 45 39.35 40.93 37 45 37"/><polygon fill="#ffc477" points="45 45.57 45 49 34 49 29 45 27 45 27 33 33.95 33 34 33 40.93 37 45 39.35 45 45.57"/><path fill="#ffa733" d="M52,37H40.93L45,39.35l1.12.65H54V39A2.006,2.006,0,0,0,52,37Z"/><path fill="#ffc477" d="M60.12,43.88A2.993,2.993,0,0,0,58,43H47.6c.01-.13.02-.27.02-.4a2.982,2.982,0,0,0-1.5-2.6L45,39.35,40.93,37,34,33H27V45h2l5,4H58a3,3,0,0,0,2.12-5.12Z"/><polygon fill="#3d9ae2" points="27 45 27 47 19 47 19 43 19 31 27 31 27 33 27 45"/><path fill="#ffb655" d="M44.617,46.6a3.969,3.969,0,0,1-1.993-.535l-8.13-4.694,1-1.732,8.13,4.694a2,2,0,1,0,2-3.464L33.732,34H27V32h6.95a1.189,1.189,0,0,1,.55.134l12.124,7A4,4,0,0,1,44.617,46.6Z"/><path fill="#ed1c24" d="M46,23H44a1,1,0,0,1,0-2h2a1,1,0,0,1,1,1h2a3,3,0,0,0-3-3V18H44v1a3,3,0,0,0,0,6h2a1,1,0,0,1,0,2H44a1,1,0,0,1-1-1H41a3,3,0,0,0,3,3v1h2V29a3,3,0,0,0,0-6Z"/><rect width="4" height="2" x="6" y="30" fill="#bcbec0"/><rect width="4" height="2" x="12" y="30" fill="#bcbec0"/><rect width="4" height="2" x="6" y="34" fill="#bcbec0"/><rect width="4" height="2" x="12" y="34" fill="#bcbec0"/><rect width="4" height="2" x="6" y="22" fill="#bcbec0"/><rect width="20" height="2" x="12" y="22" fill="#bcbec0"/><rect width="4" height="2" x="6" y="26" fill="#bcbec0"/><rect width="20" height="2" x="12" y="26" fill="#bcbec0"/><rect width="4" height="2" x="6" y="38" fill="#bcbec0"/><rect width="4" height="2" x="12" y="38" fill="#bcbec0"/><rect width="4" height="2" x="6" y="42" fill="#bcbec0"/><rect width="4" height="2" x="12" y="42" fill="#bcbec0"/><rect width="4" height="2" x="6" y="46" fill="#bcbec0"/><rect width="4" height="2" x="12" y="46" fill="#bcbec0"/><rect width="4" height="2" x="6" y="50" fill="#bcbec0"/><rect width="18" height="2" x="12" y="50" fill="#bcbec0"/><rect width="10" height="2" x="6" y="12" fill="#bcbec0"/><rect width="16" height="2" x="6" y="16" fill="#bcbec0"/><rect width="4" height="2" x="18" y="12" fill="#bcbec0"/></svg>