<svg xmlns="http://www.w3.org/2000/svg" xmlns:xlink="http://www.w3.org/1999/xlink" viewBox="0,0,256,256" width="100px" height="100px"><defs><radialGradient cx="32" cy="32" r="32" gradientUnits="userSpaceOnUse" id="color-1"><stop offset="0" stop-color="#efdcb1" stop-opacity="0"></stop><stop offset="0" stop-color="#efdcb1" stop-opacity="0"></stop><stop offset="0.092" stop-color="#f2e0b9" stop-opacity="0"></stop><stop offset="0.415" stop-color="#f9eccf" stop-opacity="0"></stop><stop offset="0.724" stop-color="#fdf4dc" stop-opacity="0"></stop><stop offset="1" stop-color="#fff6e1" stop-opacity="0.01176"></stop></radialGradient><linearGradient x1="33" y1="67.047" x2="33" y2="16.047" gradientUnits="userSpaceOnUse" id="color-2"><stop offset="0" stop-color="#155cde"></stop><stop offset="0.278" stop-color="#1f7fe5"></stop><stop offset="0.569" stop-color="#279ceb"></stop><stop offset="0.82" stop-color="#2cafef"></stop><stop offset="1" stop-color="#2eb5f0"></stop></linearGradient><linearGradient x1="7" y1="47.5" x2="18" y2="47.5" gradientUnits="userSpaceOnUse" id="color-3"><stop offset="0" stop-color="#a4a4a4"></stop><stop offset="0.63" stop-color="#7f7f7f"></stop><stop offset="1" stop-color="#6f6f6f"></stop><stop offset="1" stop-color="#6f6f6f"></stop></linearGradient><linearGradient x1="7" y1="32.5" x2="18" y2="32.5" gradientUnits="userSpaceOnUse" id="color-4"><stop offset="0" stop-color="#a4a4a4"></stop><stop offset="0.63" stop-color="#7f7f7f"></stop><stop offset="1" stop-color="#6f6f6f"></stop><stop offset="1" stop-color="#6f6f6f"></stop></linearGradient><linearGradient x1="7" y1="17.5" x2="18" y2="17.5" gradientUnits="userSpaceOnUse" id="color-5"><stop offset="0" stop-color="#a4a4a4"></stop><stop offset="0.63" stop-color="#7f7f7f"></stop><stop offset="1" stop-color="#6f6f6f"></stop><stop offset="1" stop-color="#6f6f6f"></stop></linearGradient><linearGradient x1="47" y1="27" x2="47" y2="21" gradientUnits="userSpaceOnUse" id="color-6"><stop offset="0" stop-color="#ff634d"></stop><stop offset="0.204" stop-color="#fe6464"></stop><stop offset="0.521" stop-color="#fc6581"></stop><stop offset="0.794" stop-color="#fa6694"></stop><stop offset="0.989" stop-color="#fa669a"></stop><stop offset="1" stop-color="#fa669a"></stop></linearGradient><linearGradient x1="30" y1="37" x2="30" y2="13.003" gradientUnits="userSpaceOnUse" id="color-7"><stop offset="0" stop-color="#ff634d"></stop><stop offset="0.204" stop-color="#fe6464"></stop><stop offset="0.521" stop-color="#fc6581"></stop><stop offset="0.794" stop-color="#fa6694"></stop><stop offset="0.989" stop-color="#fa669a"></stop><stop offset="1" stop-color="#fa669a"></stop></linearGradient><linearGradient x1="29" y1="34.16" x2="29" y2="18.226" gradientUnits="userSpaceOnUse" id="color-8"><stop offset="0" stop-color="#feaa53"></stop><stop offset="0.612" stop-color="#ffcd49"></stop><stop offset="1" stop-color="#ffde44"></stop></linearGradient><linearGradient x1="40.5" y1="35.77" x2="40.5" y2="11.771" gradientUnits="userSpaceOnUse" id="color-9"><stop offset="0" stop-color="#ff634d"></stop><stop offset="0.204" stop-color="#fe6464"></stop><stop offset="0.521" stop-color="#fc6581"></stop><stop offset="0.794" stop-color="#fa6694"></stop><stop offset="0.989" stop-color="#fa669a"></stop><stop offset="1" stop-color="#fa669a"></stop></linearGradient><linearGradient x1="45.5" y1="39.586" x2="45.5" y2="10.208" gradientUnits="userSpaceOnUse" id="color-10"><stop offset="0" stop-color="#feaa53"></stop><stop offset="0.612" stop-color="#ffcd49"></stop><stop offset="1" stop-color="#ffde44"></stop></linearGradient><linearGradient x1="35.5" y1="44" x2="35.5" y2="50" gradientUnits="userSpaceOnUse" id="color-11"><stop offset="0" stop-color="#d8d8d8"></stop><stop offset="0.759" stop-color="#c9c9c9"></stop><stop offset="1" stop-color="#c3c3c3"></stop></linearGradient></defs><g fill="none" fill-rule="nonzero" stroke="none" stroke-width="1" stroke-linecap="butt" stroke-linejoin="miter" stroke-miterlimit="10" stroke-dasharray="" stroke-dashoffset="0" font-family="none" font-weight="none" font-size="none" text-anchor="none" style="mix-blend-mode: normal"><g transform="scale(4,4)"><path d="M64,60c0,2.209 -1.791,4 -4,4c-2.209,0 -4,-1.791 -4,-4c0,-2.209 1.791,-4 4,-4c2.209,0 4,1.791 4,4zM58.5,7c1.933,0 3.5,-1.567 3.5,-3.5c0,-1.933 -1.567,-3.5 -3.5,-3.5c-1.933,0 -3.5,1.567 -3.5,3.5c0,1.933 1.567,3.5 3.5,3.5zM48,56h-6c-1.657,0 -3,-1.343 -3,-3c0,-1.657 1.343,-3 3,-3h14c1.657,0 3,-1.343 3,-3v-1c0,-1.657 -1.343,-3 -3,-3h-3c-1.657,0 -3,-1.343 -3,-3c0,-1.657 1.343,-3 3,-3h5c2.761,0 5,-2.239 5,-5c0,-2.761 -2.239,-5 -5,-5h-5.5c-1.933,0 -3.5,-1.567 -3.5,-3.5c0,-1.933 1.567,-3.5 3.5,-3.5h4.5c2.209,0 4,-1.791 4,-4c0,-2.209 -1.791,-4 -4,-4h-8.5c-1.381,0 -2.5,-1.119 -2.5,-2.5c0,-1.381 1.119,-2.5 2.5,-2.5c1.933,0 3.5,-1.567 3.5,-3.5c0,-1.933 -1.567,-3.5 -3.5,-3.5h-30c-1.933,0 -3.5,1.567 -3.5,3.5c0,1.933 1.567,3.5 3.5,3.5h0.5c1.105,0 2,0.895 2,2c0,1.105 -0.895,2 -2,2l-0.163,0.867c-2.368,0.081 -4.022,0.133 -4.337,0.133h-8.5c-2.209,0 -4,1.791 -4,4v0.02c0,2.206 1.794,3.991 4,3.98c1.93,-0.01 3.5,1.552 3.5,3.482v0.018c0,1.933 -1.567,3.5 -3.5,3.5h-1c-2.761,0 -5,2.239 -5,5c0,2.761 2.239,5 5,5h1c1.657,0 3,1.343 3,3c0,1.657 -1.343,3 -3,3h-2.5c-1.933,0 -3.5,1.567 -3.5,3.5c0,1.933 1.567,3.5 3.5,3.5h17.5c0.465,0 2.074,-0.158 4.194,-0.385c0.5,0.668 0.806,1.487 0.806,2.385c0,2.209 -1.791,4 -4,4h-2c-2.209,0 -4,1.791 -4,4c0,2.209 1.791,4 4,4h28c2.209,0 4,-1.791 4,-4c0,-2.209 -1.791,-4 -4,-4z" fill="url(#color-1)"></path><path d="M11,10v45c0,1.657 1.343,3 3,3h38c1.657,0 3,-1.343 3,-3v-45c0,-1.657 -1.343,-3 -3,-3h-38c-1.657,0 -3,1.343 -3,3z" fill="url(#color-2)"></path><path d="M21,47.5c0,3.04 -2.46,5.5 -5.5,5.5c-1.86,0 -3.5,-0.93 -4.5,-2.34v-6.32c1,-1.41 2.64,-2.34 4.5,-2.34c3.04,0 5.5,2.46 5.5,5.5z" fill="#196ae1"></path><path d="M21,32.5c0,3.04 -2.46,5.5 -5.5,5.5c-1.86,0 -3.5,-0.93 -4.5,-2.34v-6.32c1,-1.41 2.64,-2.34 4.5,-2.34c3.04,0 5.5,2.46 5.5,5.5z" fill="#1e7de5"></path><path d="M21,17.5c0,3.04 -2.46,5.5 -5.5,5.5c-1.86,0 -3.5,-0.93 -4.5,-2.34v-6.32c1,-1.41 2.64,-2.34 4.5,-2.34c3.04,0 5.5,2.46 5.5,5.5z" fill="#238fe8"></path><path d="M18,47.5v0c0,1.375 -1.125,2.5 -2.5,2.5h-6c-1.375,0 -2.5,-1.125 -2.5,-2.5v0c0,-1.375 1.125,-2.5 2.5,-2.5h6c1.375,0 2.5,1.125 2.5,2.5z" fill="url(#color-3)"></path><path d="M18,32.5v0c0,1.375 -1.125,2.5 -2.5,2.5h-6c-1.375,0 -2.5,-1.125 -2.5,-2.5v0c0,-1.375 1.125,-2.5 2.5,-2.5h6c1.375,0 2.5,1.125 2.5,2.5z" fill="url(#color-4)"></path><path d="M18,17.5v0c0,1.375 -1.125,2.5 -2.5,2.5h-6c-1.375,0 -2.5,-1.125 -2.5,-2.5v0c0,-1.375 1.125,-2.5 2.5,-2.5h6c1.375,0 2.5,1.125 2.5,2.5z" fill="url(#color-5)"></path><path d="M47,21v0c1.65,0 3,1.35 3,3v0c0,1.65 -1.35,3 -3,3v0c-1.65,0 -3,-1.35 -3,-3v0c0,-1.65 1.35,-3 3,-3z" fill="url(#color-6)"></path><path d="M32,27c-1.31,-0.119 -3.69,0.119 -5,0l2.55,9.15c0.14,0.502 0.597,0.85 1.118,0.85h0.001c0.125,0 0.249,-0.02 0.367,-0.06l1.096,-0.365c0.518,-0.173 0.868,-0.658 0.868,-1.204c0,-0.104 -0.013,-0.207 -0.038,-0.308c-0.178,-0.526 -0.809,-2.806 -0.962,-4.063c-0.066,-0.546 -0.048,-3.604 0,-4z" fill="url(#color-7)"></path><path d="M34,29h-7.6c-1.32,0 -2.4,-0.975 -2.4,-2.167v-5.667c0,-1.191 1.08,-2.166 2.4,-2.166h7.6z" fill="url(#color-8)"></path><path d="M34,19c0,1.5 0,3.25 0,5c0,1.75 0,3.5 0,5c5,1 9,3 13,7v-12v-12c-4,4 -8,6 -13,7z" fill="url(#color-9)"></path><path d="M45.5,37v0c-0.828,0 -1.5,-0.672 -1.5,-1.5v-23c0,-0.828 0.672,-1.5 1.5,-1.5v0c0.828,0 1.5,0.672 1.5,1.5v23c0,0.828 -0.672,1.5 -1.5,1.5z" fill="url(#color-10)"></path><path d="M45,53h-19c-1.105,0 -2,-0.895 -2,-2v-8c0,-1.105 0.895,-2 2,-2h19c1.105,0 2,0.895 2,2v8c0,1.105 -0.895,2 -2,2z" fill="#ffffff"></path><path d="M28,44h15c0.552,0 1,0.448 1,1v0c0,0.552 -0.448,1 -1,1h-15c-0.552,0 -1,-0.448 -1,-1v0c0,-0.552 0.448,-1 1,-1zM28,48h15c0.552,0 1,0.448 1,1v0c0,0.552 -0.448,1 -1,1h-15c-0.552,0 -1,-0.448 -1,-1v0c0,-0.552 0.448,-1 1,-1z" fill="url(#color-11)"></path></g></g></svg>