<svg xmlns="http://www.w3.org/2000/svg"  viewBox="0 0 64 64" width="100px" height="100px"><path fill="#bcbec0" d="M40,3l9,10H42a2.006,2.006,0,0,1-2-2Z"/><path fill="#e6e7e8" d="M49,13V57a4,4,0,0,1-4,4H7a4,4,0,0,1-4-4V7A4,4,0,0,1,7,3H40v8a2.006,2.006,0,0,0,2,2Z"/><rect width="4" height="6" x="9" y="31" fill="#ff6243"/><rect width="4" height="8" x="17" y="29" fill="#5aaae7"/><rect width="4" height="12" x="25" y="25" fill="#00ccb3"/><circle cx="44" cy="32" r="9" fill="#ffd422"/><path fill="#ff9811" d="M57,45l-.25,2L55.22,59.25A2.007,2.007,0,0,1,53.23,61H34.77a2.007,2.007,0,0,1-1.99-1.75L31.25,47,31,45Z"/><polygon fill="#ff9811" points="59 41 59 45 57 45 31 45 29 45 29 41 59 41"/><polygon fill="#ee8700" points="57 45 56.75 47 31.25 47 31 45 57 45"/><path fill="#cc7400" d="M60.49,51.49a2,2,0,0,1-2.83,0l-7.07-7.08,2.82-2.82,7.08,7.07A2,2,0,0,1,60.49,51.49Z"/><path fill="#cc7400" d="M30.34,51.49a2,2,0,1,1-2.83-2.83l7.08-7.07,2.82,2.82Z"/><circle cx="52" cy="43" r="3" fill="#ee8700"/><circle cx="36" cy="43" r="3" fill="#ee8700"/><path fill="#ff5023" d="M45,31H43a1,1,0,0,1,0-2h2a1,1,0,0,1,1,1h2a3,3,0,0,0-3-3V26H43v1a3,3,0,0,0,0,6h2a1,1,0,0,1,0,2H43a1,1,0,0,1-1-1H40a3,3,0,0,0,3,3v1h2V37a3,3,0,0,0,0-6Z"/><rect width="2" height="8" x="43" y="49" fill="#ee8700" rx="1"/><rect width="8.062" height="2" x="45.469" y="52" fill="#ee8700" rx="1" transform="rotate(-82.875 49.5 53)"/><rect width="2" height="8.062" x="37.5" y="48.969" fill="#ee8700" rx="1" transform="rotate(-7.125 38.503 53.004)"/><rect width="22" height="2" x="8" y="36" fill="#1e81ce"/><path fill="#bcbec0" d="M13,17H11a1,1,0,0,1-1-1H8a3,3,0,0,0,3,3v1h2V19a3,3,0,0,0,0-6H11a1,1,0,0,1,0-2h2a1,1,0,0,1,1,1h2a3,3,0,0,0-3-3V8H11V9a3,3,0,0,0,0,6h2a1,1,0,0,1,0,2Z"/><rect width="16" height="2" x="20" y="17" fill="#bcbec0"/><rect width="2" height="2" x="20" y="13" fill="#bcbec0"/><rect width="12" height="2" x="24" y="13" fill="#bcbec0"/><rect width="14" height="2" x="8" y="42" fill="#bcbec0"/><rect width="8" height="2" x="8" y="46" fill="#bcbec0"/><rect width="4" height="2" x="18" y="46" fill="#bcbec0"/><rect width="14" height="2" x="8" y="50" fill="#bcbec0"/><rect width="14" height="2" x="8" y="54" fill="#bcbec0"/></svg>