<svg xmlns="http://www.w3.org/2000/svg" xmlns:xlink="http://www.w3.org/1999/xlink" viewBox="0,0,256,256" width="100px" height="100px"><defs><linearGradient x1="24" y1="4.939" x2="24" y2="42.939" gradientUnits="userSpaceOnUse" id="color-1"><stop offset="0" stop-color="#f0f0f0"></stop><stop offset="1" stop-color="#bbc1c4"></stop></linearGradient><linearGradient x1="21.115" y1="12.115" x2="26.639" y2="17.639" gradientUnits="userSpaceOnUse" id="color-2"><stop offset="0" stop-color="#33bef0"></stop><stop offset="1" stop-color="#0a85d9"></stop></linearGradient><linearGradient x1="24" y1="42.581" x2="24" y2="22.945" gradientUnits="userSpaceOnUse" id="color-3"><stop offset="0" stop-color="#393c40"></stop><stop offset="0.102" stop-color="#35383c"></stop><stop offset="0.471" stop-color="#2d3033"></stop><stop offset="1" stop-color="#2b2e30"></stop></linearGradient><linearGradient x1="23.999" y1="3.049" x2="23.999" y2="16.827" gradientUnits="userSpaceOnUse" id="color-4"><stop offset="0" stop-color="#d43a02"></stop><stop offset="1" stop-color="#b9360c"></stop></linearGradient><linearGradient x1="3.1893" y1="3.1685" x2="17.4262" y2="17.4055" gradientUnits="userSpaceOnUse" id="color-5"><stop offset="0" stop-color="#889097"></stop><stop offset="0.3312" stop-color="#848c94"></stop><stop offset="0.6688" stop-color="#78828b"></stop><stop offset="1" stop-color="#64717c"></stop></linearGradient><linearGradient x1="13.7514" y1="13.7307" x2="6.1983" y2="6.1776" gradientUnits="userSpaceOnUse" id="color-6"><stop offset="0" stop-color="#ffffff"></stop><stop offset="0.2418" stop-color="#f2f2f2"></stop><stop offset="1" stop-color="#cccccc"></stop></linearGradient><linearGradient x1="6.933" y1="6.9122" x2="12.3129" y2="12.2921" gradientUnits="userSpaceOnUse" id="color-7"><stop offset="0" stop-color="#0d61a9"></stop><stop offset="0.3633" stop-color="#0e5fa4"></stop><stop offset="0.7804" stop-color="#135796"></stop><stop offset="1" stop-color="#16528c"></stop></linearGradient><linearGradient x1="3.1893" y1="3.21" x2="17.4262" y2="17.447" gradientUnits="userSpaceOnUse" id="color-8"><stop offset="0" stop-color="#889097"></stop><stop offset="0.3312" stop-color="#848c94"></stop><stop offset="0.6688" stop-color="#78828b"></stop><stop offset="1" stop-color="#64717c"></stop></linearGradient><linearGradient x1="13.4835" y1="13.5042" x2="6.4699" y2="6.4906" gradientUnits="userSpaceOnUse" id="color-9"><stop offset="0" stop-color="#ffffff"></stop><stop offset="0.2418" stop-color="#f2f2f2"></stop><stop offset="1" stop-color="#cccccc"></stop></linearGradient><linearGradient x1="7.1927" y1="7.2135" x2="12.117" y2="12.1378" gradientUnits="userSpaceOnUse" id="color-10"><stop offset="0" stop-color="#0d61a9"></stop><stop offset="0.3633" stop-color="#0e5fa4"></stop><stop offset="0.7804" stop-color="#135796"></stop><stop offset="1" stop-color="#16528c"></stop></linearGradient></defs><g fill="none" fill-rule="nonzero" stroke="none" stroke-width="1" stroke-linecap="butt" stroke-linejoin="miter" stroke-miterlimit="10" stroke-dasharray="" stroke-dashoffset="0" font-family="none" font-weight="none" font-size="none" text-anchor="none" style="mix-blend-mode: normal"><g transform="scale(5.33333,5.33333)"><path d="M40,43h-32c-1.105,0 -2,-0.895 -2,-2v-26l18,-10l18,10v26c0,1.105 -0.895,2 -2,2z" fill="url(#color-1)"></path><path d="M22,12h4c0.552,0 1,0.448 1,1v4c0,0.552 -0.448,1 -1,1h-4c-0.552,0 -1,-0.448 -1,-1v-4c0,-0.552 0.448,-1 1,-1z" fill="url(#color-2)"></path><rect x="9" y="23" width="30" height="20" fill="url(#color-3)"></rect><path d="M39,23h-30v-1c0,-0.552 0.448,-1 1,-1h28c0.552,0 1,0.448 1,1z" fill="#64717c"></path><path d="M41.654,17.096l-17.654,-9.808l-17.654,9.808c-0.483,0.268 -1.092,0.094 -1.36,-0.388l-0.972,-1.749c-0.268,-0.483 -0.094,-1.092 0.388,-1.36l18.14,-10.078c0.906,-0.503 2.008,-0.503 2.914,0l18.14,10.078c0.483,0.268 0.657,0.877 0.388,1.36l-0.972,1.749c-0.266,0.483 -0.875,0.657 -1.358,0.388z" fill="url(#color-4)"></path><path d="M24,43h-8.5c-0.276,0 -0.5,-0.224 -0.5,-0.5v-7c0,-0.276 0.224,-0.5 0.5,-0.5h8.5z" fill="#e3a600"></path><path d="M32.5,43h-8.5v-8h8.5c0.276,0 0.5,0.224 0.5,0.5v7c0,0.276 -0.224,0.5 -0.5,0.5z" fill="#c48c00"></path><path d="M28.5,35h-9c-0.276,0 -0.5,-0.224 -0.5,-0.5v-7c0,-0.276 0.224,-0.5 0.5,-0.5h9c0.276,0 0.5,0.224 0.5,0.5v7c0,0.276 -0.224,0.5 -0.5,0.5z" fill="#fec730"></path></g></g><g fill="none" fill-rule="nonzero" stroke="none" stroke-width="1" stroke-linecap="butt" stroke-linejoin="miter" stroke-miterlimit="10" stroke-dasharray="" stroke-dashoffset="0" font-family="none" font-weight="none" font-size="none" text-anchor="none" style="mix-blend-mode: normal"><g transform="translate(156,154) scale(4.8,4.8)" id="overlay"><g fill="url(#color-5)"><path d="M19.715,7.647c-1.193,0.151 -2.415,-0.407 -3.054,-1.514c-0.639,-1.106 -0.512,-2.444 0.216,-3.401c-1.129,-1.072 -2.505,-1.884 -4.038,-2.338c-0.464,1.111 -1.56,1.893 -2.839,1.893c-1.279,0 -2.375,-0.782 -2.839,-1.893c-1.533,0.454 -2.909,1.266 -4.038,2.338c0.727,0.957 0.854,2.295 0.215,3.401c-0.639,1.107 -1.861,1.665 -3.053,1.514c-0.18,0.749 -0.285,1.528 -0.285,2.332c0,0.805 0.105,1.583 0.285,2.332c1.193,-0.151 2.415,0.407 3.054,1.514c0.639,1.106 0.512,2.444 -0.216,3.401c1.129,1.072 2.505,1.884 4.038,2.338c0.464,-1.111 1.56,-1.893 2.839,-1.893c1.279,0 2.375,0.781 2.839,1.893c1.533,-0.453 2.909,-1.266 4.038,-2.338c-0.727,-0.957 -0.854,-2.295 -0.216,-3.401c0.639,-1.106 1.861,-1.665 3.054,-1.514c0.18,-0.749 0.285,-1.527 0.285,-2.332c0,-0.804 -0.105,-1.583 -0.285,-2.332z"></path></g><path transform="translate(10,9.979)" d="M-5.385,0c0,-2.97405 2.41095,-5.385 5.385,-5.385c2.97405,0 5.385,2.41095 5.385,5.385c0,2.97405 -2.41095,5.385 -5.385,5.385c-2.97405,0 -5.385,-2.41095 -5.385,-5.385z" fill="url(#color-6)"></path><path transform="translate(10,9.979)" d="M-3.278,0c0,-1.81039 1.46761,-3.278 3.278,-3.278c1.81039,0 3.278,1.46761 3.278,3.278c0,1.81039 -1.46761,3.278 -3.278,3.278c-1.81039,0 -3.278,-1.46761 -3.278,-3.278z" fill="url(#color-7)"></path><g fill="url(#color-8)"><path d="M19.715,7.688c-1.193,0.151 -2.415,-0.407 -3.054,-1.514c-0.639,-1.106 -0.512,-2.444 0.216,-3.401c-1.129,-1.072 -2.505,-1.884 -4.038,-2.338c-0.464,1.112 -1.56,1.893 -2.839,1.893c-1.279,0 -2.375,-0.781 -2.839,-1.892c-1.533,0.453 -2.909,1.266 -4.038,2.338c0.727,0.957 0.854,2.294 0.215,3.401c-0.639,1.106 -1.861,1.665 -3.053,1.513c-0.18,0.75 -0.285,1.528 -0.285,2.333c0,0.805 0.105,1.583 0.285,2.332c1.193,-0.151 2.415,0.407 3.054,1.514c0.639,1.106 0.512,2.444 -0.216,3.401c1.129,1.072 2.505,1.884 4.038,2.338c0.464,-1.111 1.56,-1.893 2.839,-1.893c1.279,0 2.375,0.781 2.839,1.893c1.533,-0.453 2.909,-1.266 4.038,-2.338c-0.727,-0.957 -0.854,-2.295 -0.216,-3.401c0.639,-1.106 1.861,-1.665 3.054,-1.514c0.18,-0.749 0.285,-1.528 0.285,-2.332c0,-0.805 -0.105,-1.583 -0.285,-2.333z"></path></g><path transform="translate(10,10.021)" d="M-5,0c0,-2.76142 2.23858,-5 5,-5c2.76142,0 5,2.23858 5,5c0,2.76142 -2.23858,5 -5,5c-2.76142,0 -5,-2.23858 -5,-5z" fill="url(#color-9)"></path><path transform="translate(10,10.021)" d="M-3,0c0,-1.65685 1.34315,-3 3,-3c1.65685,0 3,1.34315 3,3c0,1.65685 -1.34315,3 -3,3c-1.65685,0 -3,-1.34315 -3,-3z" fill="url(#color-10)"></path></g></g></svg>