<svg xmlns="http://www.w3.org/2000/svg"  viewBox="0 0 120 120" width="100px" height="100px" baseProfile="basic"><path d="M29,83l59.004-5.002c7.18,0,13,7.163,13,16s-5.82,16-13,16h-59c-7.18,0-13-7.163-13-16 c0-5.279,2.078-9.962,5.281-12.876C23.444,79.159,26.11,83,29,83z" opacity=".35"/><path fill="#52afff" d="M101.004,13.998v76l0.003,3.071c0.006,7.139-5.779,12.929-12.917,12.929H29.004v-92H101.004z"/><rect width="39.996" height="7" x="52.004" y="26.998" opacity=".35"/><rect width="39.996" height="6" x="52.004" y="24.998" fill="#a4e2f1"/><path fill="#a4e2f1" d="M75.004,89.998c0-3.786,1.074-7.258,2.86-9.998h-48.86v25.998h59 C80.825,105.998,75.004,98.835,75.004,89.998z"/><path fill="#a4e2f1" d="M18.864,80c-1.786,2.74-2.86,6.213-2.86,9.998c0,8.837,5.82,16,13,16c7.18,0,13-7.163,13-16 c0-3.786-1.074-7.258-2.86-9.998H18.864z"/><circle cx="41.004" cy="31" r="4" opacity=".35"/><circle cx="41.004" cy="28" r="4" fill="#a4e2f1"/><rect width="39.996" height="7" x="52.004" y="42.998" opacity=".35"/><rect width="39.996" height="6" x="52.004" y="40.998" fill="#a4e2f1"/><circle cx="41.004" cy="47" r="4" opacity=".35"/><circle cx="41.004" cy="44" r="4" fill="#a4e2f1"/><rect width="39.996" height="7" x="52.004" y="59.998" opacity=".35"/><rect width="39.996" height="6" x="52.004" y="57.998" fill="#a4e2f1"/><circle cx="41.004" cy="64" r="4" opacity=".35"/><circle cx="41.004" cy="61" r="4" fill="#a4e2f1"/></svg>