<svg xmlns="http://www.w3.org/2000/svg" xmlns:xlink="http://www.w3.org/1999/xlink" viewBox="0,0,256,256" width="100px" height="100px"><defs><radialGradient cx="30.125" cy="27.125" r="33.699" gradientUnits="userSpaceOnUse" id="color-1"><stop offset="0" stop-color="#c5f1ff" stop-opacity="0"></stop><stop offset="0.35" stop-color="#cdf3ff" stop-opacity="0"></stop><stop offset="0.907" stop-color="#e4faff" stop-opacity="0"></stop><stop offset="1" stop-color="#e9fbff" stop-opacity="0"></stop></radialGradient><radialGradient cx="31" cy="32" r="31.504" gradientUnits="userSpaceOnUse" id="color-2"><stop offset="0" stop-color="#c5f1ff" stop-opacity="0"></stop><stop offset="0.35" stop-color="#cdf3ff" stop-opacity="0"></stop><stop offset="0.907" stop-color="#e4faff" stop-opacity="0"></stop><stop offset="1" stop-color="#e9fbff" stop-opacity="0"></stop></radialGradient><linearGradient x1="32" y1="40.994" x2="32" y2="-2.006" gradientUnits="userSpaceOnUse" id="color-3"><stop offset="0" stop-color="#ff8b67"></stop><stop offset="0.847" stop-color="#ffa76a"></stop><stop offset="1" stop-color="#ffad6b"></stop><stop offset="1" stop-color="#ffad6b"></stop></linearGradient><linearGradient x1="32" y1="52" x2="32" y2="16" gradientUnits="userSpaceOnUse" id="color-4"><stop offset="0" stop-color="#ffc050"></stop><stop offset="0.004" stop-color="#ffc050"></stop><stop offset="0.641" stop-color="#ffbe75"></stop><stop offset="1" stop-color="#ffbd85"></stop><stop offset="1" stop-color="#ffbd85"></stop></linearGradient><linearGradient x1="27" y1="52" x2="27" y2="16" gradientUnits="userSpaceOnUse" id="color-5"><stop offset="0" stop-color="#ffc96a"></stop><stop offset="0.004" stop-color="#ffc96a"></stop><stop offset="0.578" stop-color="#ffc887"></stop><stop offset="1" stop-color="#ffc797"></stop><stop offset="1" stop-color="#ffc797"></stop></linearGradient><linearGradient x1="42.5" y1="38" x2="42.5" y2="31" gradientUnits="userSpaceOnUse" id="color-6"><stop offset="0" stop-color="#ffc96a"></stop><stop offset="0.004" stop-color="#ffc96a"></stop><stop offset="0.578" stop-color="#ffc887"></stop><stop offset="1" stop-color="#ffc797"></stop><stop offset="1" stop-color="#ffc797"></stop></linearGradient><linearGradient x1="13" y1="26" x2="13" y2="0" gradientUnits="userSpaceOnUse" id="color-7"><stop offset="0" stop-color="#155cde"></stop><stop offset="0.2782" stop-color="#1f7fe5"></stop><stop offset="0.5693" stop-color="#279ceb"></stop><stop offset="0.8201" stop-color="#2cafef"></stop><stop offset="1" stop-color="#2eb5f0"></stop></linearGradient><linearGradient x1="15.5" y1="6.864" x2="15.5" y2="19.864" gradientUnits="userSpaceOnUse" id="color-8"><stop offset="0" stop-color="#def9ff"></stop><stop offset="0.2818" stop-color="#cff6ff"></stop><stop offset="0.8232" stop-color="#a7efff"></stop><stop offset="1" stop-color="#99ecff"></stop></linearGradient></defs><g fill="none" fill-rule="nonzero" stroke="none" stroke-width="1" stroke-linecap="butt" stroke-linejoin="miter" stroke-miterlimit="10" stroke-dasharray="" stroke-dashoffset="0" font-family="none" font-weight="none" font-size="none" text-anchor="none" style="mix-blend-mode: normal"><g transform="scale(4,4)"><path d="M45,8v0c2.209,0 4,-1.791 4,-4v0c0,-2.209 -1.791,-4 -4,-4v0c-2.209,0 -4,1.791 -4,4v0c0,2.209 1.791,4 4,4z" fill="url(#color-1)"></path><path d="M62,47.5v0c0,-2.485 -2.015,-4.5 -4.5,-4.5h-25.5c-1.105,0 -2,-0.895 -2,-2v-19c0,-1.105 0.895,-2 2,-2h10c2.209,0 4,-1.791 4,-4v0c0,-2.209 -1.791,-4 -4,-4h-10c-1.105,0 -2,-0.895 -2,-2v0c0,-1.105 0.895,-2 2,-2h1c2.209,0 4,-1.791 4,-4v0c0,-2.209 -1.791,-4 -4,-4h-24.5c-3.038,0 -5.5,2.462 -5.5,5.5v0c0,3.038 2.462,5.5 5.5,5.5h3c3.038,0 5.5,2.462 5.5,5.5v0c0,3.038 -2.462,5.5 -5.5,5.5h-6c-3.038,0 -5.5,2.462 -5.5,5.5v0c0,3.038 2.462,5.5 5.5,5.5h8.5c1.657,0 3,1.343 3,3v0c0,1.657 -1.343,3 -3,3h-7.5c-2.485,0 -4.5,2.015 -4.5,4.5v0c0,2.485 2.015,4.5 4.5,4.5h7.5c2.209,0 4,1.791 4,4v0c0,2.209 -1.791,4 -4,4h-1c-2.209,0 -4,1.791 -4,4v0c0,2.209 1.791,4 4,4h40c2.209,0 4,-1.791 4,-4v0c0,-2.209 -1.791,-4 -4,-4h-3c-1.105,0 -2,-0.895 -2,-2v0c0,-1.105 0.895,-2 2,-2h7.5c2.485,0 4.5,-2.015 4.5,-4.5z" fill="url(#color-2)"></path><path d="M26,13v0c0,-2.209 -1.791,-4 -4,-4h-10c-2.209,0 -4,1.791 -4,4v34c0,2.761 2.239,5 5,5h38c2.761,0 5,-2.239 5,-5v-26c0,-2.761 -2.239,-5 -5,-5h-22c-1.657,0 -3,-1.343 -3,-3z" fill="url(#color-3)"></path><path d="M13,16h38c2.761,0 5,2.239 5,5v26c0,2.761 -2.239,5 -5,5h-38c-2.761,0 -5,-2.239 -5,-5v-26c0,-2.761 2.239,-5 5,-5z" fill="url(#color-4)"></path><path d="M46,19.5v0c0,-1.933 -1.567,-3.5 -3.5,-3.5h-29.5c-2.761,0 -5,2.239 -5,5v2v8v7v7v2c0,2.761 2.239,5 5,5h12.5c1.933,0 3.5,-1.567 3.5,-3.5v0c0,-1.933 -1.567,-3.5 -3.5,-3.5h-4c-1.933,0 -3.5,-1.567 -3.5,-3.5v0c0,-1.933 1.567,-3.5 3.5,-3.5h8c1.933,0 3.5,-1.567 3.5,-3.5v0c0,-1.933 -1.567,-3.5 -3.5,-3.5h-4.5c-2.209,0 -4,-1.791 -4,-4v0c0,-2.209 1.791,-4 4,-4h17.5c1.933,0 3.5,-1.567 3.5,-3.5z" fill="url(#color-5)"></path><path d="M42.5,38v0c1.933,0 3.5,-1.567 3.5,-3.5v0c0,-1.933 -1.567,-3.5 -3.5,-3.5v0c-1.933,0 -3.5,1.567 -3.5,3.5v0c0,1.933 1.567,3.5 3.5,3.5z" fill="url(#color-6)"></path></g></g><g fill="none" fill-rule="nonzero" stroke="none" stroke-width="1" stroke-linecap="butt" stroke-linejoin="miter" stroke-miterlimit="10" stroke-dasharray="" stroke-dashoffset="0" font-family="none" font-weight="none" font-size="none" text-anchor="none" style="mix-blend-mode: normal"><g transform="translate(163.99962,164) scale(3.07692,3.07692)" id="overlay"><path d="M15.5,0c-5.799,0 -10.5,4.701 -10.5,10.5c0,2.177 0.663,4.198 1.797,5.875l-6.211,6.211c-0.781,0.781 -0.781,2.047 0,2.828c0.391,0.391 0.902,0.586 1.414,0.586c0.512,0 1.023,-0.195 1.414,-0.586l6.211,-6.211c1.677,1.134 3.698,1.797 5.875,1.797c5.799,0 10.5,-4.701 10.5,-10.5c0,-5.799 -4.701,-10.5 -10.5,-10.5z" fill="url(#color-7)"></path><path transform="translate(15.5,10.5)" d="M-6.5,0c0,-3.58985 2.91015,-6.5 6.5,-6.5c3.58985,0 6.5,2.91015 6.5,6.5c0,3.58985 -2.91015,6.5 -6.5,6.5c-3.58985,0 -6.5,-2.91015 -6.5,-6.5z" fill="url(#color-8)"></path></g></g></svg>