<svg xmlns="http://www.w3.org/2000/svg" xmlns:xlink="http://www.w3.org/1999/xlink" viewBox="0,0,256,256" width="100px" height="100px"><g fill="none" fill-rule="nonzero" stroke="none" stroke-width="none" stroke-linecap="none" stroke-linejoin="miter" stroke-miterlimit="10" stroke-dasharray="" stroke-dashoffset="0" font-family="none" font-weight="none" font-size="none" text-anchor="none" style="mix-blend-mode: normal"><g transform="scale(4,4)"><path d="M13,54h-2c-1.657,0 -3,-1.343 -3,-3v-9h8v9c0,1.657 -1.343,3 -3,3z" fill="#717171" stroke="none" stroke-width="1" stroke-linecap="butt"></path><path d="M53,54h-2c-1.657,0 -3,-1.343 -3,-3v-9h8v9c0,1.657 -1.343,3 -3,3z" fill="#717171" stroke="none" stroke-width="1" stroke-linecap="butt"></path><ellipse cx="32" cy="61" rx="23" ry="3" fill="#000000" stroke="none" stroke-width="1" stroke-linecap="butt" opacity="0.3"></ellipse><path d="M42.691,9h-21.382c-2.654,0 -5.08,1.501 -6.264,3.876l-5.994,12.016c-0.691,1.386 -1.051,2.914 -1.051,4.463v15.645c0,2.209 1.791,4 4,4h40c2.209,0 4,-1.791 4,-4v-15.645c0,-1.549 -0.36,-3.077 -1.051,-4.463l-5.993,-12.016c-1.185,-2.375 -3.611,-3.876 -6.265,-3.876z" fill="#fd3c4f" stroke="none" stroke-width="1" stroke-linecap="butt"></path><path d="M14.985,24.1l4.534,-9.004c0.339,-0.672 1.027,-1.096 1.78,-1.096h21.402c0.753,0 1.442,0.424 1.78,1.097l4.533,9.003c0.67,1.33 -0.297,2.899 -1.786,2.899l-30.456,0.001c-1.489,0 -2.456,-1.569 -1.787,-2.9z" fill="#717171" stroke="none" stroke-width="1" stroke-linecap="butt"></path><path d="M13,30h-7c-1.105,0 -2,-0.895 -2,-2v-3c0,-1.105 0.895,-2 2,-2h7z" fill="#fd3c4f" stroke="none" stroke-width="1" stroke-linecap="butt"></path><path d="M51,30h7c1.105,0 2,-0.895 2,-2v-3c0,-1.105 -0.895,-2 -2,-2h-7z" fill="#fd3c4f" stroke="none" stroke-width="1" stroke-linecap="butt"></path><circle cx="16.5" cy="36.5" r="3.5" fill="#5a7eff" stroke="none" stroke-width="1" stroke-linecap="butt"></circle><circle cx="47.5" cy="36.5" r="3.5" fill="#5a7eff" stroke="none" stroke-width="1" stroke-linecap="butt"></circle><path d="M37,45h-10c-1.105,0 -2,-0.895 -2,-2v-1c0,-1.105 0.895,-2 2,-2h10c1.105,0 2,0.895 2,2v1c0,1.105 -0.895,2 -2,2z" fill="#cd2e42" stroke="none" stroke-width="1" stroke-linecap="butt"></path><path d="M15.044,12.876l-4.977,9.979v0c0.716,0.357 1.478,0.526 2.228,0.526c1.836,0 3.603,-1.015 4.478,-2.77l2.745,-5.504c0.341,-0.682 1.027,-1.107 1.791,-1.107h4.691c2.761,0 5,-2.238 5,-5h-9.691c-2.654,0 -5.08,1.501 -6.265,3.876z" fill="#ffffff" stroke="none" stroke-width="1" stroke-linecap="butt" opacity="0.3"></path><path d="M56,45v-15c-2.761,0 -5,2.238 -5,5v8c0,0.552 -0.448,1 -1,1h-8c-2.761,0 -5,2.238 -5,5h15c2.209,0 4,-1.791 4,-4z" fill="#000000" stroke="none" stroke-width="1" stroke-linecap="butt" opacity="0.15"></path><path d="M17.166,16.465l1.011,-2.026c0.597,-1.196 1.796,-1.938 3.132,-1.938h1.837" fill="none" stroke="#ffffff" stroke-width="3" stroke-linecap="round"></path></g></g></svg>