<svg xmlns="http://www.w3.org/2000/svg" xmlns:xlink="http://www.w3.org/1999/xlink" viewBox="0,0,256,256" width="100px" height="100px"><g fill="none" fill-rule="nonzero" stroke="none" stroke-width="1" stroke-linecap="butt" stroke-linejoin="miter" stroke-miterlimit="10" stroke-dasharray="" stroke-dashoffset="0" font-family="none" font-weight="none" font-size="none" text-anchor="none" style="mix-blend-mode: normal"><g transform="scale(5.33333,5.33333)"><path d="M13.1,33c-0.7,0 -1.2,-0.5 -1.3,-1.2l-2.6,-22.1c-0.2,-1.6 -1.5,-2.7 -3,-2.7h-1.2v2h1.2c0.5,0 0.9,0.4 1,0.9l2.6,22.2c0.2,1.7 1.6,2.9 3.3,2.9h10.9v-2z" fill="#607d8b"></path><path d="M14,31h29v4h-29z" fill="#ffc107"></path><path d="M38,35c-1.65685,0 -3,1.34315 -3,3c0,1.65685 1.34315,3 3,3c1.65685,0 3,-1.34315 3,-3c0,-1.65685 -1.34315,-3 -3,-3zM19,35c-1.65685,0 -3,1.34315 -3,3c0,1.65685 1.34315,3 3,3c1.65685,0 3,-1.34315 3,-3c0,-1.65685 -1.34315,-3 -3,-3z" fill="#37474f"></path><path d="M38,37c-0.55228,0 -1,0.44772 -1,1c0,0.55228 0.44772,1 1,1c0.55228,0 1,-0.44772 1,-1c0,-0.55228 -0.44772,-1 -1,-1zM19,37c-0.55228,0 -1,0.44772 -1,1c0,0.55228 0.44772,1 1,1c0.55228,0 1,-0.44772 1,-1c0,-0.55228 -0.44772,-1 -1,-1z" fill="#607d8b"></path><path d="M38,31h-20c-1.1,0 -2,-0.9 -2,-2v-20c0,-1.1 0.9,-2 2,-2h20c1.1,0 2,0.9 2,2v20c0,1.1 -0.9,2 -2,2z" fill="#ff9800"></path><path d="M30,11h-4c-0.6,0 -1,-0.4 -1,-1v0c0,-0.6 0.4,-1 1,-1h4c0.6,0 1,0.4 1,1v0c0,0.6 -0.4,1 -1,1zM30,24h-4c-0.6,0 -1,-0.4 -1,-1v0c0,-0.6 0.4,-1 1,-1h4c0.6,0 1,0.4 1,1v0c0,0.6 -0.4,1 -1,1z" fill="#8a5100"></path><path d="M16,18h24v2h-24z" fill="#c77600"></path></g></g><g fill="#7cb342" fill-rule="nonzero" stroke="none" stroke-width="1" stroke-linecap="butt" stroke-linejoin="miter" stroke-miterlimit="10" stroke-dasharray="" stroke-dashoffset="0" font-family="none" font-weight="none" font-size="none" text-anchor="none" style="mix-blend-mode: normal"><g transform="translate(2.66667,157.33333) scale(5.06667,5.06667)" id="overlay"><path d="M20,7h-7v-7h-6v7h-7v6h7v7h6v-7h7z"></path></g></g></svg>