<svg xmlns="http://www.w3.org/2000/svg"  viewBox="0 0 120 120" width="100px" height="100px" baseProfile="basic"><polygon fill="#52afff" points="90,19 84,12 78,19 72,12 66,19 60,12 54,19 48,12 42,19 36,12 30,19 24,12 24,106 96,106 96,12"/><rect width="33" height="7" x="32" y="46" opacity=".35"/><rect width="8" height="7" x="80" y="46" opacity=".35"/><rect width="33" height="6" x="32" y="44" fill="#a4e2f1"/><rect width="56" height="7" x="32" y="31" opacity=".35"/><rect width="56" height="6" x="32" y="29" fill="#a4e2f1"/><rect width="23" height="6" x="65" y="92" opacity=".35"/><rect width="23" height="6" x="65" y="89" fill="#a4e2f1"/><rect width="8" height="6" x="80" y="44" fill="#a4e2f1"/><rect width="33" height="7" x="32" y="61" opacity=".35"/><rect width="8" height="7" x="80" y="61" opacity=".35"/><rect width="33" height="6" x="32" y="59" fill="#a4e2f1"/><rect width="8" height="6" x="80" y="59" fill="#a4e2f1"/><rect width="33" height="7" x="32" y="76" opacity=".35"/><rect width="8" height="7" x="80" y="76" opacity=".35"/><rect width="33" height="6" x="32" y="74" fill="#a4e2f1"/><rect width="72" height="4" x="24" y="106" opacity=".35"/><rect width="8" height="6" x="80" y="74" fill="#a4e2f1"/></svg>