<svg xmlns="http://www.w3.org/2000/svg" xmlns:xlink="http://www.w3.org/1999/xlink" viewBox="0,0,256,256" width="100px" height="100px"><defs><radialGradient cx="32" cy="32" r="33.002" gradientUnits="userSpaceOnUse" id="color-1"><stop offset="0" stop-color="#efdcb1"></stop><stop offset="0" stop-color="#f2e0bb"></stop><stop offset="0.011" stop-color="#f2e0bc"></stop><stop offset="0.362" stop-color="#f9edd2"></stop><stop offset="0.699" stop-color="#fef4df"></stop><stop offset="1" stop-color="#fff7e4"></stop></radialGradient><linearGradient x1="33" y1="58" x2="33" y2="6" gradientUnits="userSpaceOnUse" id="color-2"><stop offset="0" stop-color="#41bfec"></stop><stop offset="0.232" stop-color="#4cc5ef"></stop><stop offset="0.644" stop-color="#6bd4f6"></stop><stop offset="1" stop-color="#8ae4fd"></stop></linearGradient><linearGradient x1="38.879" y1="20.121" x2="46.454" y2="12.546" gradientUnits="userSpaceOnUse" id="color-3"><stop offset="0" stop-color="#c6effd"></stop><stop offset="0.375" stop-color="#b7ecfd"></stop><stop offset="1" stop-color="#95e6fd"></stop></linearGradient><linearGradient x1="45.5" y1="24.083" x2="45.5" y2="18.083" gradientUnits="userSpaceOnUse" id="color-4"><stop offset="0" stop-color="#42c6ee"></stop><stop offset="0.48" stop-color="#3bc3ed"></stop><stop offset="1" stop-color="#2ebeea"></stop></linearGradient><linearGradient x1="12" y1="0" x2="12" y2="24" gradientUnits="userSpaceOnUse" id="color-5"><stop offset="0" stop-color="#42d778"></stop><stop offset="0.9964" stop-color="#34b171"></stop><stop offset="1" stop-color="#34b171"></stop></linearGradient></defs><g fill="none" fill-rule="nonzero" stroke="none" stroke-width="1" stroke-linecap="butt" stroke-linejoin="miter" stroke-miterlimit="10" stroke-dasharray="" stroke-dashoffset="0" font-family="none" font-weight="none" font-size="none" text-anchor="none" style="mix-blend-mode: normal"><g transform="scale(4,4)"><path d="M55.454,45.668c0.5,0.898 1.504,1.337 2.532,1.332c1.75,-0.008 3.153,1.483 3.002,3.262c-0.133,1.576 -1.554,2.738 -3.136,2.738h-9.852v1h-22h-8h-11c-1.71,0 -3.086,-1.431 -2.996,-3.161c0.085,-1.623 1.541,-2.839 3.166,-2.839h0.83c1.215,0 2.176,-1.083 1.973,-2.336c-0.16,-0.983 -1.084,-1.664 -2.08,-1.664h-4.893c-1.71,0 -3.086,-1.431 -2.996,-3.161c0.085,-1.623 1.541,-2.839 3.166,-2.839h6.33c1.381,0 2.5,-1.119 2.5,-2.5v0c0,-1.381 -1.119,-2.5 -2.5,-2.5v0c-1.381,0 -2.5,-1.119 -2.5,-2.5v0c0,-1.381 1.119,-2.5 2.5,-2.5h8.5v-7h-7.5c-1.995,0 -3.601,-1.67 -3.495,-3.688c0.099,-1.893 1.798,-3.312 3.693,-3.312h7.302v-4h24h6h8.5c1.995,0 3.601,1.67 3.495,3.688c-0.099,1.893 -1.798,3.312 -3.693,3.312h-2.802c-1.995,0 -3.601,1.67 -3.495,3.688c0.099,1.893 1.798,3.312 3.693,3.312h2.302c1.777,0 3.194,1.546 2.978,3.366c-0.179,1.509 -1.546,2.572 -3.064,2.635c-1.197,0.05 -2.122,1.153 -1.874,2.406c0.188,0.948 1.083,1.593 2.049,1.593h4.411c1.995,0 3.601,1.67 3.495,3.688c-0.099,1.893 -1.798,3.312 -3.693,3.312h-2.302c-2.192,0 -3.834,2.35 -2.546,4.668zM2.5,33v0c1.381,0 2.5,-1.119 2.5,-2.5v0c0,-1.381 -1.119,-2.5 -2.5,-2.5v0c-1.381,0 -2.5,1.119 -2.5,2.5v0c0,1.381 1.119,2.5 2.5,2.5z" fill="url(#color-1)"></path><path d="M50,58h-34c-1.657,0 -3,-1.343 -3,-3v-46c0,-1.657 1.343,-3 3,-3h20.757c0.796,0 1.559,0.316 2.121,0.879l13.243,13.243c0.563,0.562 0.879,1.325 0.879,2.121v32.757c0,1.657 -1.343,3 -3,3z" fill="url(#color-2)"></path><path d="M52.121,20.122l-13.243,-13.243c-0.255,-0.255 -0.556,-0.452 -0.878,-0.6v11.721c0,1.657 1.343,3 3,3h11.721c-0.147,-0.322 -0.344,-0.623 -0.6,-0.878z" fill="url(#color-3)"></path><path d="M41,21c-1.657,0 -3,-1.343 -3,-3v3c0,1.657 1.343,3 3,3h12v-1.757c0,-0.434 -0.102,-0.855 -0.279,-1.243z" fill="url(#color-4)"></path><path d="M32,22h-11c-1.105,0 -2,-0.895 -2,-2v0c0,-1.105 0.895,-2 2,-2h11c1.105,0 2,0.895 2,2v0c0,1.105 -0.895,2 -2,2zM38,49h-17c-1.105,0 -2,-0.895 -2,-2v0c0,-1.105 0.895,-2 2,-2h17c1.105,0 2,0.895 2,2v0c0,1.105 -0.895,2 -2,2zM37,37h9c1.105,0 2,0.895 2,2v0c0,1.105 -0.895,2 -2,2h-9c-1.105,0 -2,-0.895 -2,-2v0c0,-1.105 0.895,-2 2,-2zM21,37h9c1.105,0 2,0.895 2,2v0c0,1.105 -0.895,2 -2,2h-9c-1.105,0 -2,-0.895 -2,-2v0c0,-1.105 0.895,-2 2,-2zM21,29h16c1.105,0 2,0.895 2,2v0c0,1.105 -0.895,2 -2,2h-16c-1.105,0 -2,-0.895 -2,-2v0c0,-1.105 0.895,-2 2,-2zM44,29h2c1.105,0 2,0.895 2,2v0c0,1.105 -0.895,2 -2,2h-2c-1.105,0 -2,-0.895 -2,-2v0c0,-1.105 0.895,-2 2,-2z" fill="#f1fcff"></path></g></g><g fill="none" fill-rule="nonzero" stroke="none" stroke-width="1" stroke-linecap="butt" stroke-linejoin="miter" stroke-miterlimit="10" stroke-dasharray="" stroke-dashoffset="0" font-family="none" font-weight="none" font-size="none" text-anchor="none" style="mix-blend-mode: normal"><g transform="translate(156,154) scale(4,4)" id="overlay"><path d="M24,12c0,6.626 -5.374,12 -12,12c-6.626,0 -12,-5.374 -12,-12c0,-6.626 5.374,-12 12,-12c6.626,0 12,5.374 12,12z" fill="url(#color-5)"></path><path d="M12.075,5.536c1.886,0 4.754,0.79 4.754,2.621c0,0.806 -0.655,1.395 -1.461,1.395c-1.416,0 -1.426,-1.529 -3.377,-1.529c-1.092,0 -1.73,0.504 -1.73,1.092c0,0.622 0.319,1.075 1.596,1.345l2.05,0.437c2.57,0.554 3.596,1.864 3.596,3.763c0,2.15 -1.361,4.149 -5.31,4.149c-2.527,0 -5.325,-0.719 -5.325,-2.671c0,-0.84 0.688,-1.395 1.528,-1.395c1.425,0 1.646,1.345 3.663,1.345c1.344,0 2.066,-0.403 2.066,-1.21c0,-0.588 -0.319,-0.991 -1.529,-1.243l-2.066,-0.437c-2.352,-0.504 -3.511,-1.681 -3.511,-3.764c0,-2.202 1.831,-3.898 5.056,-3.898z" fill="#ffffff"></path><path d="M12,7.5c-0.828,0 -1.5,-0.671 -1.5,-1.5v-1.5c0,-0.829 0.672,-1.5 1.5,-1.5c0.828,0 1.5,0.671 1.5,1.5v1.5c0,0.829 -0.672,1.5 -1.5,1.5z" fill="#ffffff"></path><path d="M12,21c-0.828,0 -1.5,-0.672 -1.5,-1.5v-1.5c0,-0.828 0.672,-1.5 1.5,-1.5c0.828,0 1.5,0.672 1.5,1.5v1.5c0,0.828 -0.672,1.5 -1.5,1.5z" fill="#ffffff"></path></g></g></svg>