<svg xmlns="http://www.w3.org/2000/svg" xmlns:xlink="http://www.w3.org/1999/xlink" viewBox="0,0,256,256" width="100px" height="100px"><g fill="none" fill-rule="nonzero" stroke="none" stroke-width="1" stroke-linecap="butt" stroke-linejoin="miter" stroke-miterlimit="10" stroke-dasharray="" stroke-dashoffset="0" font-family="none" font-weight="none" font-size="none" text-anchor="none" style="mix-blend-mode: normal"><g transform="scale(2,2)"><path d="M51.8,90.9v0c2.7,-3.6 4.2,-8.1 4.2,-12.9c0,-12.2 -9.8,-22 -22,-22c-12.2,0 -22,9.8 -22,22c0,4.8 1.5,9.3 4.2,12.9v0v0c0.1,0.2 0.2,0.3 0.3,0.5l17.5,23.6l17.5,-23.7c0.1,-0.1 0.2,-0.2 0.3,-0.4z" fill="#ffffff"></path><path d="M34,118v0c-1,0 -1.8,-0.5 -2.4,-1.2l-17.5,-23.7c-0.1,-0.1 -0.2,-0.3 -0.4,-0.5c-3.1,-4.2 -4.7,-9.3 -4.7,-14.6c0,-13.8 11.2,-25 25,-25c13.8,0 25,11.2 25,25c0,5.3 -1.6,10.3 -4.7,14.5l-0.1,0.1l-0.3,0.4l-17.5,23.7c-0.6,0.8 -1.4,1.3 -2.4,1.3zM34,59c-10.5,0 -19,8.5 -19,19c0,4 1.2,7.9 3.6,11.1c0.1,0.1 0.2,0.3 0.3,0.4l15.1,20.5l15.3,-20.8c0,0 0,0 0,-0.1c2.5,-3.2 3.7,-7.1 3.7,-11.1c0,-10.5 -8.5,-19 -19,-19z" fill="#454b54"></path><path d="M84.3,35c-1.5,-2 -2.3,-4.5 -2.3,-7c0,-6.6 5.4,-12 12,-12c6.6,0 12,5.4 12,12c0,2.5 -0.8,5 -2.3,7l-9.7,13.2z" fill="#03b763"></path><path d="M94,51.2c-1,0 -1.8,-0.5 -2.4,-1.2l-9.7,-13.2c-1.9,-2.6 -2.9,-5.6 -2.9,-8.8c0,-8.3 6.7,-15 15,-15c8.3,0 15,6.7 15,15c0,3.2 -1,6.2 -2.8,8.8l-9.8,13.2c-0.6,0.7 -1.4,1.2 -2.4,1.2zM94,19c-5,0 -9,4 -9,9c0,1.9 0.6,3.7 1.7,5.3l7.3,9.9l7.3,-9.9c1.1,-1.5 1.7,-3.3 1.7,-5.2c0,-5.1 -4,-9.1 -9,-9.1zM108,118h-1c-1.7,0 -3,-1.3 -3,-3c0,0 0,0 0,-0.1c-0.6,-1.2 -0.4,-2.7 0.6,-3.6c1.2,-1.1 3.1,-1 4.2,0.2l1.4,1.5c0.8,0.9 1,2.1 0.5,3.2c-0.4,1.1 -1.5,1.8 -2.7,1.8zM95,118h-3c-1.7,0 -3,-1.3 -3,-3c0,-1.7 1.3,-3 3,-3h3c1.7,0 3,1.3 3,3c0,1.7 -1.3,3 -3,3zM80,118h-3c-1.7,0 -3,-1.3 -3,-3c0,-1.7 1.3,-3 3,-3h3c1.7,0 3,1.3 3,3c0,1.7 -1.3,3 -3,3zM65,118h-3c-1.7,0 -3,-1.3 -3,-3c0,-1.7 1.3,-3 3,-3h3c1.7,0 3,1.3 3,3c0,1.7 -1.3,3 -3,3zM50,118h-3c-1.7,0 -3,-1.3 -3,-3c0,-1.7 1.3,-3 3,-3h3c1.7,0 3,1.3 3,3c0,1.7 -1.3,3 -3,3zM98.5,107.7c-0.8,0 -1.6,-0.3 -2.2,-1l-2,-2.2c-1.1,-1.2 -1,-3.1 0.2,-4.2c1.2,-1.1 3.1,-1 4.2,0.2l2,2.2c1.1,1.2 1,3.1 -0.2,4.2c-0.5,0.5 -1.3,0.8 -2,0.8zM88.4,96.7c-0.8,0 -1.6,-0.3 -2.2,-1l-2,-2.2c-1.1,-1.2 -1,-3.1 0.2,-4.2c1.2,-1.1 3.1,-1 4.2,0.2l2,2.2c1.1,1.2 1,3.1 -0.2,4.2c-0.6,0.5 -1.3,0.8 -2,0.8zM78.2,85.6c-0.8,0 -1.6,-0.3 -2.2,-1l-2,-2.2c-1.1,-1.2 -1,-3.1 0.2,-4.2c1.2,-1.1 3.1,-1 4.2,0.2l2,2.2c1.1,1.2 1,3.1 -0.2,4.2c-0.5,0.6 -1.3,0.8 -2,0.8zM77.7,74.1c-0.6,0 -1.3,-0.2 -1.8,-0.6c-1.3,-1 -1.6,-2.9 -0.6,-4.2l1.8,-2.4c1,-1.3 2.9,-1.6 4.2,-0.6c1.3,1 1.6,2.9 0.6,4.2l-1.8,2.4c-0.6,0.8 -1.5,1.2 -2.4,1.2zM86.7,62.1c-0.6,0 -1.3,-0.2 -1.8,-0.6c-1.3,-1 -1.6,-2.9 -0.6,-4.2l1.8,-2.4c1,-1.3 2.9,-1.6 4.2,-0.6c1.3,1 1.6,2.9 0.6,4.2l-1.8,2.4c-0.6,0.8 -1.5,1.2 -2.4,1.2z" fill="#454b54"></path><g fill="#f48884"><path d="M34,68c-5.52285,0 -10,4.47715 -10,10c0,5.52285 4.47715,10 10,10c5.52285,0 10,-4.47715 10,-10c0,-5.52285 -4.47715,-10 -10,-10z"></path></g></g></g></svg>